<mxfile host="app.diagrams.net" agent="Mozilla/5.0 (Windows NT 10.0; Win64; x64) AppleWebKit/537.36 (KHTML, like Gecko) Chrome/137.0.0.0 Safari/537.36" version="27.1.5" pages="8">
  <diagram name="SIMBOLOGIA " id="Gvw5nTEdD1aj_ee6Ooh8">
    <mxGraphModel dx="1434" dy="744" grid="1" gridSize="10" guides="1" tooltips="1" connect="1" arrows="1" fold="1" page="1" pageScale="1" pageWidth="827" pageHeight="1169" math="0" shadow="0">
      <root>
        <mxCell id="0" />
        <mxCell id="1" parent="0" />
        <mxCell id="faVUljBZly8V2AnBJGif-1" value="" style="shape=image;verticalLabelPosition=bottom;labelBackgroundColor=default;verticalAlign=top;aspect=fixed;imageAspect=0;image=data:image/png,iVBORw0KGgoAAAANSUhEUgAAAkMAAAIbCAYAAADo5JoBAAAAAXNSR0IArs4c6QAAAARnQU1BAACxjwv8YQUAAAAJcEhZcwAADsMAAA7DAcdvqGQAAP+lSURBVHhe7P13mBzXfeD9fk9VdZ7Qk3MEBmEwRCLAAJAAc5BIKlvprsOV7+Pn3WfTfW2v0961NkkrvY/X67Ut+13v+rWVbCtSokSKCSIEgAABEmkGYTA559A5Vp37Rwf2NAYgKAKDGcz56DnioLuqp6fqdNWvz/mdc8SxU+ekZtixhMCyLAQSTYCQEk3TAIGirGaWaaEJDaEJkBKJREoLISAajTI1PcWlS5e49977KSkpzd9dUVYVKUFmfkCi6xpYqXodjUaYGBtnfm6O5g0bKCuvyN9dURRAExIhJElTYkqB0HQEIJAIaSHNKKdPnWRbezsHDhxAXBqclLrNiZn6+CGkREgJWOi6oYIhZdWzTIkmRCoYQmJZFlJaaLpGOBxmcGCA48eP8eFnPkJ1dU3+7oqyquQGQ1Ka6OmLONIiGArR39fH+NgoHTt2UlffkL+7oiiARiqOsSSYEjTDhkAgkOjCwozHeO3ll9i0sYWHDh5A9E76pdDtJEwTIVIbCstCYoLU8l9fUVYdXRhoQqTjdgvLShXDZhCNhOnt7eXnb7zBRz76MWpqavN3V5RVRdMMhKaBtDDNJLoQCJH6UhoKBei90sPw8DB37dxFfYMKhhRlOZaZBGmiaQYJS6Lb7EgJQprYNdCw+OlPXmDzhiYeffgAomfcJy2hE09aCCFSXWRYIC00zYD0h1BRVishNaRlYUkLIVJfqy1pYhgG0WiE/v4BDr/xBh/52MepqVXBkLLKyVRjPsjUBZ1Ud5kmBJFwmL7eXoZHRti+cxf1jY35eyuKAmAl0QDdZieWSCJ0A2lJLMtEx8SuC1772c9oa23goQP7EL3jPplEI2lJhBRoGugi1a9mWqmuM0VZzXRhYFkWIFMBvSawpImmaYTDIQYG+jly5CjPPPuc6iZT1gANIbT099BU2oIlU/mckVCYvr5eRkZH6Ni+Q3WTKco1aOl8O023EY3HEZoBgJQmmmWiY/H6ay+zqbUpHQyNLUoTDYmGZVnomsDQBEgLK53ApyirmcBA5gZDuo6UJkJAMBhkYKCfN998Mx0MVefvriiriiW1bCs9CDQhkJaJlBahYJC+/l7GR8fo2LGDuvr6/N0VRUm3rabSJzRiySSabkvn3plo0gLL5PVXf8amjU08dOABRO/IvLREKnpKJpNoAgxdgGWpLjJlbbA0JBKkBQI0oaWCeAGBYICB/j6OnzjBc8+pBGpl9TNTcX2qyxfQdR0sC2lZBIMB+vr7mBgb464dO6lTOUOKsiyBREqJJSWWFAjdSI9OMNE1gTATvPqzF2nb2MJDDz2I6BuelZamY9jsxONxBKCnW4YUZS3QpI4QpIbUW6l6m+kuy9w8Thw/zoef+4hqGVJWPYlIXX6lhQQMXSc1a4QkGAjQ39/L+Pg4Hdu3U1unWoYUZTl6elBN0pQITUPoBmYyibSS2HQdYSV5+aWf0LaxlYcfPoDoGZmXQjeQaMh04nRmriGJGk2mrH7SSlX21M8WmiA1Z5aASCTM0OAgR35xhGc/+jGqa1TLkLLavdsib1kWuiD1jVZAKBSkr7eP0dER7tqhRpMpyrUImZoqyBIaqahGIAQIaSGsJIZm8vJLL9K2sZmHDx54N9pJzzK05F+pf6uiyuouuVlty2e45W5z9f6qqLK6ytXezd5MPS+zFTp/X1VUUSVVUp8Pkf/5Saf/yHc/TgCq6UdRFEVRlPVNBUOKoiiKoqxrKhhSFEVRFGVdU8GQoiiKoijrmgqGFEVRFEVZ11QwpCiKoijKuqaCIUVRFEVR1jUVDCmKoiiKsq6pYEhRFEVRlHVNBUOKoiiKoqxrKhhSFEVRFGVdU8GQoiiKoijrmgqGFEVRFEVZ1+7IYEhKiWVZK1Lku8tHK4qiKIqyBt0RwZCU8qqyUvJ/77WKorxf+XVIlfdXFEVRbtSaD4YyF73beRHMvwiv9qKsTvnnSZWbWxRFUa5lzQZDa+1Cl/9+b1fJfy/K6pB/ntS5+eDyj6c6poqiXMuaDIbUxe2Xl39zUMdwdVDn4dZTx1hRlGtZc8GQuoHfXOp43j4yJ9FfWRlq4MPaZVkmQkjsduOqgSyq3HiR6nqzrDUVDKkb962hWolWnjret5c6/mtL5lxZliSRSOY/rbwPcpkeAmWNBUPKraM+GCtHHefVQZ2HteHd8ySQEkxTtWx8UPnBkPocrKVgSJ2wFaE+GLeeOr6rhzoXq5e6Ua8cdazXUDBkreOTtNLW+4dCUZTbS92cV956P+ZrIBhKJZkqylon0wnTyupiqYTqVWU935BXg/V6/Fd9MLQOz8mqsF4/ELeKOp6rmzo/q4M6D6vDejwPqz4YWmmWaTI82M+hV37KT5//LuNjI8TjsfzN3pdQKEhP90V+8vx36O+9QiQczt/klySZnZni+JGfc+LYYeZmp/M3+EDW4wdCuXWCAT+XLpznZy/8gOHBfqLRaP4myjq3Hq43C/NznH3nJK/97AWmpyZJJBL5mwAwONDHG6/9jNdf/il+3yKmaeZvckuth3ORa10FQ+FQkNHhQbrOnc6Wi51nGei7QsDvw7Is5udmeefkcV74wT/x89deYn5uBjP5wSphMODnYudZ/ukb/5vuS12EQsH8TX4pUsLUxDiHXvkpb7z2ElOTE/mbfGDr7QOxVsViUUZHBrnQeYa+nm4SifiSc2dZJosLC/R0X2JqYnzFL6wAPt8i58+c4vv/+HX6e7uJRm7WlwLlTnAzrjWxaJThwf4l1/jc0nvlUv4uK25udpqTx4/w4+//I6Mjg8t+2V6Yn+PU8SO89JMf8tabvyAcDt+WLvabcU7WilUdDN3MlgnTTDLQ18Pz3/0WX/7i7/PV//RHfPU//xF/8uU/5uv/+2t0X+oiHotx+WIXF7vOohsGDz/2NM0tG3G53fkvpyirytzcDC/84J/4yn/8Q/72r/+MuZmZJQFPPB7nYucZ/uYv/oRDr76oAhFlVblZ1/qZmSm+9w9/z5f++N/yX//jH/DV/5y6zn/1P/8R/9d//nd843//1U35PR+EEBqGYWAYBslEYtlckHNnTnGp6xwet4eHHnuayqoqbDZb/ma33M06L2vBqg6GbqbuSxc5fOgVus6fpaGxmQceeoxHn/gwTc2t+BYXWVxYxLRMvKWl3H3PPj7yic/y0ONP4/YU5L+UorwvK3lBSSYSzExPcujVF5mbncl/WrmOlTxPyrtuxXEv9paybfsuHn3iw9ny+Ic+wv6DjyGEyN98RZWUlrFt+y72H3yUxuZW7A5H/iYUFhaz78CjfOSTn2X3nnvRND1/kxVzK87PaiR6Rual0A0sNECCNBFYaEIguX0ngJt8Eg6//gqHXv0p4VCQT37216iqrsEwbAQCfmLRCNW1DZRXVNLTfZFTx4/i9y3yoY98kvrGZmamJuk8+zaDA31UVtcyOT5CIh6H9Idu+649TIyPMjE+Sijgx+F0UVvfyL37HqSsvIK52RlOHH2D73zr77h3/wEMw8jur+k69+47wKYt2/CWlEL67x4dHuTyxU5GhgYI+H0IIaiua+CuHbtpatmA2+1BSsnFzrM8/91voRsGz33is7R37ABgemqSviuX6LlyiYW5WQDKKirZtGUbW7Ztp6ioOHts3osAEOK2X0SuxbIsNC0V11uWhS5S/xUCIpEwQ4ND/OIXv+C5j36M6pra/N1vuZVo3h4fH+FH3/02vzj0CrquU1ZRxac++2ts372XoqJiotEIp08e5/nvfptde+/juY9/Gk9BIQATYyNcuXyRgb4efIvzAFRW17K1YwcbN22hIL3d8GA/506fYnJijJKycibHRjHN1GzAZRWVbG7fzuT4KBNjI0TCIVweDw2Nrdy770GKi71MTo5z9I1XeemFH3Dv/oewzGTqmzHgcDq5d99BNm7aSmFREeFQkMH+Xo688Rob2rYQDPoZ6u/F4XByz74DtG1uJ5lM0NN9kXNn3iYSDiEti7KKKjZv7WDn3fdgGMb7rrNCpL65rxaZ+iylBAHhUIi+3l5GRkbYvnMX9Q2N+busOTfzOj86MsR3vvm3zM1O8+DDT9KxfWf2OaFpOBxOyisqGejr4fSp4zgcTu4/8DBlZRUAzExP0XX+NEP9vTzw0GPUN7YQ8PvoOn+anssXaduyjd7ui4TTqQ6egkJ2772fze0deNJfnOOxGCPDg5w+dZyZ6UkS8TiaruNyu3n6mU+QTCY4deIoVy5d4LlPfpYNGzfhcnsIhYKMjQxz6cJ5LnWdJRwKUVldw/ade9i2fRfFXm/qnuX30dfbzdE3XqNlwyZ8C/PMTE9m/84du++h/a6dVFZVZx/7oMQqvv5fi5ASIUEKQRKBRKAJgcBCmAl0zeSVn71I24ZmHj54AP1f/Z+/90WhacjULQ+Qqd2EuKMajvp6L9PfewVNaBx85EnqGpooKS2jorKK6tp6CgoL0TSN2ZkpLnWdZXion42btlJRUcX05DinThzj5Ju/YHZmmmAwQDgUYnxshMH+HnyLi1zqOofPt0DA72NifIyxkSEKi4rxlpQhpZXKVTp/mkgkgt+3SCQSxudL7RcKBikpK6OkpAwhBL7FBQ698lNOHT/K5PgoyWQSv9/H0EA/ft8CTqeLyuoahBDMTE9y+WInmqaxuf0uKiqrCfh9nDpxlKOHX6e3+xISScDvZ3x0mJnpSaSUNDa1vq8K/n62XWlSZupr6mctffMQApLJBL5FH0NDQ2zespWCwtSNfSXdrAv99QQCfrovdjI7M0VldS1Tk+PYbDbKyiooLa/Askwmxka5fLGTmrp6Nm/twDBs+P2LHH3jNU4cfYOhwX4sy8Lv9zE6PMj83CyGYaO2rgFN0xge7OetN3/B6ZPHmZudJhwKEQoFGR0eYmSon/m5OS51nSMY8OPzLTAxNsrkxBhFxV5KSstIJOIMD/Zz6cJ5wqEQft8i0UiYhflZLl/sIhQMUF5ZSbG3hFgsRl9vNy//5IfMTk8xMTbK7Ow0mqbR1LIBp8vFlctdvPHaz+g6dxqBYH5ulonxUXyLC7hcbsrLK9ENI/9QXVcqGFo99TxTnyH1rSSRSLAwP4/f76equoai4hv/UrMe+P0+Lpw/g2VZ7Lr7Hja330VRsTdViopxezwADPRd4c0jP8fvX2Tz1g6Kir0AzE5PcfrtE5x95yRtm7dSXlGJb3GBM2+f4Ojh11icn2d6aoJIJMzM9BS9Vy7h9/moq2+koLAYyzIZHxvhlRef552Tb+JbXMC0TPx+H4P9vezcfQ/JZILLFzvp67nMlvYOKiqrkUh6r1zi0Csvcu70SXTNQNN1Aj5fNq+ovKIal8tNKBjgyqULvPTCD5ibnWFmeopAwE8oGOBi1zn8fh/F3hIqKiqx2e15R+iXs5qv/9cicr7IW+l/CSFS8Y200ISkr7eHslIvLc1Nd1C08x4Ki4rxeAoIBvycfect+nuvpCr1+xjZJaUEabH3vgc4+OhTbN22A9M0OfvOCZKJOHdt382DDz/Bxk1bGB8d5uw7J68a4WWZSdo2t3Pw0afYf+BR6hqauHThHJe6zjM/N0MsGqG35zLHj76Bb3GeDW1beOSJD3PgkSfwFBTQefY0Z94+gX9xYcnrZkgpGR0Z4p2TbzI00Ed1TR2PPvEMDz32NNW19YwMDnD0jdeYn53BTKo1fu40me6BispqersvcfliJ4sLqdaefMlkgsH+Pk4eP8LUxDiNTS088sSHeeixpyktLaen+yJvvfkLFhbml7RuSSkxDIP7H3yYg48+RduWdqLRKF3n3gYku/bcywMPPU5T8wZGhwc4feoEvtz6KlM5fFu3befgo09x776DVFZWc+70Sbovdl31fsdGh3G63Txw8DEOPvoUTS0b8C0ucPadU/R2X6KhqZkDjzzB/oOPUVpWTu+Vixw+9DLhcGhFAlFlfTCTJgsLs2zbvpuHHnuau+/dR2FRMWfePsHgQB+hUICA38/lS50c+flraJrGjt338OgTz3Dg4SfYvLUDt8ezbFCxOD/PhfNnOXn8F9hsdu7df4DHnnqWLdu241tY4OevvpQegRlZsl/AnwrEDj7yJA889Dj1jc0M9vfQ232RhYW5Jdsq17dugqG6+kZq6xvw+xf54Xe+ybf+7m94/eUX6e+7QjQauaGuDG9JCQcffYonnn6OJz/8Ee7bf5D6xmYMw+CpZz/Okx/+KE99+KM8/NjTCCGYmhgjHApl99c0jT33PcCHnvsETz3zMR576hk+9blfp7i4hKmJMaanJgmFQnSefYdoJMI99z/IMx/7FR567Cme/NBHeOqZj1FWUcnE2CgD/T1L3luGlJIrly8yPzfLxk1b+Nin/18ceOQJHn/6WZ768Mdo29zO3Mw0F7vOEcn7YClrn9Ppor6hmXv3HcSSkgvnz3Cx82xqYsG8bePxOBfOnyXg93PXzrv5yCc/y8FHn+SJDz3Hk898nPrGZqYnJ+i5fJFkTuBcXlHJQ489zZMf+ghPfvgj7L3vAWrqGnC7PTz3ic/w+NPP8fSzH2ffgYeRUqa6zXISth0OB/seeJgPfeSTPPnhj/LEhz7Cc5/8LC63m/HRYeZmln6BqE1f7D/2K59n34MPU11Tx/joCFMTY9TWN/Arn/9/c9/+gzz5oee4+5596LqNy13nCAUDN/S5Vm6fWzXhpWWaRGNRwqFgtkQi4Wy37C+joLCQg488yTMf/RSPP/0cjz31HA89+jSaprE4P0c0HGZ+bobuixeQUvLYk8/y9LMf58AjT/Dkhz/Kv/qdf0djcyu6fnX6yfjYCGMjQ5SUlPH53/gtDj76JPsPPMLjTz/LgUeeYHZ6kp7LF5ifTaU8ZOzacw9PPfsxnn7u4zz8+NM89/HPUl5eSTAQwO/zLdn2g7iZXZmr1boJhqqqa3n0yWf4/K//Fu3bdzM5PsKhl1/gf//Vf+f/+Z9/ztjo8DXne8iw2x1U19ZhGKms/sKiIiqrqhFCUF1Th7ugAE3X8RQUUFPXgJGf/S8EFRVV2dFpTqeL1o2bsTscBIMBQqEgyWSC2ZlUq01lVQ0Vlel+XyFoatlAcbGXWCxKwH/tir64MEc0GqG4uISGxubs41U1tVRW12CaSRYX5lTL0B3K6XKx78DD1Dc0MTI8yMkTR5icGLsqMLBMk/m5GeLxGKXlFVTX1Gefq2topKysgkQijs+3gJTv7utwuqisqkbTU5ePTJO8bhjU1jXidLnRdZ3CwiKqa+quuvhruk5ldQ1OpxMAj6eAltY2dN3A7/cTzmutbWndeFWul9+/SCgUYmign7/4ky/x7//tv+QPf/uf88PvfJO5uWlkOnfDslZ+CgHl9hvou8I3/vfX+MPf/ufZ8rU//a+cPH4kf9MbZthsVNfWYU93PblcLsoqKlJ9q2nBQICJsRFAUt/QRHFxSc4rXFsoFCQWi1JSVk7rxk24XC5I92g0NrcihJbKb40t/QJbVl6Jx5Pq+jcMg4rq6pvWNbberJtgyDAMqqpruPuefXzsU5/j1/8//4J79z+Erhtc6jzH6y//JJsUdy1CCAzDSHdEplp6UoGRwLDZ0ISGEAJN07HZbFc1hwpAN4xsgqam6xQUpHKVLNPEMi3MpEkokJrzyOF0ZkcaCJG6adhsNqS0rrtyczgUIhFPYNhsuNypPnIAp9OJ0+lESpkedn1nR/rrla7rVFRUcc/9D1JT18DwQD+HX3+ZYGBpS4llWQSDAZLJJHa7A2f6AgzgdruxOxzv1pWcqqJpIlvvAXRNS+fmCGw2G5qW6pvXdD37xSGXSH8eM58D3TBwewpSnwPLXBJ4Abg9HhzOd98bQCQcJh6P4ikoYOOmLTS3bqS5ZQNbt21nzz372L33ftyeglWVDK2sHLvDSVlFFc0tG7KlsroGRzoA/2Wkrv/vXtc1TUPX9Wy2LenPVDKZ+lLtcrtvODCJx2LEYjF0Xcdud2Trrc1mSyVmC4hEIld9Ydd1PTt4BJa+P+X9WVdXCpvNTmlZOZu2bOOefQd4+PGnab9rB4lEnPOnT13VH3uzScBMJpHpG5JlWUQiYaRloRsGuqGjaQKH04UQgng8TiKRGnUmJUSjEZLJJJqmp4Kya7DbHeiGjmkml/xN8XiceDyemufCZgd1o7gjCSGw2e1s276L9o4daLrOuXdO0n2pk1AosGQ7p8OJrukkE/Elk7/FYlGSiQSa0FLzm9zE66sEkslkNugxTZNoNJzORbKh5bckaanPRS673Y6hGxQVl7Dnvv08/PiHePTJZ7LlwCNPUFTsRc/eKJT1pKS0jJ279y6pE/fc/yD1OS3ly4nH4ySWmQTxRmm6js2WCoCisWg2MHovhmGgaRrRaGRJ2kYyaaau4TJ1/9L1a1/3lQ9m3VwpQqEgvsWFbOuPYRjU1jdQU1uPbhgEAv6ruhFuOimZnBzH51skkUgQDgW50n2RWCyG2+3B5XJjtzuoqa3HsNmYnBhjanIC0zRJJBIM9vfi9y1is9txp4c7L6eisgq328PiwjzD6RFCyWSSifFRpqcmUl0YRcXot3HuCuXWq6isov2unbRsaGN+fpYL588QCPizz+uGQVVNLQ6nk9nZacZGhrFMk2QiwejwEHOzMxg2G56CopvawmKaScbHRgj4/SQTidRQ4Z4rJJMJ3B4PTsfSVqDllJSVU1hUjKYJnE43bZvb6di+i63bttO6cTN19Y04nE6ECobWpYLCIlo3bOKunXdny+atHVRVL+1ujUWj+BYXkFISi0WZnppgLi8v5/1wuVyUlqeG6Y8MDTA/N4eUkmQyydxsqkt6udybomIvBQWFBPw+hvp7iUWjSCkJ+BcZHR1CSkmx17uk9Va5uVb1leJmDucb6O3hzNtv0dN9kXA4RDgcYqD3Cr1XLhHw+SgpK78qt+FmMy2Lk8ePcOnCOaYnJxgZHuTlnz5PKBSgtKwcb0kJTpeLjZu24HK56Tp3hjNvv8Xi/BzTk+McfeM1pibGKSwqpjz9gcsnhKChqQVvSSkjw0MceeM1fAvzqSGjJ4/TfbELl9tNTW0dNvvVXRjKzXez6vAvo23TVvbcu5+iYi/hUHBJnpjNsNG6YRMFhYX0dF/ireNHWFyYZ2Z6ihPHDjM82IenoIDK6uqcpvgPLh6LcewXh+i+1MX09CSD/b0cevVF4rE45eWVNzRcvLa2nvKKKhbm5zh86BXGRofx+31MT09y5fIFOs++s+wyB+/t9p0rZeVomo4mNKYmJzjz9knC4RAjw4OcPX2Svp5ffsmOktJyNm1uR9cNjh89TPfFTgI+H/NzMxz7xc+Zm51ddnmn8opKqqpriYTDvPrSC0xOjKYCo4F+zr1zCk3XKK+sys5lpNx8N+8Kt8r1dF/kZz/5If/zL/4bf/Tb/wd/9Nv/B1/771/h9MnjlJVX8KHnPpGdXO6WkZJQwM9PfvBPfOU//QFf++//lb4rlyj2ltK2uZ2a2gZcbg/btu9i09YOIpEQL/7ou/ynf/fbfPU//REXzp+hqXUDe+97gLprTLYmhGDjpi1sab8Lh8PBiaNv8B/+8P/Ll7/4exw+9DIFhYU8cPBRNmzcjMPxy/efKzfuZgb175fD6aS5ZQMPPvR4tvk+w2a3s2XbXWxuvwvLsvj5Kz/lP/7R/8l//Q+/z6kTR6morOa+/Q/R1Lzhpn5RsCyLoN/P9//x63zlP/wB/+trf8pwfy/llakJEyuravJ3uUpjcytbOrZTXFJK19m3+R//13/ij3//X/GV//AHfOdb/w8D/b0kE+9vgMDtPE/KympoaqGqppZwOMgbr73Ev/udf86ffeU/8s5bbxKJ/PLpEiUlpWzdtp26+kamJ8b4h6//Df/+9/8V/+X/97v89Pl/Ynpy+XUBq2vq6Nixm6aWjXSdf4f/9l+/yL//vX/F3/7ff8bo8CAHH3mSbR07KPbeWEK28v6tm0kXAXQj1Z9b7C2l2FtKaVk523fezUOPf4it2+7CU1BILBYjHo9TVFTMpvYOir2lxBOpXJvC4mI2b+3AW1KKrutEIiEi4TAuj4edu++hsLgITdNJJBJEQkGqa2rZuHkrhYVFxOOphTPvf/BhSisqcbs9lJdX0ty6kceefIYt27ZTUFiEpmnYHQ4qKqspLvbi9hRQUFhEaWkZW7Zt5779B9m8tSM7e3AsHiMWi1JRVU3rxk0UFXuxGTa8pWWUlVficrtxFxTgLS1jw8bN7Ll3H7v23Eext+SGL/yr/SYhV/mkiyshmUgSDocoKCykdeMmysoq0LRUQr/d7sjW2Yqqara030VdYzM2mw2bzU5ZeSUlpWW4PR48BYV4S8vYtLmdvfc/SMeO3RQWFSGEIBIJk4jH8ZaW07a5nWKvF03TCAVTI2GKiou5a+ce3G4PmqYRj8eIR6NU19Syacs2XC43iXgcw2Zj/8FHKSr24i4ooLyyig1tW3j86Wdp29yOx1OAJS0S8TiJeJy2LdvSXxTeXSPQMGwUF5dQWZWaiK6wsIhibyne0jKaWjZwz/0HqKisel9B3Gqs55n6DKlGqztt0sXluow+iEQylX7gLSmleUMbpWXl+ZtAOn+0pLSUktKy7D2hJH0/2Lylg7LKSra0b09PmiuJx2M4nS62btuOt6QUw7BhWRbxeIJIJMyWrR3ZyXtdbjcNjc0UFnspKCyisKiYsvIKWja0sX3XXhwuB4lEArfbw9Zt2ykpLcPucOD2eKiqrk19BkvKKC0rp6GphR2793L/Aw9RWV2DzWZPp03ESSYSbO3YQVVNHU6nKz3YIUkw4KemroGGphaK05NJ3gyr8fNxPSLTznuDky6u6uU4MuRNmOMgEg4zNzvN/PzS/uCysorU8N90QnIw4GduboZYNJqq3AWFhEPBqx7TtNRQx9npKULBAC0b2nClbwLRSITxsWEAKqpqcDgc+BYXmJwYo6a2Ab9vkWDQn0pOtTtobt2wbCvNzNQk8/OzxGJRBILComIqKqvxFLzbVBoKBpianEDTBBWVNUue8/sWmZqcIBJJzXXk8RRQWlZBSWlZdpsbcTO7SG4Fa5Uvx8FNqsPXk8p3mCQaCVNeWY3X612S55NMJBgdGSIcClJaVkFFVfWSQGF+bpbZmalswn1BYVG6y+rdi6nf72NudhozmaS6pg5PQSEiPWP63GxqwtCWDZtSuTpCEA4FmZwYA6C6ph7d0FmYn2N+doaauobULNbhEJrQcbpcNLduzA4MSCYTBPx+JsZGKC1P1dnlPiPhcCi9/EcYK52QXVBQRGNTK7qhv6+L92q82Gfqs7xDl+O42XmasWiUyYkxkskE5RVV121JMU0zPWv5SPaxsvJKRLqu19Q1UFBQSCIeZ35uZsljuq6TTKYCj5GhAcorqygpLcOZM+pxbHQYv2+RRCKOpum4XW5qGxrTv3eGUCBITV0qgMokRicSidT8dOEwlmVitzsoKvZSVl6RrZuJRBy/b5GJsVEqq2vxlpRgtzuQlkU0FmV0eBC7w0FZWQUFhUXZ9/NBrcbPx/W83+U41kQwxArcTJRrU8HQB6fq7+q3Gi/2d3owpD4Xa8dq/Hxcz/sNhlb3XS7HWjsRipJL1d/VTZ2f20Md97VhPZynNRMMKbfHam8VWkvWwwVlLVLnRVGUNXWnE6tsRek7mUjfJJSbSx3T1UedE0VR1lQwlJkDRF28VoD6tnzLqOO6eqhzsTqos7B6rZfPyBoLhlSTtrL2qTq8OqjzsDqIVJN//sPKKrFePidrLhjK0DQtO4+KcnOtl8p/O6ljfHup47+6CCFUfuIqtJ7OyZr/S9VF7eZSx3PlZG4A6nivHHXMFUVZzpoPhsi5gasb+S9H5B1DZWWp474y1HFe/dT5WT3W27m4I4IhlgmIVqLcCUQqErqj/qa1KL9uqXPxweUfT3VMVz91nlaH9Xge7phgKFf+BfBWlrXvTvk71r78uqXOyy8v/ziqY7l2qPN1e63X439HBkMrRaTzD65XVlulyn/Pq+39Ke/KP1eq3HhR9Xpty637yspY758dVdNusdV2Q1uvFV1RlLVJUwHRLZW5R6136ggoiqIoq1qm62a9duHcbEuPZ/6z65MKhhRFUZRVLT8YUuXmFTX/d4oKhhRFUZQ1Jf+Grsr7K8rVVDCkKIqiKMq6poIhRVEURVHWNRUMKYqiKIqyrqlgSFEURVGUdU0FQ4qiKIqirGsqGFIURVEUZV1TwZCiKIqiKOuaCoYURVEURVnXVDCkKIqiKMq6poIhRVEURVHWNRUMKYqiKIqyrqlgSFEURVGUdU0FQ4qiKIqirGsqGFIURVEUZV1TwZCiKIqiKOuaCoYURVEURVnXVDCkKIqiKMq6poIhRVEURVHWNRUMKYqiKIqyrqlgSFEURVGUdU1c6J2Q6AYWApAgLQQWmhBIFSspa4C0JEIT6Z9TddeyTIQQRCJhRoaGOXrsKB9+9iNUVVfn764oq45AIAHLMtGFQEqJEBAOh+jv62N0dIyO7Tuoq6/P31VRFEBIiZAghYYJSDSEAIGFMBMYmsWh119lc1srDx88gLhr+04Zi8eR6Rew6TqaphFPxBGkbjCKsppJQIh0MCQlmqZhWSbI1ONSSgKBAB6PB13X83dXlFUlcy0mU5+FQCLRROrLaTQaBQE2w4amqS+sirIcCSAlCIGm6ViWhaalAiLLNHG7Xey5+24+8YlPcPDgAcTf/u3fyvwPVOpbiMjeYBRlNbMsK1tXLcvKBjxSSmKxGLOzs/T29rJz5068Xm/e3oqyukj5bjiUuRZnxGIxJicn8fv91NfXU1pamn1OUZR3SSmxLAvTNLHb7Vc9l0gk8Pl83H333dx///2IeDwubTZb9kNnmiaWZWGz2ZbsrCirVebmIaXENE30dOsmQCAQoK+vjzfeeINPfepT1NXV5e2tKKtTblCUEQgE6OnpYWhoiLvvvpumpqb8TRRFScsEQ4ZhIITAsqxs70E0GuUHP/gB9fX1PPDAA2iZQCizkRACTdOW/SAqymqU24qZqfC59VkIQSwWw7Ks/F0VZdWRUi6pu5l/A9kgP5lMqvqsKO9B07QlDTu59waXy4Vpmu9+gc58m87cTDRNQ9M0TNPMeUlFWb1yAx/DMDAMI1vpAQzDwOl0qvwKZU3ItM5nZAKizGO6rmOzqXwhRbkRUkqSySRSSgzDQNd1EokElmXhdDqzXWiaEAJd1xFCkEwms4GRSjRV1orlbgq5XWXJZJJYLKZaO5U1Ibfukg6GNE3LXpNN08xe3BVFWV6moSeRSGQbe0jfL+x2e7arLB6PA6D/8R//8RetdAJqbneDoqwVmTqb++0501KUTCZZXFykt7eXjo4OioqK8vZWlNUlt3ss00KfCY7i8Thzc3MsLi5SW1tLcXFx3t6KomRkvkhompbtQZDpnCGArq4uiouLaW5uXjqRkKZp2Q+hoqwVmfqaG8hnKn2GCvKVtSJz0SYvH468fCJFUd5bblyTafgh3cKaeZ7MDNS6nhqDn/lWndk480FURZXVXHJlvgXkfgAyXb+qqLIWCjktm5kUhuXk76eKKqq8WzIyXywyLUJaeoBYJjcvE/domegoEzVldsxN4FOU1S5Tf7MVOx3tZ0YLKMpasdzFPLdFKHMxz1yrFUVZXua+QE4LEenPWCZvKEPLJOVlkvYyH8TbnUCd+SNyb2S5NzvLsrBIzTKZKVkSkBIsM1XybpbXDvQkYK2bYgEmYEqJJWX6OEosaWKaSUwzkdpCSrBSS7Vk9zWTSJnMvALIZP5ZWDGZOpsb9WceNwzjqgm3FGU1yw2Gcuty/mOKolxf7peHzP0h//nM50rLjZQyP99u+cHKcheEJe9Vpu7XMvV/7z5OOiiSEkG6+Sz9v3ejqOzO665IaUFO/oFlJrHMVPCjaSAEJJMJpJSYloVpWpBeokVKC2lZSMtMLX2xOqrOVXU482FQlDuJCogU5cYsGzMsY1XeJXKDn9x/Z2Rzm9ILsaV+zgQ3uVsKEKn9ZXrbJUGflNdoWlofxLuhTfa/OZElQmQez2wrQKZ/ykRL6S3yA1hFURRFWStWZTCU+01e5Ixuy3R15QY3pIMiSLdwZKO/1M9SaNkWICkl0srpaxektl+vJbc5Rwg0XUfT9HRXmQUytcAdgNC07M9IgRCpfwtNQwht6XFVFEVRlDVkVQZDmdabTMnkL2npiceyfX9C5AQ56W6b9P8sKUmakkQinVskIGlZxBIJ4okkpmViSokprVQXkGWSTEoSSdZNiSdNTMtCWmBJC9OSgEDTDHTdBkIjkUiSNK1UylA6frKkhWVJUrFPKjDSDRsivaq2oiiKoqwlQuZ8nc/vnrqd8t/Lcv82kxaarqEJgSVTgc/84iJz8/P4fH5C4TDxeIJAYJFYLEY8HiceT03DnQqm0q1NpoVlmRiGfV3d0N0FHgoLCykuKqSoqBCPx4Pb6cTtdlPgceN2OdNdZakoKBUAWRiGnmqZEwJIPZb6+fYdu9z68e57g3A4zMDAAC+99BKf+cxnqK+vz9tTUVav/OteMBiku7ub/v5+9u7dS3Nzc94eiqJwnXtCrm9/+9vU1dVx8ODB1RkM5b5xmTMLa2bODcuySCaTaLqBPxBkZnaOmZk5AsEwSUum81k0JAIpU4GOzFmgjWzrE6mmDjKtHLfvZn47aIaW7ikU6JqGrmskkwks08Rus1FcVIi3uJiaqgoKPC50PdXlKDSBaZlIKdGyCcoScRuP37UqvgqGlLUs/5qsgiFFuTHXuifkWvXBkJWzPEgmGBLpm25mnaloNMrEzDyBYBh/IEQgFCaRtLA7nThdHuxOF7qRWszQ0AWaJtCEhtDSo8lyZH5XarTU+pHqGkySjCdIJhOYpkk8HiMRj2GZJoauY7fbKXYZVFWUUlZWRkFBAQ6HLScYSg9nx0JTwZCi3FT512QVDCnK+3cjwdDtu3tdR058Bjm5QslkkoWFBUZHRxkdG+Ps+Yv0D48RNyVllTU0b9xMffMGSqvqcBeX4fAUY3MXIewuMJxIw4GlOzB1O0nNRkIYxNGJSY2YpZHAWFfFEnYMRwGuohIKSyooLquipr6Jpg2baWhpo7isirgl6Ovv59Klbvr6BhgfnyAQCCIt0LVU/pZMt6wtPWuKoiiKcvstFwjlW5XBUKY7TOYtvDk7O8vly92cPn2GK1d6aGppZcPGTVRW1+IuKEIYdpKWIGFKEibETUHM0pDCjiVsJCyNWEISS0iSloaFgcTAwiApNaRmQ2r2dVMszYYpNUxLYCKwhEbClMSTFpbQcRUUUV3XwM6duyksLKKvv58jR45y7lwnPp8f00wlrJNpXcs7j4qiKIqyFqxwMJSerThbrNTEf+TNDJ0eHYYEhEY4IXm78wonOnuZjepUbNhJ3dZ70NylWLobU3NgYmBaAkglVBtCYhMmdplEWEmEaaJJC0OAIUCTFpqVekyTFjoy9W8ruX6KNNGwEKTnYMrmTaWKTJewcOEor6d2411UNW1mejHMiVPnuNzdh98XTE1jaQmSVgxLxoBkarZqi3RzkUyda5KYJLIBlKIoiqKsBisaDEkklmViSTOdtJya2C934r5kMomVzt1JJJNMz8xx+ux5JqdncRcUU1xagW53IjU7CB0pMjftd9slxJKSnkQwvUVuyd8+O+ngOik31pIjSFiA7sDpKaKwtJzCkgoszWB8cpaevkHGxidBkBqJJwQys6uUYKVmuU79TkVRFEVZfVY2GJKZyfwy98nM8g55t2UBsXiCqelZ+geHmZmdw7DZ8XgKcLvdGIaNRFK1MKwYoWMJDRMBukFBsZfi0nJMoTM1u8jgyCQTM/MkkhJLalgyFRCZZjKb/yVlJhdsRaucoiiKorynFbwzpbq+RKoJASlJ5ZzId2eY1jQN3TBISpidX2RwZIyp2XmKS8rwlpZjytTEifmrzSq3lm7YQRipfKKEhRQG7gIvBd5SNLubeX+Ey70jzC0GicZNTEtimTK1zpmQ2VhXWiwf/CqKoijKbbSCEYVI5fNoBprQl9wUE4nUsG5NSy3rMDsf4HLfIL5QhIrqWrwlpViA3ekEoRGJxbDZbKlOsMwM1KrcsmJJ0q09OlKzpZLTLXB4ivBWVOEq9DI97+dy7yCLvtRIs1gigc1lT2Xxp9eE03QdaakuM0VRFGV1WcFgKHfNsczaVhpCCHTdQNN0EokE0zOznD7fRcISFBSXohmOVM6KMDCTqfmHDJuNaDy1mrqyMlITVqZG+mmGTjSeIBpLIIWOp8hLeXU1gUCEkfFp5v1B7A57Zk+QZrqfTICVWexVURRFUVaHFQ2GUmP9U11kpIfQSwmalmo98PtC9PcNEjfBsLvQbU4soZO0QNMNEBqmJUmaVmqR0PxfoNwSmgCRDmqkmQQJevp8WDKViu10eXB6iphfCDA8Ms7Cop9YLJaegyi1QG4qCFZnTVEURVldVjQYygRCMj0b5Ls3RkE4HGZqaprZ2TkKi0uwuwoQhg00HSt1KwZNR6JhWcvPJqncGtIyU4PshURICdLCZujouobMLpcicBd40QwHM7MLXOntI2ma6Q6xd0evXT3/t6IoiqLcXiseDJFtIXqXtCxmZ+cYGxvDMAw8hUUYdidoBkIzQOiYlkSm805SuUWWyjxZKVYSHQtDg9T6tum5iUgNE5MyNV+UYTgo8pZhoTE4NEwgGMS0UkupIEFaqfmMFEVRFGU1WdFgSEqZzRPKTEEjBESjcSanZpidnaOqqop4wkzP1ycw0+uUaboNy0qNUBKA0FKLjCq3nsOuo2kSaSWxzARIC8tMIK0kmpAYemqR19RECRpebykVFZWcPv0OoVAAhMCSkkQsgdCyMbGiKHe4/MEYmaL8ct7r+F3vueW81+vlej/brkUrGgyZQqTmBrISCCuKJhKARVf3FSZ8YTwNmwg4K8CwLZmROtUVkwDLTLdKWGCZWEhVVqDEkhZJCyyhpbot03MOpc6EyE55kEQSQyKcbpzF5UzMhRid9BGIJMCwoTsN5IrWOEVRbqd33nmH//Jf/suS8s1vfpPLly/nb6q8h1AoxE9/+lO+//3vEwwGlwQmiUSCoaEhvvrVr3L58mXi8fiSfZcTDod56aWX+N73vnfV6+WLxWKcPn2av/zLv2R2dpZkMpm/yZq3orcmkR6VZMnU3DPSTOL3+Vj0+1NrYRV6sTT78k0HMn9I9rVPnHJzSZldgSzVlJd5PLekF2oVmg6aDpqNgqISRsenWPD5U617mlDnTVHWkUAgQCAQYNu2bTzwwAN0dHQQDod566238Pl86XzDO8fk5CTHjx9ncHCQWCyW//QHYlkW8/PzzM7Ovrt0VZqu63i9Xh588EEqKirQdX3J88ux2Wxs2rSJjo4O7Pb0NCjXoOs6tbW13Hfffbjd7jtynr8V/4usTK6P0LFMi7GxceLxBHaHIz13kLpZrlkyM32CQEpBeWU1cwsLzM8vEosn0ttkFyxTFGUdcLvd7Ny5k3379mVv1kNDQwQCgatu6mvd3NwcnZ2dzMzMkEikr3krQNM0iouL2bdvH2VlZTccDG3cuJGtW7dit2emQlmeYRjU1NSwZ88eFQzdfKnV5QeGRjEtcLncqVyiO+zDsZ4IZGpaIQvQNDyFxSQtwdyin0WfP5VEfZ2mWEVR7mwej4eCgoIlN9NYLMbc3ByDg4MMDg4yMTFBIBAgHo8TDAYZHBxkdnaW8fFxBgcHGR4eZmZmhmQySTKZZGFhgdHRUXw+H6OjoywsLBCJRPD5fNnXHBsbY3FxkUQigWVZ+P3+7OuNjo4SCAQwTZN4PH7d9zI0NLTkvYyOjhIKhbAsC5/Px+TkJLOzs8zMzDAxMUEoFCIcDjM2NpZ9zfHxcQKBwJLjkmFZ1pLtR0ZGmJmZIR6PX/faaZomoVCIoaEhotEoyWSSxcVFhoeHmZ+fZ3R0lMHBQSYnJ4lEIpDuWpuZmWF2djb7OtFolJmZGYaHh7PvNxAIEIvF8Pl8jI2NZQPYeDzOwsICIyMj2W1nZmayr7/W6F/84he/mP/g9ZrLPggpU/MDaUJHSkkoHOWds50UecspKCrFtAQSDU1Yy3WUKaudlTrHCLKzTQsgFAqiATWVlaSugbcuBs/U3cx/E4kEi4uL9Pb20tHRQVFRUd4eirL6Zepz5ma9sLBAXV0dXq83f9NVZXBwkKGhIbZv305hYSHDw8NcvnwZKSUPPvggNpuNsbExXnvtNb797W9z7NgxBgYGcKR7Cq5cucLXvvY1wuEwb7zxBi+99BLvvPMOMzMztLa2EolEOHz4MD/4wQ8wDIPvfOc7JJNJDMOgq6uLv/mbv+HYsWPZPJry8nIMw+DEiRO88MILvPjii3R2duLxeCgvL2dmZobXX3+db33rWxw7doz+/n5sNht2u52+vj7+8i//klAoxJEjR3jxxRfp6uqirKyMkpISjh49yqFDh5icnKS7u5uenh5KS0tZXFzkG9/4Bq+88gpHjx6lr68PwzBoaWnJP1xEo1EuXbrEt7/9bV5++WXOnTvH7Ows1dXV6LpOT08PiUSCu+66C4fDka0X4XCYS5cu8bWvfY2tW7eiaRpvvvkm//AP/0AikeDHP/4xr776KqOjo5SVlVFeXs709DQ/+clP6O7uZvfu3QD09fXx6quv8qMf/Yg33niDo0ePUlZWhqZpnD59mueff559+/Zhs9kYHx/n2LFjfPe73+XnP/85R44cYWFhgeLiYioqKvL+stWps7OToqIimpubVzoYkmjp+YVC4SiDw+NMzS3iLa/C7vJgpvNONHGjK6orq4lIrzMnNB1NtxGNxvF4PCzMzYKZoLG+FkMjnXd0a86wCoaUO9FaDobefvtturu7eeuttxgaGqKmpoYDBw5QWlrKzMwM77zzDgAf+tCHePzxx7HZbMzNzRGJRDAMg/Pnz1NfX8+DDz7IwYMHqaqq4ty5c3i9XgzDYHp6mrGxMVpaWnjkkUeor69ndHSUoaEhnn32WR599FEqKysJBAKMjo4Si8Xo6elh165dPPvss9x///20tLQQCoU4ffo0pmny4Q9/mMcffxyHw8H8/DzhcBi73c65c+eoq6tj//797N69Gykl586dY/PmzWzcuBG3200wGOShhx7iscceY8OGDZSXl9PR0cH+/fu57777CIVCzM/PU1ZWRlFR0ZKAZnBwkMOHD3Pffffx+OOPs2XLFmKxGIODg5SXlzM8PLxsMBSPx5mdneXcuXPcd999uFwuRkdHGRgYoKGhgUcffZSNGzdmf8eOHTsIh8P09PQghGDHjh0sLCzwk5/8BMMweOSRR/jQhz7Egw8+SGtrK5qmMT4+zujoKA8++CA+n4+jR48yNjbGgQMHeOaZZ9i2bRvT09OMjo5SW1uL253q7VnNcoOhW/cVfRlaOv9WAqFIhL6hEQqKS9AMO1IKdE1PvaF0d4oqa6sIkbpop6ZEEJjoCN2OFDrxRJJIOJxfJRRFucN5PB527drFtm3bSCaT+P1+PB4PQgjm5uYYHR2lu7ubkydPcvjwYTo7O+nv72dhYSH7Gs3NzbS0tNDa2kpbWxt1dXUsLCwQCoUAcDgctLS00NjYiBCCqakp+vr6OHXqFEeOHOH06dP09PQwPz9PXV0dFRUV2W620tJSCgoKWFxcZGxsLBu45b6X+fn57HtpamqipaWFDRs20NTUxOTkJIFAALfbTUlJCQ6Hg/LycqqqqnC73USjUaanp7Ov29fXh9/vz773jEgkwuTkJMPDw5w9e5Y333yTkydPcuXKFYaHh3+phGy73U5bWxvNzc1s2rSJ8vJypqamsl17GclkkvHxcYQQNDU10d7eTmNjI42NjRQWFmIYxpLXnZ6eJplMUldXx/bt22lqamLLli00Njai6zoTExNrLh9sRYOhTJBoSQhH4kxOzeIp9CI0A9OSOUtsXLtvVFnNMjODC0wpEbqNpAU2hwuJxvzCgjq3irLOuN1uduzYwb59+9i4cSPJZJKhoSFIBwCGYVBYWIjL5ULTNGpqamhra6O6ujr7GhUVFbjdbgzDoKCggLKyMkzTzI5Gs9lsVFZWYrPZsvk1RUVFFBQUYBgGZWVlbNiwgU2bNlFTU0N7eztlZWXMz89z8eJFJiYm8Pv92feSSRKurq6mra2Nmpqa7HspLy/H4/HgcrkoKSkhkUgQi8WWHRnn8/no7++nq6uLQCCAEAKbzYYQ4qrtk8kksVgs+77tdjsFBQXZ4MTtdi/Z/kZkEp8dDgcFBQUUFBSQSCSIx+NLghXTNJmfn6eoqIjKykoKCwuXvE6+UCiE3W6nqqqK0tJShBC43W7KysrweDwEAgHkdXKcVqMVDYZSLT5gJiXRWJJoPIHN7gLNSK1xlW5hUNao9Dh7mV7lHs3AlAK3pxAhNKamptX5VZR1SAhBSUkJO3fuxOv10tXVRTgcRtd1SkpK2LVrF7/yK7/C5z//eT7/+c/z8Y9/nLvuuiu7fybYME2TSCTC/Pw8TqczPQJ5KV3XKSwsZOPGjXzyk5/kc5/7HJ///Of51Kc+xYMPPghAa2srO3bswO12c+bMGbq6ukgkEni9Xnbu3MmnPvWpJe9lx44d+b8GIcRVLSYZmUBjenqa3t5efD4fe/fu5bnnnqO9vR2Hw5G/C5qm4XK5qKqq4sknn+Qzn/kMn//85/nsZz/LM888Q2lpaf4u74uu69cdZaZpGslkkmg0+p6tUDabDdM0CQaDRCIRpJQkEgkikQjxePw9h+qvRisbDKUTauOJOLF4AofTjZWelRoBpplMD0VS1iQpkel5pCQCS4Jhc+DxFGLJ1IVBNQwpyvpVV1dHSUkJk5OTXLp0CY/Hw8zMDJcvX05dH65hZGQk27U0ODjImTNnKC4upqCgIH9TioqKSCQSdHV1MTY2dt0JCIuKiqiqqmJqaorCwkLm5ua4dOnSdd/Le5FSEo1GsSyLRCKBlJKCggJqa2vx+XxMTU0tO5rM6XTidrs5f/48g4ODBIPB/E1uGZvNRkNDAyMjI3R2djI2Npa/yRJVVVUEAgHOnz9Pb28vlmUxOztLd3c309PT1NXVrbnh9yuaQI1Irb+x6A8xMTtHMBanoLgUYaTySmQ63yS10IYqa61IS0MzdDRdYskEaCAsiTAtAr5Fgv55Ojo2ITT9li3Xmqm7mf/eSQnUCwsL/NVf/RU2m43CwsJlv13mCofDHDp0iHfeeYfm5uZs8/xyYrEYnZ2dfPe736W5uRmn0/mBLmYTExN0dXXR09NDbW3tkm/QgUCAv/7rv+b111/nyJEjHDlyhFOnTmW/ab/11lucOHGClpaW677nGxGJRDhy5AjHjh27Ka93u2Te81pMoB4aGmLHjh0UFRVhs9mQUhIOhzl9+jTbt2/H4/EwNTXFL37xC44dO8aRI0eIxWI4nU6CwSDnzp3D7XZz7tw5fvGLXzA6Osr999/Pzp07sdls2eHn99xzDw6HA6fTiWEYBINB3njjDU6cOMGRI0eYmJjA4XAwNDTE97//fV599VUGBgYoKipix44dNDY2YhjGVe8lEongdDoJhUKcO3eOvXv3Ul5eDunP5MmTJ9mzZw/l5eXoup4d4dbX10dJSQnl5eWMj4/zyiuvMDw8zOzsLB6Ph5aWFioqKrLn1jAMnE4nUkrOnz/P8ePHOXr0KOfPn6ekpATDMOjt7X1fCdSjo6Pce++9uN1uLMvKJlXfe++9mKZJX18fQgjuvvtuPB4Puq4zMjLC8ePHefPNNzly5AgVFRXYbDYmJiayCdQFBQXYbDZ8Ph/Hjh3jxIkTnDx5Eo/Hw549e2hra7tmq9lqcptGk0mQqdXNF/0hpmYXCMcSeIq8aLodhJZab0yI1Hw1ytojNYQmQEgsaaXOqRQIKQkHFolFfHS0t6Frt+6GdCcHQ8FgkJ/+9Kc0NzdTXV2N0+nM3+Qquq5TWlpKZWUluq5f97jruk5BQQH19fUfuJn7ypUr9Pf3U1tbmx0WnBGJRHjxxRepr6+nvb2djRs30tTURENDA8XFxdjtdkpKSqiqqnrP9/xeYrFYtoVg586dS24ga8laDYYcDge1tbU0NDTgcDjQNA2Hw5Gtk01NTdmAobq6mqampmxxu90sLCxw/vx59u3bx4YNG2hsbKStrY329nZKS0uzeTUNDQ3U1dVhGAa6ruN0OikrK6OiooLm5ubsa2ZyjwoLC6mvr6e1tZXW1lZqampwu90UFBQs+14yI7/q6urYsGFDNqfIbrdTXV2dHUlmt9vxer1Lfm9lZWX2vbS2trJhwwba2tqora3F6XRmz23m9UpLS6moqKC+vj77++vq6vB4PBQVFdHY2EhlZeWSYEMIgdPppLa2lpaWFlwuV/a4NDQ0YLPZst1wdXV1NDQ04HQ68Xq9NDU1ZQO5wsJCysrKqK2tzf7uTBJ1YWFh9jjbbDY8Hg9lZWVUVVXR1NREa2srW7dupaWlBY/Hk1MLVq/cYEjInCSOzI+35mIhwYojMRgam+Jy3zCL4Rhl1Q3ohjPdWkAqy9o0VaLtWmTqaDpYmklCWiAMNEtDt0zmJgYIzA3zqY8/hctZiKZdu+/6l5Fbd1Mj21J1OBwOMzAwwEsvvcRnPvMZ6uvr8/ZcO2ZmZvjSl77Es88+y+7du1ftjTAcDnPkyBEmJyd59tln8Xq9S1qZFhcX+dKXvsRjjz3G3r17KSkpWbL/zRQMBnn55ZcZHBzkC1/4AkVFRR+oxWul5V+Tg8Eg3d3d9Pf3s3fvXpqbm/P2uHP4/X46Ozv5xje+wb/8l/+SjRs3vmdrqKK8H9/+9repq6vj4MGDK5kz9O66VslkkngigW4Y2Q95ds0yUIHQGiXS0yZImc6iTv8sRGraBCEEyWRSJVHfBMlkEp/Px8jICAsLC4yNjTE0NJSdYTaT0Dg3N3fVDLOzs7OMjIwwNDSUXRYhFovh9/uXzDCbaVUbHR1leHiYoaGhG5phdnp6mkgkgtfrpbS09H0FH4lEgvn5eaanU8n28XicqakpJicnmZmZyb7nhYUFEunlDizLYnp6Ovs3jY6OMjc3t+aG9iqKcvusYDcZICRCaMzOLzI1O48w7DhdBal1yrJz1QiVRL1GCakhhUyvdQ8IHSwwhCAW9hOP+Ni4oRGHw3XTW4YyMnU38987qZss0+KyefNmXC4XZ86c4Zvf/CbxeJwXXniBV155haGhIcrLyykrK2N2dpaf/vSndHV1sWfPHgD6+/t59dVXef7557Ozxnq9XnRd5+zZs3z3u9/lvvvuw+FwMDk5yZtvvsk//dM/cejQIY4cOcLc3BzFxcVUVlbmv72sM2fOkEwm2bBhw7LbRaNRjhw5QmtrK3V1dbhcruxzMzMz/OxnP+P06dPs2bOHiYkJvv3tb3Pu3DkGBgb4zne+w5EjR9A0jZKSEoqKigiHw/zd3/0dL774Ij//+c85e/YsPp+PjRs3QnpW3cXFRXbv3q26ydaQWCzG9PQ058+f595776W0tHRN5KEoa8dtm3RRWV/yW4Dy/63cPJ/97Gf5/Oc/T0VFBUeOHMm2mmRk5hE5fPgwUko+/elP84d/+If84R/+IXv37r1qXpHZ2VlOnjzJ4OAgzzzzDL/7u7/Lb/3Wb+FyuXjzzTeZnJy8quUl05KTGV3S2Ni45Pl8hw4d4i/+4i/40pe+xJ/+6Z/S09NDNBrN3yxr48aN/O7v/i5PPvkko6Oj9PX1AeByufjc5z7Hb//2b/N7v/d7fPjDH2ZkZIT+/v6rJrZT1g6Px8OOHTv4gz/4A1pbW99zMVFF+SBWNhiSqfU2NE1D11Kr1qdaEFLffDSRGkemrE0y27259CxKKbEsC0lqGoVbNZJsPbKlV55uaWlh8+bNVFRUMDk5SSgUWjKpm2majI+PI6WkoaGBbdu2ZRMki4qKrpp/ZGZmhlgsRm1tLTt27KClpYUtW7bQ1NSEruuMj49fNWmcaZoMDQ3h8Xioqqp6zyTKlpYW9u7dywMPPMB9991HWVnZNb/5l5WVsXHjRpqbm9m2bVu2Oy0Wi2GlF8kcGhri3LlznD9/nsXFRfx+P8lkMv+llDUik9Df1NSEy+Vaky16ytqxssFQmmEY2UmbkKm5h4QQqZFIypolZXqQfTp36N3HLUzLRFoSIydPTPngDMOguroah8OBx+OhsLAwOyNubkucZVksLCxQUFBAVVXVe3YX5s8wq2ladobZgoIC/H7/VS198XicCxcuUF5eTk1NzXvmCrW0tHDvvfdy4MAB7r///ut2g2RGuWialh35EovFCAaDjI2NcfbsWcbHx4nFYui6jmEYmKZ51XtUVg8pZXb197m5ufynIWfh0uPHj3PlypXs6uuDg4PXnT/oRgUCgezrvddEgxlzc3P09/czMTGR/5Syhl3/anUriNS3WbvDnrpBSpnJtU21IKiL1xqWc+5yRsFYlsQ0TSzLQteN/IYj5SbR32OGWZFeAuBGZpi12+2YpkkoFFp2htn8UT2WZREOh+nt7aWwsPADz5Z7PYZhZAOtYDDIlStXGBwcpKGhgSeffJKHH344O/RZWd0uXbrE6dOnGRkZyX8K0zSzOWSvv/46Fy9eZHR0lP7+fvr7+9+zDt+Iubk5Tp8+zenTpwnf4NqJw8PD2cVnlTvHyl4t0i0ChmFgt9uxzPRsxeluFMuyUt/m8vdT1oR349jUec58K5fSSnWJSolh3LoJF5VrMwyD+vp6xsbG6OzsZHR0NH+TJSoqKgiHw5w7d46enh5M02Rubo7u7m4mJyepq6u7au6gTB5ReXn5VTlIt4plWdkJ+jLJ2uPj48zNzV3VjaesLaFQiOHhYbq7u/noRz/K008/zX333ccjjzzCI488smJ1TFkfVjYYkhogcDodOOx2Fubm0AFkEstMIKWJpqVmobZUWXNF6GBKMC0DKdyYpg2EhpQJHAaUFBSgo4Kh20HXdWpqanjggQeIRqN8/etf58tf/jJf/vKX6erquqrLoby8nN27d1NdXc13v/tdvvrVr/I//+f/JBKJsG/fPqqrq5e0vPj9fnp7e2lvb6e4uHjJa91KhYWFbN26lYqKCn784x/zjW98gwsXLuB2u1V37BoXj8ezCfCZhUsV5VZZwUkXSQ+ZF8SSFn1Do/zs9aO0b9+F3eVOLceBwLQk+i0adq3cWrpMB7JCx9IMTNNCJ048MIcZnKXErfPgA/ciNFu2lfBmya278g6ddDEajXL69GmampooLCxkcXGRiYkJOjo6cLlcWJbFzMwMw8PDdHR0IKVkbGwM0zRpb28HYH5+nvHxcebn57Ovu2XLFjweT/a53bt3Y7PZCAQCTE5OLsmNyMxOmztRomVZXLp0iRdffJHnnnuOxsbGJcPl88ViMc6cOUN9fT0VFRVLutzC4TCjo6PE43G2bdtGKBSir6+PgoKC7HIJiUSC7u5u3G439fX1mKbJ5OQks7OzSCmz+Yj19fUUFRUxPT2N3+9n69ata245jvxr8u2cdFFKycTEBAMDA3i9XrZt2wbpOa/OnDmDEIKOjo4lM6NnctVOnz7N/Pw8yWSS8vJyNm3aRHNzM4cOHcLn89Ha2srOnTuz+83NzdHZ2cnx48cZGhpi165d7Nq1K7siellZGY2NjQwPDzM5OYmZXjQ0GAzi8XhobW1l8+bNGIbBxMQEFy9eZHJyMvv69913H3V1dUxOTnL69GkAHn744asmAI1Go/T29jIwMEAwGMx2H4fDYZqbmzl48CDJZJLTp08zPj5OOBzG5XKxadMmWltbr1pp/tixY9jtdhobG6mqqgLg7NmzCCGorq6moKCAs2fPYlkW0WiUYDBIPB6ntLSUXbt2LTtvV19fX3ZwRDweZ2FhASkltbW1bNu2Da/XS2dnJ8FgkGQySSgUwuPxsG3bNhYWFujt7c3mbJWUlNDW1kZjYyN2u51kMsnFixcZHh7G7/dncxR37NhBYWEhk5OTdHV1MTc3l/2dbW1tVFdXMzExwcjICNPT04RCIQoKCnj66afRdZ3BwUF6e3uzc6CVlJRkZ6LP74K/lXInXVzZeYZI5QcJXSMaizE6No7T7cHucKIbNiyZyi8RmhpVthZpgESApoMQqZY+TIILsxgkaKyrprysBKHpV404u1kydTfz3ztpniHDMGhoaKCoqAiHw0FxcfGSpTM0TcsuM2C327Hb7ZSXl1NRUZF9DZfLlV0GIVM8Hg92uz37epnuL4fDQVlZ2ZJtKysrrwp0LMsiEokQiUTYtWvXe7bKZLrsioqKrkqYttlslJWVUVlZiRAiu9xBaWlpdmkOXdezid2ZwRglJSXU1dVRX19PTU0NdXV1FBYWYk8v7ZFZEuR672s1y7zv2z3PkM/n4+233yYUCtHU1IRhGMzPz3P69GlisRgbNmxYck7n5+fp7u7mypUrkDNZqN/vp66uLhv4Zs5RRiQSYWpqipGREXw+H1VVVVRXVxMKhejt7cUwDKqqqujp6eHcuXNMTk7icDiIRCKMjo4Si8WorKykoKCAYDDI9PQ0gUCAeDyeXYS1uLgYy7KywX5mGYtcvb29XLhwgampqWxS/tzcHIlEgsrKSmpqaujp6eHy5cuEQiEsyyIUCjE+Pk5lZSVut3tJd/Jrr72G3++ntLQ0u77ZiRMnWFxcpLCwEKfTyS9+8QsGBgaIRqNIKbOtrhUVFdnPfq7Lly9nBxC4XC5isRjz8/PZLzx1dXWcOnWK7u5uFhcXsdvtOJ1OotEoPT09jI6Opkb5CsH09DTxeBy3243H42FgYICzZ88yPz+PpmlomobH46Gmpga/38+VK1cYGBhA0zQSiQQLCwvE43EKCws5evQoPp+PeDyOZVnYbDY2bdrE6OgoXV1djIyMZAO76elpYrEYLpfrqoD0Vrp98wwJkcoRsiycDjt1NdVEgn7MRCyVV2KZqVmp8/dT1gQr801WSjQNMBPYNUEsGkZKSXlF+Zq9GSnXpus6zc3NfPKTn6SwsFCd4ztUpvUiM9Hl1NQUUkqGh4ezIw/z18sbGRnhnXfewel0cs8997B//36KioqyuWf582FllJWV0dHRwa5duwB45plnstMv5Esmk9hsNh599FE+/vGP09TUxNzcHMPDw5Du8r3vvvt46qmn2L9/P5s2baK/v5+ZmZn8l7rKmTNnCAQC7N69m8997nM8++yzFBcXZ1vsAoEAhw4dIhKJsGXLFg4cOMDmzZu5ePEiIyMjN5yUnS8ajdLS0sKHPvQhnnzySUzTZHh4mMXFxfxNIX0MAO6//34+9alP8eijj+JyuTh16hTxeByZXhy3qKiIxx9/nAMHDtDX18fk5CSbNm3ic5/7HP/sn/0ztmzZwuTkJJcuXSIUCnHs2DEikQh79+7l85//PJ/97Gd5+OGH8Xq99PT0cOHCBYqLi3nwwQfZv38/uq7T09PD+Pg4vb29FBcXs3//fj71qU/xsY99DJvNxunTpxkbG6OtrY3Pfe5z/Oqv/irt7e1MT09z8eLF7LFdaSsbDJH69ooEp93BhtZGQgEf8VgEaSWxpIXQV/gtKTdNKl/IAkx0LCwrgaZJpJVE1wQFBQU3vXtMUZSVk5nXqri4mOHhYaSU9Pf343a7l7TsZCwuLtLV1cWbb77Jn/3Zn/Hf/tt/4/XXXycYDOL3+29KkntpaSlbtmyhvLw827pZUlJCIBCAdKvD6dOn+cd//Ef+9E//lJdeeonp6ekbmoMqM6P7pk2b0HWdoqIiOjo6ssn6sViMy5cvc+rUKf7+7/+er371q3zrW98iEAhkW6J+GRs2bKCpqYnS0tJs15Vpmtd8Pa/XS3t7e3aF+YaGBmpra5mdnc0e55qaGlpbW/F4PMTjcQYHB6moqGDXrl3ZfKwdO3bgcDgYHR0lEAhw7ty57Dxm+a24mdnBDx06xFe+8hX+9E//lBMnThAMBtE0jV/7tV/Dsiw6OzsZGBjIduNljunu3buzv/euu+7C6XQyMjKSDd5W2opGHqaVqvi6LnA7bZR5C9BIkIhHAIlhsxFPJNVosrVKCISmgZRIM5U07ZufwWnTKS8ruerDpCjK2pNJnr98+TKzs7OMjY3h8Xiy3T65pJRUVlbym7/5m/zO7/wOv//7v8/v//7v81u/9Vts2bLlqpakX1Zua6TNZsNms2X/fejQIbq7u2lvb+ff/Jt/w0c+8pEb7l7Mz9ki3VWZH8Q999xz/Ot//a+zf98f/MEfsG/fvqu6fBwOx1XXwVgsdt3ATNO07Or2NxokmKaJaZoIIXA4HNlusOUs93ju77HZbFe954zW1lZ+67d+i3/7b/9t9m//1V/9VTZt2kRlZSX79++nvb2dyclJ/umf/uma0yEs9x5W2ooGQ6ClZymWGIbA47RTVVGGlYwRjYQRQmS7WlRZeyXT8ieQWMkYNh0WZqcoLHBRU12Frmvp7RRFWau8Xi/FxcUEAgEOHz5McXExFRUVywY2mcky5+fnqaqqorm5mebmZurr6/F4PFclA98MmRu/TM+NNTExkc23q66uJhKJYN3gIr6lpaXMz88zMjJCLBajt7eXy5cvZ/NxMq0wkUgEj8eT/fuam5vxer1LgjLSxyMUCjE3N0c8vXTN6Ojoe3anXS+YIWdqi0ze0tjYGDMzM9TW1i67Hp/NZqOqqgqfz0dvb282GOvv7yeRSFBRUYHL5aK+vp6hoaFlZ5z3er0UFhYSDAZpbGzM/t01NTW43W7sdjter5fKykp0XefKlSsEg0HKysrw+/309PQs+b3xeJyKigqM2zQx782vidchhEBaFlJaCCQ2m05LYz2GJoiEQySSyVvy4VBWhiTVOoSQWFaSZDRMMhGl1FuUSpwW6bmIVDykKGuW3W7PzkR+5swZGhoasrOD56uoqKC5uZmenh5OnDjB0aNHOXnyJL29vfmb3jJVVVUYhsHQ0BBvv/02MzMz122JybVlyxZM0+Ts2bO8+eabvPPOO8zPz2cDA7fbze7du7Mj5o4ePcrx48fp7OxcNsCpq6sDoLu7mzfffJPz588TCoU+8JfERCLB7Owsp06d4tixY5w/f55kMsn27duzAywyRHoQQnt7O7qu09nZydGjRzl69CgXLlygsLCQtrY2PB4Pe/bswe/3Z/+2EydO0N/fTzQapa6ujoqKCi5fvsyxY8c4evQob7/9NsPDw0Sj0ez57uzsxO/3U1lZiWEYbNmyBZvNRldX15LfW1BQQFtb23Unjr2VVnQ0mSXAkiYCC02kRo25XS6m5hbwR2Jgc2JzutHSS3Qoa4uFACQaFlgJFmYmcTttbGiqp6K8NB0Epc67Gk2mKDcuU59v92iyjHg8js/nY3BwkAMHDmQDjnwOhwOXy8X09DQ9PT309/czPT2NEIKNGzcyOzuLEIKysrKrutkyv2NhYYE9e/ZQUFBAIBAgGAxmR0n6fD6SySSlpaXZQCMzgqmwsJDGxkacTme2BWR8fJza2loMw8jmzwQCAZxOJ/X19VeN1PJ6vdnJHwcHBwGor6/H6/VSXl5OQ0MDpaWlLCwsMDg4mF0yJBgMZkdq5nK73YRCIUZHRxkaGsLhcFBSUkJNTQ2VlZV4PB4mJycpLCykpqaG4uJikskkc3Nz2ST1/Hm8RkZGssngExMT9PX1YZomGzduZPfu3TgcDqamptB1nYqKimy+k9frJZFIMD4+zuXLlxkcHMTlctHR0cHmzZtxOp1UVFTg9/sZGRnJJkbbbDYqKyuzIzwnJia4dOkSAwMDzM7O4nA4KC0t5fnnn6evr4/p6WlcLhd33303jY2NlJWVkUwmGRsby/5ep9NJR0dHNlBaKbmjyVZsniEJJKTEEBJhJUEmU0OshcHJ85cZmJjHchRSXFGLkUwiPmCkrKy8hBRIK4nTEOhWjAtn3+bePTvZ2NxAcYEbmRlldgsaJHPrrrxD5xlS1p/8a/LtnGco1/j4OOfPn2dkZISPf/zjy47yysj8DbmtH0KI7Gc197F8mS74zPaZx8j5rGfkP5//WP6xzN9+ud/PNfbNWO71M4/nb5txrde73vtZ7rGMN998kytXrlBXV8dDDz2UbVlZ7phlHs/If9+Z56+3zXKvu9zzuV2Rme1z93uv37sScucZuvl3pWsQgEF6/DU6FnYiUQspBW2NjdQVuWFmBOfiGKYpsUgl4mpWAs2KQTKMkLHUzdTQiaVbIiSaKre42DQDzQKSJsKS6EJDWBIsiQboQkOToGsCuy6QsRCRxWnqyzw0VHopdNqQloWFRgJN9ZIpyhqWTCYZHx9neHj4hpKgMze5zDw1ufkvmeeudRPM7Jf7fO72y+1/rcdyf3f+c9f6/Vxj3/x9crfJf7/5rvV6uc/n77/cY8u51ntY7vdkHs/dJ3+/5bZZ7nWXez7/sfz93uv3rrQVC4YAtMwBERpCaBiGDRAUFXiorSynrMhDcH4aQwDIVLK1JkAIhG4gNB1TWiTM5C3talGWSppJLCRoWvp8kDofQsOywDSt1MzhQiDNJAHfAiH/Indt24q3qABdV+dKUdY6mZ6B+tChQ3R1dVFWVsaWLVuu6lpSlLVoRYMheLf7QgiBzWZgWRJNF1RUlNHQUA9SEo8EsBKx1O1Ts6VmrdFsWJodU4rUMg9CrXC1UpJYWEIihcSSElOSCkY1HYmGaQHCwEomiIQCmMk4xcXF1NbUY7fZ082hqTwweWODOBRFWYUy3RsVFRV0dHRkR/8ot09VVRVtbW3U1dXd9taVtWzFgyGZczeUMtXkalmSwqIC6upqqK6uJuibJR4JABZSaCSkRkLqmFIHoaOjIW5waKTywQlDQ2oSU1okLQvLkpiWTK9Sr6FpNjRhIx4OkogEKSkuon3LZrR0q560LLCs1HyLFmo0maKsQUIIamtrefLJJ/nwhz/M5s2b8zdRboMNGzZk5/PRlhnRp9yYFT1yUkpMM4llpSaDAollmdm7Y0Ghh61bN+G2QTIWIhz0E41G0Gw2dJsTSwgsme6ntKzstxRVbm2xLAtTStA19PS3wHg8jplMommg6xpWMk5gcY6KUi9b2lqpqirH7nAg0LAsmZpdnFQvm6IoiqKsJisaDC1NokoFM5nZMU3TwjQt3G4n9+3dQaFLJxyYJxkLI6SFGY9iaBqGpiNNM5XEm/f6yq0i0DQdiSBpJjHNBA67gdNhQ5Mm4cAic7OTlHkLaKwtp6S4AGmmAlzTkmi6gaYZWKaJrqFW5FAURVFWlRUNhiA1tDrTkidEKuNcpnNKMlnlJYVutmxooqa8mKh/Dt/UGDYZh0QMkgl0cetWPVeuJtDQ0BEWYJoYGth1iRkPEQrMEgvPUegStDZUU+4twq4LNAHxRDyV/K6lhnpapqnOmqIoirLqrGgwJNMJ1JkuslQLQaobhvRQPABNSGoqS2ipq6Sy2IkWDxAPzGOG/QgzgS4ESTO1sIdy60kTMMFAYNMFurBIRIOEAjMkIgsUuiQbmsqpqyrB7bQjACFSZycT7FqZuX9UBrWiKIqyyqxoMEQ6ByWVI5TJSUktzyFlKjgSAgSphT4ry4rYsbWVltpSksF54qFFrHgUyzQxTZlO4FVuNSthgQm60LFpOolohMX5aeIRH0Vunea6CtpaqnHadXQhU7OLy9S0/WQm35IS3RCpyEqdOEVRFGUVWdFgSAiBJS0sy0JKsCwrO8T+3UU8JaaVxLDpuOw6ZcUednZsoWNTK4lwgInxMUKhEA6nC00ln6wIu2FHR8OMJwkFAkxPjONfmKWyzMtd7W20tdQhiKWaj9KLcggtNQeRZUl03UDTBFYimZ2nSFEURVFWixUNhkBH0+xomg0hdDTNSOf+pCZhTHWfCXTNgcCOhR1L2DAMO/UNtdyzu52tTSUQGGTgzCsEZkcxIz6EGUGTcSwzjmkmkUKAbmBqBlEpSK2Gpkp+MYVGUmgk0TARmIApwUJmC4BTBogvDDMzfAH/ZD+1pR4e2LuLuzZvxlvoRVoCDRtC2EAYqaQwkZ6jURMIDTRdR7PbQeV7KYqiKKvMCgdDgtRUiamSCX7ypQKjTNFBCJxOB9VVFWxsbaR9Uwtb25ogGWFxdoK5yVF889PIZAybJtFkAisZBSuOQxfo0kSTSVXyipAmOiaGMNEwwUpiCDN9DJPEwwEWZicZHughElqksqyYrZs20L65lfraaooLC7HbUoGtID1MLO+cZhvvhEAINRO1oiiKsvqs2EKtH1Qqpyi1MF8ymSQajXJlcJxFn59gOEIsnkRqBoZhB01DCg2hGRiGgU031D14GUJoSGlhWiaWZWKZJlipHK7Uv1M/280E1RWl1NZVU15WittlS52PbLCTyQO7fcFObt3N1BXUQq3KGpd/TV4tC7Uqyp0gd6HWVRkM5b+PVKL1uze47HYCotEkM7NzjIyOMTo+QSQax7DZsdntqdmrE0lcHg9aenj3da2zxF5dE5jJJEkziZQmGoJ4LEYiEcdus+Et8VJZUUFzQz1FhS4M/d25naS1NOE99cQKNzTmUMGQcifKvxaqYEhRbp5VHwyZZmqG6kwhJyDKLYaeyjOSSCxLkkyaRKJxwpEIoVCYYDhMMBhibHKGRMLM/zV50kP11008JEkmorgcDoqLiyguLsLj8eB2OnC73RR6CvB4XGiZYyxTydCWKbHZtHe7v6REWhKElZ5P6PbUHRUMKXei/GuyCoYU5eZZ9cFQ7s0s/+dcAhOZXuYBNCSpEWqJRIJk0sRK/y3RWPIGG33W2dxF0kLXNAxdR9dTAY6ha2i6jq7pCAHJeAxhc6LrOoJUoCElqZakdB5QtrrcxnqjgiHlTpR/TVbBkKLcPKs+GFpOpjWI9PsTQmBZiXTeSqblIt36I1Kp2u/+NzNqTcmXOtUyFQhKmerySk+MKAVYySToDjSRCo5INQYhLTOVDi9E6tjK25oypIIh5Y6Uf01WwZCi3Dy5wdDtS/L4JeQGRKl/C6TQsYSOFILUrTy1jta73TuZR1XJLxKZXUTeAiwpMaVEynSAgwaanp7PKZVMnZk5PDUqMBUYra/mNEVRFOVOs2qDofzARwiBpmXmIkrff3UDS2ipeXOEjmbY0YzUXDZSaulgScu93V+/CLmuSjId/JgILClImhZJCyyhIYWOlGCaqaOdmiXcTJ2TzGr2ppXKF0ptkT1XiqIoinI75cYQubHEtazaYOhaeUKk84KkZaXnO06VTLiTWkZLYAkBmp5dJFS5mtA0LJGabNFCoNvsGIYNE0HMtEhKsNkdqZYgTSI0ke4qs0CkJ1LUtVQLUyIdKCmKoijKGqNZVmp5DHJycVaL/PeTaR3SNA2hadggWwxAz/mvhsgWhHZjhfVVjJzjZxOZ4wY2oWHXU+uQpY6+hsBAkB4tJjLnQIAGQhNodj3179sgkyOUqSu5dUbK1ELAq6leK8qNyr8GKory/mRaiDIltRzY0hxkAP2LX/ziF3M/cOrb/foirpHzvNxj1/W+d7i58gOgzL/j8TiLi4v09/ezbds2CgsLc/ZSlNVruSAoHo8zNzfHwsICtbW1eL3e/E0URcmJZTRNW/J4bqzT2dlJUVERzc3NaNcKhFRQpKwVuVE+mW7UvMcUZa3Irbv5dTj/34qivLdMnJNfMvcK0r0iy8rfSRVVVmshryn0evL3VUWV1VZy63J+IS8gyt9XFVVUSZV8+Z+j/O2uO89QJpdIUVaz/Eotc7rJQqEQ/f39vPbaa3zyk5+krq4uZ09FWZ3y63RG7jxDe/bsoampKX8TRVFy4pjMfzOBUO5n6x/+4R+oq6vjwIEDCMuysvFQfjB0rQ+koqwmmQTp3CBe0zSklASDQfr7+3nllVf47Gc/qyZdVFa9zJfQTB3OyNTnTDB0zz330NLSkrOnoigZ+Z+j3FahzDQ93/rWt6irq+Ohhx5C/+M//uMlCdSZn1UQpKwV+d8Acn9OJBLZBOqOjg6VQK2sernX4PxrcyKRYG5uDp/PR11dHcXFxfm7K4qyzH0hP8YBOH/+/LsJ1Lk7Zoetq2BIWaPyvwGQU7cVZS25Xl1W9VlR3ptI5+Blfs7EN5nE6SVfNqLRqLQsC11PTU6Yu7OirAW5lV1KiWmaqYVlhSAUCjE0NJTNGaqtrc3fXVFWldz6nJu3KYQgHA5z5coVBgcHufvuu2lsbMzZU1GUjPw4JvMFwrKs7D3ie9/7Hg0NDamcobGxMRmPx7M7ZCIlKaX69qGsKZmbRzKZxGazIYQgEokwPDzM66+/zkc/+lFqamryd1OUVSU/GMpckzPBUG9vL0NDQ+zYsYOGhob83RVFyekWs9ITSxuGkf23lBKHw8GPfvQjNm7cyKOPPor4xje+IYPBILquZ79NZ5pmVTCkrAX5zZ2ZqJ/0qvWjo6McPnyYZ555hurq6ry9FWV1ya3Ppmlm67WmaUQiEXp7exkcHGTnzp1qQICiXEcmltF1PfvFgvQ9orCwkIGBAXbt2sXBgwcRp06dkqZpXtUPnd/EpCirWaaSkzOazLIswuEww8PDvPHGG6plSFlTMi1DmZ8zLUM9PT0MDg6ya9cu1TKkKDdA07TsF4vMlwwpJWfOnGHz5s3s27cPkUgkZKb5KBNFZXZQAZGyVuQGQ5l6a1kWwWCQwcFBDh06xKc+9Sk1z5CyZix3DQ6FQvT09DAwMMDu3bvVPEOKcgPyv1hIKYlEIvzoRz+ivr6e/fv3o2W6E8jpW8v0qWWCIlVUWe0lV/7jMp1Unf+cKqqs5rJcfc3U50yQlP+8KqqokirXo2kaLpeLZDKZTavQMs1FmX41wzCyuUOKshbI9ErEmSA+9xuAyntT7iSZ+p0J7hVFub5MLJM7dVDm3w6HI5tYreU+mZH7zUNR1orMjSL/m/NydVxRVit1/VWUDy63hShzX8jI/JxpGSITDGWeVB9AZS3KVPpM0JMf+Nxo06mirAbXuxbn1nVFUa4t/3OUnwKUkW0pyuyQ/+HLdDUoylqQf5PIrez5dVtRVrvrBe7Xe05RlBSZlzIhcqYNWo6WeSK3eyE3glKUtUYFQspa9l7BjqrTinLjMi1By6VL5AZHS7rJSH8QdV3PzuCrKKtdJoBXNwnlTpW5aOcWRVGuLRP8ZAaJZeT+nBvjaJkHcucaUpS1JNMEmi/zbUBLT8Co6rayFuTW50zgk/vYcnVdUZSrZRp3cv+dm2+X+7nKPrpcE5KirHXXCpQUZS1SdVlRbkxub1fG9e4HakiCoiiKoijrmgqGFEVRFEVZ11QwpCiKoijKuqaCIUVRFOWmMU2Tr3/96xw9ehSfz5f/9A07d+4cf/d3f8f4+Dg+n4+f/OQnvPjii4TD4fxNb5lwOMxLL73ET37yk1v+ey9cuMD/+l//i9HRUeLxeP7Tt8Thw4f53ve+x/T09PsaYBIOh3n11Vd5/vnnCYVC72vf1UoFQ4qiKMpNI6VkcHCQubk5EolE/tM3bHFxkcHBQaLRKJqm0dzcTGNjY3bk80owTZPJyUkmJydJJpP5T99Ufr+fgYEBwuHwik16PDMzw9jYGLFY7H0FNKZpMj09zdjY2C0/LitFBUOKoijKqma32+no6KCjowO73Z7/tKJ8YCoYUhRFUW4Jy7KIRCJMTU3h9/uZm5tjamqK2dlZotFotjUimUwSDAaZmppiamqKubk5IpFI9nWSySSLi4v4/f7sY/F4nMXFRaanp7P7RSIRLMsiGo0yOzt7zdfLJaVcsv3MzAw+n49kMvmerSWZfefn57PvY2ZmJtu6Y5omwWCQmZkZQqEQs7OzBAIBYrHYVX9vfjdcMpkkEAhctU0ymSQajTI9PY3P58se05mZmezfv5xEIoHf78++3vz8PNFodMk2mWM6NTXF9PQ08/PzxGKxa75mLr/fnz0G09PTLC4urqlWI/2LX/ziF/MfvNY4fEVZ7fInpkskEiwuLtLb20tHRwdFRUV5eyjK6pepz/F4nLm5ORYWFqirq8Pr9eZvettZlsWRI0eorq6mtLSU3t5e/vqv/5pgMMjPf/5zXnzxRS5evEhpaSlerxebzcb09DRHjx7l7//+7zly5Aj9/f2Mj49jmiY7duwgHA7zwgsvMDIyQkdHBwA9PT387Gc/44UXXuDnP/85R48epbKyEq/XS09PD9/85jd5+eWXs69nGAaNjY35b5dIJMLly5f51re+xcsvv8zZs2eZm5ujuroaTdPo7u5GSsm2bdtwOBxL9o1Go1y+fJnnn3+en/3sZ7zxxhucP38el8tFWVkZoVCIY8eO8b3vfQ8hBD/4wQ8Ih8MIITh//jxf//rXOXz4ML29vUxMTBCLxdi5cyfFxcVMT0/zxhtv8M1vfpMjR47Q19eHruvY7XYGBgb467/+axYXFzl27Bg/+clPOH/+PF6vF6/Xu2zr2fDwMIcOHeIf/uEfOHLkCKOjo4yOjuJyudi6dStFRUUMDAzw05/+lO9///scP36cwcFBioqKKCwsXPKa8Xic7u5uotEo27dvx+Fw8MMf/pAf//jHvP7667z11ltMTU1RV1dHYWHhkvex0vLvCbk6OzspKiqiublZBUPKnSW/4qtgSLkTrNVgqLKyEr/fz+nTp6mrq2Pv3r1s2bKFZDLJxYsX2bp1K4lEgjNnznDx4kUeffRRDhw4QEVFBT6fj1AoxI4dOwDo7u7GbrfT3t7OwsICL7zwAi6Xi/vvv5+HH36Ye+65h+bmZjweD0VFRWzcuJE9e/awa9cuFhcXCQQClJeXL7k5h8NhhoaGOHz4MLt27eLBBx+kpaWFaDTK8PAw5eXlDAwMLBsMhcNh+vv7+dGPfkRraysPPPAAe/bsobCwMBuYGYbB+Pg4AwMDNDU1ce+991JfX8/w8DDnzp3jkUce4cCBA1RXV+P3+/H5fOzcuZNEIkFXVxfhcJiHHnqIBx98EIfDweLiIuFwGMMwOH36NJWVldx99910dHRgWRYXL16kra3tquvc3Nwcb775JrOzszz66KM89NBDeDweZmdn0XWdtrY2otEoJ06coLi4mIMHD3L33XdjWRZzc3PZ4C5juWCosrKSjo4O7r77blpbWzl//jylpaUUFRXhdDqXvJ+VlH9PyJUbDKluMkVRFOWWEkLQ0NBAW1sb7e3tNDQ0MDw8jN/vZ35+nnA4TFlZGbt27WLLli20t7dTW1ub/zKQ/oIzNjaGaZo0NTWxfft2Nm3axKZNmyguLkbXdZLJJKFQiImJCS5fvszY2Fg2IMoVDoezwUpPTw8XLlzg0qVL9Pf3Mzg4SCwWW7J9rlAoxNTUFE6nk/b2drZt20Z7ezvt7e0UFBRku8RI5zw1NjbS1taG0+kkHo9TUlLCjh072Lp1K+3t7dTX12dfe35+npGREXp7e7l8+TLnz5+np6eHgYEBZmZmstvV1dXR1tbG1q1baW1tzY68y++emp+fJ5lMUlNTw44dO9i0aRPbtm2jvLwc0gnRU1NTDA8P09vby8WLF+nq6qK/v5+BgYEbGhUYj8dZWFhgcHCQy5cvMz8/z+Li4nWP4WqigiFFURTllhJCUF1djcfjwe12U1paSjweJxaLEQqFsNls1NTUZIOZ4uJiiouL818G0sHQ7OwsJSUl1NTUXNUKEggE6O/v5/z580xOTuL3+zFNE9I3/VyZ/Bu3242UMpvrU1FRQUtLy1XdYrlisRiRSITa2lqqq6txu93Y7XZKSkqoq6sjGo1mAwHDMKiursZmsxGNRtF1ndra2uzfW1RUtOTvzeQP2Wy2bK6P2+2mtraWioqK7HZVVVUUFhZmW24SiQSxWOyqYCgcDuNyubLbCyEoKyvD4/FAujUvGAxiGAaaphGLxQiHw3i9XhoaGq55Lkgf09nZWbq6uujp6cnmZ2XWhLyRfKPVQAVDiqIoyorRNG3J8HhN0zBNk2g0SiKRyCYdB4PBJfvlk1ISj8evGr4/MTHBlStXWFxcZN++fXz6059m+/bty3bVCCFwuVw0NjbysY99jN/4jd/gC1/4Ar/+67/OJz7xCUpLS/N3ydJ1HV3XiUajRKNRTNPEsiwSiQSRSARd15csCpqRCRIikcg1/17DMCgrK+Oee+7h137t1/jCF77AF77wBT73uc+xd+/eJa/HMsc033LH2OfzLUmgzgRsDz/8ML/+67+e/Z2f/vSn2bRp05LXyxWPx7l8+TK9vb14vV6eeOKJ7LHLXSR1tbv6TCmKoijKCnG5XIRCITo7O7PdWW+//TadnZ35m0JOl1N/fz9dXV1MTEwseT6RSCClpLCwkLq6OhYXF5mcnLyqi4z073Y6nZw9e5bBwUFCoVD+Jtfk8Xjwer2cPXuWCxcuZLv7hoaGOHPmDIWFhcsmD7tcLiKRCJ2dnYyOjrKwsMCZM2c4e/ZsdpuSkhLm5+e5dOkSU1NT7zmq7b0UFBQwMzPDpUuXmJiYwO/3ZxPLSQdClZWVDA0N0dPTw/z8fP5LXJOUklgshs1mo6ysDJfLxdjYGDMzMys2eeTNoBKolTtKfrKcSqBW7gRrNYG6qqqKQCBAZ2cn99xzT7alZW5ujrfffpt7772XmpoadF1nfn6ekydPcubMGWKxGKZpEovFsgnUvb29OJ1Odu7cme3WGhoa4u233+bUqVOcOHGC6upqiouLsSyLiYkJDh8+zOjoKDMzM3g8HlpaWpZ0MxmGgd1uJ5FIcPHixezrXLp0iZKSEnRd58qVK8smUBuGgcPhQNd1Ll26xOnTp3n77bcZHh5m+/bt7Nq1C4fDwejoKBMTE9x77704nU5cLhdCCBYWFjh16hRnz57NDokPh8Ps3LmTqqoqhBBMT09z4sQJTp06xfHjxwmHwzgcDsLhMOfOnWP37t1UVFQghGBxcZGTJ0+ya9cuKioqlrQUuVwukskkk5OT2WNsGAbBYBCHw8G2bduoqqoikUgwPDzMW2+9xVtvvcXx48ex2WwUFBQsaVnLTaDesWMHRUVFBAIBLl++zNmzZ5menmZhYYHW1lZqa2spKCjI7rvS8u8JudRoMuWOlV/xVTCk3AnWUjAE4HA4aG5upry8HI/HQ0VFBRs3bsTtdme7dEpLS9m4cSOFhYXZVpbi4mJqa2vZsGEDzc3NNDU10dTUhNvtprCwkIaGBiorK7M36KKiIsrKyqiqqqKqqoqmpiaKioqyzxUUFFBfX09TUxMbN26ktrYWt9udfZ+apuFwOCgpKaGwsJCKigqqqqqorq6mrq4Ot9uN2+2mrq6O6urqJd0+mX29Xm9235qaGpqamrjrrruoqKjAbrfjdDqprq6mqakJm82GYRg4nU68Xi9FRUXU1tbS2tpKS0sLjY2NtLS0UFBQsOSYZP6++vp6ysrKKCgooKysjA0bNlBQUICmaei6jtfrzR7T3C46wzBwuVx4vd5srlVbW1v299XV1eHxeLIj8UpLS7O/M5MzZLPZsq8nhMDpdFJTU0NtbW1238LCQsrKymhoaGDDhg1s2LCB0tLSZYf6r5T8e0Ku3GBIyJz2t8yPy+2kKKtZbt2VUmbrcDgcZmBggJdeeonPfOYzS0ZsKMpql39NDgaDdHd309/fz969e2lubs7bQ1EUrnNPyPXtb3+buro6Dh48qHKGFEVRFEVZ31QwpCiKoijKuqaCIUVRFEVR1jUVDCmKoiiKsq6pYEhRFGWdSSaTjI2NcenSJeLx+Aeex+aDSCaTTExMcOHChaveSyKRYGZmhoGBgSUr1t8sMzMzdHZ2EgwG39dMyaZpMjk5SVdXF7FY7LYev9spM3P16dOnmZ+fv2qG77VEBUOKoijrTCKRoLu7m8OHDxONRm/rzTyRSHDlyhXeeOMNotFoNiiRUhIIBDh9+jSnTp1asibXzdLd3c13v/tdpqamrprJ+npisRidnZ1873vfIxAIrOkg4IMwTZO5uTlefPFFxsbGrloGZC1RwZCiKMo643Q6efDBB/mN3/iNq+akWWlOp5P9+/fzm7/5mxQWFmbn8olEIoyNjfHOO++wZ88eGhsb83dVbjObzUZDQwO/8zu/Q3t7+3XXclvtbt8nQFEURbkthBDYbDYcDsey86+sJCFEdjbn3PficDhoaWnhc5/7HLW1tddde0u5fTRNw+l0rql1yJajJl1U7gjXmmBLTbqorGX51+T3M+milJKpqSm6u7uZm5vLzvq8efNmDMNgZGSEhYUFDh48CMD8/Dz9/f0MDw9Den2s1tbWJUtDXLlyhUAggGVZFBUVsWvXLmKxGL29vRQVFbFz504AfD4fFy5cwO12s3PnTqSUTE9P09/fz8zMTLY7Zc+ePRQUFDA2Nsbs7CwPP/wwAAsLCwwPDzM8PJztvmpoaKClpQWv14vP5+Odd97B4/FkXxtg27Zt1NfXZ1djzxUIBBgeHqa7uxsAr9fL6Ogovb29/Nqv/Rr19fVEIhEGBgYYGBjIbtPc3Extbe2S5SjC4TDHjh3j2LFj/It/8S/wer309vbS39+fXfy0vLyczZs3U1FRQSQSYXBwkKGhIaLRaHb27bq6uiX320QiwfT0ND09Pfh8PkzTxOl0snnzZurq6rAsi8HBQfr7+2lsbGRsbIxIJILL5aK2tpa77roLTdNYXFxkaGiIvr4+AIqLi7MzggcCAd5++20aGxsJBALouk5rayuXL1/Odvm5XC5qamq466670HUdn8/HyMgIg4OD2fXGWltbaWxsJBKJ8M4773DfffdRWVlJJBLJLpab6fb0er20tbVRV1dHKBSiu7ub+fl5KioqGBoawrIs6uvr2bBhA2VlZQDMzs7S29vL+Pg4mqZlX6O0tJRoNMrg4CDDw8OYpklNTU22rmZc656QK3fSRbUch3JHydTdzH/VchzKnSBTn290OY7MSuhnz55lYGCAxcVFIpEICwsLCCEwTZOLFy9y8eJF9u/fTzgcpru7mytXrmQX2FxYWCCZTGK324nH4xw7doyRkRFCoRDRaBRN06ivr2d6epqjR48Sj8fp6OhASsns7Cw///nPCYfDtLe3E41Geeutt+jr62NhYYFYLEY0GqW+vh7Lsujs7OT8+fM88MADRCIRurq66Orqyr6X+fl55ubmEELg9XpZXFzkxz/+MT6fj0QiwezsLENDQ0QiEUpLSykpKVlyPGKxGP39/Zw6dYrp6Wni8TiRSITZ2Vmi0Sg7d+7EZrPR39/P5cuXs9tkjkFm+YyMRCLByMgIIyMj3HPPPTidTsbGxhgdHWVxcZFgMMjw8HB2mYqpqSneeecdFhcXCYfDGIZBeXk5JSUl2XObTCaZm5vjzTffZHh4mEAgQCgUYnZ2lpmZGcrLyzFNk66uLt544w1cLhfz8/MsLi4yMzPDzMwMDQ0NWJbFwMAAly5dWvJ3ZBaw9fl8/PCHP8yucQZQWlrK4OAgCwsLBAIBZmdnmZ6ezgbbV65c4fz580xNTWWPXUlJCQUFBUxOTvLDH/4we30dGRnh1KlT2UDN7/czNzeH3++npqaGQCDA8ePH6ezsxDAMFhYWGB0dxefzYbfbqaurIxwOc+HCBXp7e5mbmyMWi7GwsICUMlu/Ojs7CQQChMNhXC4XZWVly17f8+8JudTaZModK7/iq2BIuRO832AoFosxPDzMkSNHaG5u5v7776e5uZmFhQWGhoYoKCggEAjg8/nYt28f4+PjnDx5EiEEBw8eZPv27YRCIcbHx4lGo8RiMV5++WUOHjzII488wv79+2lvb8fj8TA3N5dtGero6IB0K8zly5dxu91s2rSJqakpXnrpJRobG3n88cd56KGH2L17N2VlZcTjcYaGhpifn+eBBx5gfHycI0eOkEwmeeqpp3jsscdoamqit7eX6elpKioq0DSNs2fP4vV6ueeeezhw4AC6rnPu3DkqKyupr69fch+bm5vj/PnzDAwM8OlPf5oHH3yQ0tJSZmdnmZ+fZ+fOnYRCIc6cOUMymeTgwYPs3LmTaDTK+Pg4AC0tLdnXWy4YqqioYMOGDWzZsoWWlhY6Ozuz67DNzs4yPDzME088wYEDB2hvb6e0tHTJewwEAvT09PDKK69w77338thjj3H33XdTUFDAa6+9RmVlJU6nMxv4tbW18cQTT7B7926EEFy5coWCggLi8TidnZ2Ew2Eeeughdu3aRTweZ2JignA4THFxMefOnaO1tZV9+/axZ88eiouLaWpqYvPmzWzcuBEpJRcuXKC6uppkMsnp06dZWFjgqaee4tFHH2XPnj00NDQghGBubo5z586xd+9eNE3j/PnznDlzhscff5yHH36Yjo4O4vE4J06coK6uDl3XGRoaIhAI0N7ezrPPPktRURHDw8MsLi7S3t7O+Pg4b775JsXFxTzwwANs2bIFv9/P6Ogo4XCYWCyG3+/nIx/5CPfddx9tbW0UFxdnj2Wu/HtCrtxgSOUMKYqi3GHi8TjT09PMzMzws5/9jP/xP/4Hf/7nf87hw4cZHx8nFotlt5VSMj8/z8zMDCdOnOAv//Iv+cpXvsKLL75Ib28vU1NT+P1+tmzZwtatW68ZgF1LPB5nZGSEuro6tmzZQnV1df4mWZn34na7aW1tzbZMVFZWsmXLFkpKSpicnMxu39TURGNjIw6Hg02bNiGlJBgMEolEcl41FWjY7XY6Ojqor6/HbrfT2Ni4JCk7cwxOnTrF1772Nb785S/zwgsvcOXKFYLB4JLXW87AwACvvPIKf/d3f8ef/Mmf0N/fTyQSobi4mB07drBhw4Zsa0f++wMIhUIsLCywfft2tm3bRmlpKW63m6amJnbs2EEwGCQQCEB6Ffrdu3dnF3RtaGigtbWVmZkZpqammJmZ4cyZM/zVX/0VX/rSl/jRj37E5cuXl/wdmW4z0snqJ0+e5Pvf/z5/9Vd/xfPPP58NOiYnJ3E6nWzZsoUNGzZcNzdocXER0zTZuXNnNlguLi6mtbWVzZs3Mzk5mf3bS0pK2L59O4ZhZLs2Q6EQfr+f6elppqenOXz4MH/+53/O/5+994qS4zrzPH8Rkd5UlvcOKANUAagqeHojjriUWqIoSi2ytWe4rZluqdU9mjNv+zov22d3z3bvaLpH3SN1t2bFaco7SvQOIEjCVwHlvfdZJrPSm4jYh8oIZSUKJEgCYBV4f+dEmQyTNyJu3PuP7373+/7mb/6G1157jcnJSQoKCjh48CClpaWcPXuW2dnZLfX5o3JHiCHDdJb9v6ZpHypuxJ1EOp02zcqJRIJ0Om1eH03TzPH63OtGpuFSVdW8hgKBYPfS2NjIV77yFf7iL/6Cb3/72/zVX/0V/9v/9r9tsXKQaReqqqp49NFH+fa3v823vvUt/uqv/op/9+/+HR0dHaTTadxuN1ar9Zo3bJvNds1stFQqZbYfmqYRi8VwOBzY7fZrts1F13Uz27vR8RpZ2SVJ2tIuGZ8bTrxSxj8kF+Mzi8Vifr+madf0GxUVFfybf/NvtlyDf//v/z133323ud12jI6O0t3dTTwe54EHHuBb3/oWTU1NplO41+vl5MmT3HXXXayurnL69GmGh4ev+X5d17FYLFgsFiRJQpIk07qU215nb0PmfIzM8mVlZTz88MN8+9vf5i/+4i/4q7/6K/7sz/6M++67z9zfuJ6BQIDu7m56enqoqanhy1/+Mp///OdNS0sikUCWZZxO5/sKIbKuqcViMY9vnIOiKFvunSRJ5vFsNpt5jkbfXVdXxxe+8AXzHP7Df/gPfOMb36CtrY2SkhLuuusu7rrrLkZGRnj33XeZmprKKsmH5/1r5S7AqBzGRTT+N26CUYE+TUs6neby5cv89re/5fXXX2d8fJxgMEg6nd5yXYzrpGmaGSdDlmVzvRBDnwyzs7O89NJLLC8vf6jYJ580yWSSzs5OBgcHCQQCuatviLNnz/KrX/3qmqW7u5vp6WleeOEF1tfXP7VxXW4Ui8VCXl4ekUgEh8NBbW0t+/fvZ//+/ezduxePx7Nle6/Xa9a1yspKc1vDyddmszE9Pc3MzIzpZ2LgdDqxWq1Eo1FWVlaIRqOMjY2ZdcBisVBQUIDf72dmZuYD64bH4yEej7OwsGA6RgeDQebm5ohEIttapowO93rYbDZz6HB1dZVIJMLY2BiTk5PmNh6Ph3Q6jaZpVFRUbLkGhgXlegQCAUKhEC6Xi8bGRkpLS9F13ayniqJQWFhISUkJDoeDjY0N5ubmzHaYTIgBt9vN5OQkMzMzhMNhEokEKysrTE5O4nA4TCfudDrN4uIiyWSSaDTK4uIi8/PzlJSUUFBQgKqqpmPxvn37zPMoKSkxv88gHo+zurpKLBajqqqK2tpac7iNTN2Ix+PMzMywuLj4vv2C2+1GURQmJydNi000GmVpaYn5+Xny8/NNwZaN0e8Yf+fl5RGPx1EUherqavNeNDQ0kJ+fj81mo6ioiJKSEiwWC2tra0xNTTExMcErr7zygeXcjuvXnl1AdkXKJlstX2+bOxld1xkZGeH06dO89tprvP3225w/f56hoSHTIdHYzrg+2eIoezGsRILbx+LiIqdOnWJ1dXVLEDNd181geTsxwFkqlaKvr88U3x+Frq4uLl++zOzsLCsrK+ZidB5vvfUWwWDwhhq6VCrFyMgIMzMzO+5a3WpsNhtlZWUoisLIyAgXLlzg8uXLdHZ2srKyskVkS5JEcXExDoeDxcVFzp8/z+XLl837YLFYzBllV69eNY81MDBAKpXC6/VSUlJCNBrl3LlzXLx4kdnZWXNWlc1mo6amBrvdztjYGOfOnTOPv7GxcY21oLi4GK/Xy+rqKmfPnuXSpUucP38ev9+P1+vdMmPoRsnLy8Pj8RAMBjl//jwXLlygr6/PFFsARUVFuFwulpaWOH/+PJcuXeLy5ctMT09vO6yVjcvlMgXlyMgIfX195mwww+8o+5w9Hs81MXncbjcVFRVYLBZ6e3u5cOECFy9epLu7GzLWHq/XC5m6PTExYd6PsbEx0/m4oqICt9uN3+/fci8NB/NcrFYrXq8Xr9fL4uIig4ODTE9Pm/1EaWkpeXl55v0wjjc/P3/NS0l+fj7FxcUkEgnzOl+4cIHR0VFsNhvV1dWmoLseiqJQVlZmCvDsc1hYWDCFj/FZKpXC7XajaRozMzOcOXMGv9//ofutO8KBOrcDz0bXdVN1floWo1OanJwkEAgwMTFhTq9NJpPIsozNZjOvjWHCNDpbKestK5VKmebO3YBRTuP3bnSgnp+fp7+/n46Oji1vUrquE41GefHFF0kmk1RVVW37lvVJkUqlGBgYwOVyUVpauu0b/Adx8eJFKisrefzxx3nwwQc5evQoR48epbS0lMXFRQYGBjhx4gR5eXnva7I3rtWrr75KKBSipqYGm82Wu9muwajPN+pArSgKbrcbi8XC+Pg43d3dDA4OMjIyQmlpKVarlcXFRYLBIPfeey8ulwur1cry8jKXL19mcHCQwcFBHA4H5eXllJaW4na76enpMdetrq7S2tqKx+NBkiT8mdQWExMT1NfXo+s6paWltLS04Ha7cTqdTE9Pm8cYHh6msbERm83G2toa8XicY8eO4XQ6cTqdBAIBurq6GBwcZGpqir1793L06FHKysqIRqNMTk5SV1dnOuWm02mGh4epqam55tlwOp3Y7XZisRgXL15kYmICt9ttWsgMHxSHw8H6+jqXLl0yz9OSmfmVbU1Lp9P4/X4CgQAdHR0UFBSgaRrT09N0dnaaQqKqqgq328309DSvvPIKAwMD5hDQ/v37cTqd5r21WCxmmQYGBujv72d0dJRwOMxDDz1Ec3MzsiwzMzPD+Pg4BQUFdHd3MzQ0hCMTRHPv3r14vV6sVivBYJCLFy+a56EoCvn5+WiaxtTUFIcOHaKoqAiHw4HL5SISiXDlyhXm5+dJp9N4PB727t1LTU0NPp+PSCTC5cuXGRoaYnBwELfbTWlpKfF4nKmpKTo6OigvL8flcmGxWOjs7GR4eJjx8XGsVqtZPlVVWVhYQFEUWlpasNlspDPpYciERygoKMBqtTI3N2fWgcHBQfLz80mlUgwODvLGG2+YdbShoYHq6mri8Th+v5+WlhYKCwu3WJy268OyHah3dZyh7GGf3HFg43NN09630bwTCYVC/OIXv+Cdd94x307IvL34fD6Kioqoqqri/vvvp7a2FncmJkcymTTH/w0z63Y+AjuR7Lpr3H92aZyhS5cu8fOf/5w//dM/pb6+HqfTaa7TdZ1EIoGiKKbPwE4hEonwq1/9iqKiIg4cOEBdXV3uJh/I9773PTweD48++ugWR9t4PE5XVxe//OUv+Q//4T9c09lth3GtZFneNfU4l9w2+cPEGSLTRhpDPwY2m818y5+bm+Ov/uqvIDMdP51Ob3nbt1qt5suQqqqkMtOzyQxnGD4xxn7GvhaLBVVVURTFFKHG/tllyd5f0zTTaqBpGqlUaktZFEUx76Nxby1Z/jW6rhOPx7d8lo2W8Zc0rIRGv6BpmlkOY5vs7zWOlz0Mp2fcEdKZafdkXT9N05BlGV3XUTL+THrmRZMsP6ftyqhnhtayr7OUCZCpKApra2u89957nD9/nr/4i7/A5/OZ32Fsk12W3PNQMi+9yWTS9N/a7ryNcmXvk33tyKobxr1wOBzmuabT6S3WRznj92SxWMzv0jO+Yca9M87Z+Gy7+mLcf+MYZO6jcQ2MemP0Y2zTJ2STHWdoV4shPctPRsoIoqzTed+LcCcTiUT4xS9+walTp1hfX8fhcJgVVJIkc2y6traWwsJC9u7dy6FDhygvL98iKg0xtBvIrrvZ9/xOEkOappmWoaqqKtra2giFQvz2t7+loqKCSCSC3+9HURRKS0u57777KC8vJxaLMT4+zuXLl80ga5WVlbS3t1NXV4eiKCwuLtLX10dPTw9kOqkDBw5w6NCha2K2kLECjY6OcunSJVZXV3Fk4rDMzMzQ3NxMR0cHRUVFTExMmN8ryzLl5eUcPnyY2tpaLNtEFL5RMVRYWMjVq1dZWlric5/7HC6XC0mSGBkZYXp6mvLycqqqqnjrrbcoKCjg5MmT2Gw2pqamuHLlCgsLC6RSKSwWCx0dHebb6E4jt03+sGLoegwNDdHT04OmaXzta1/LXS3Yoaxm4hBduHCB73znOxQWFm77HAmu3ydkc0eIoXQ6zbvvvovf7ycWi6FlWYBu5CLcyaTTafr7+01fCeO6GGrcuC5utxuHw0FpaSl79uyhvLzcnKrq9XrRM8Nou4Hr3fM7TQxtbGzwgx/8gMbGRh566CHW1tb4+7//e5qbm01rSSwWY3R0lHvuuYfm5mYCgQDvvfceBQUF2DKOpKFQCF3XefLJJ3G73czOzjI2NkYwGMRut7O2toYsyzQ0NHD8+PEt5Utnhgh+97vfoes6hYWFpsPj+fPnOXz4MEeOHEHXdc6cOUNBQQF2u51kMsnGxgaqqvLkk0/i9XqveTa/973vsbKywp49e0yLpcvloqamho2NDVMM+Xw+3nzzTaampvh3/+7fkZeXhyzLdHZ2MjAwwJ49e2hsbOQnP/kJZWVlPPbYY2iaxvPPP4+mafh8Pux2O+FwmLW1NY4ePcq+ffuuG6vkkyK3Tf44YiidTrO+vs7ly5dZXl7G5XLR1NREe3t77qaCHYoQQzfO9fqEbO4IMRSPx/m7v/s7hoeH2djYMH1b9CxLkZ6ZEWWIgU8LFouFZDKJlDGvJpNJlCy/H8PEqGTMzhaLBavVitvtpqOjg3vvvZeGhgbTr2g31IfrVfxPixi66667uPvuu6murmZtbY1//dd/Zc+ePdTX17O8vMybb75pBpqLRCKMjIwwMTHBd77zHUpLS5mfn2dmZgZd13E6nczMzLCwsEBFRQVf/vKXt5QvHA4zMjLCr371Kz7zmc/Q0dGBy+ViZmaGZ599loMHD9Lc3Mzq6iqvvvoq999/P0VFRaZIGx4e5jvf+Q4VFRXXWB6/973vMTc3R1lZmTn84PF4aG5uJpVKfWQx9JnPfIaVlRWee+457r//fo4dO4bX62VlZYVf/vKXVFRUcPjwYfbu3bulPJ80uW3yxxFDqVQKv9/PqVOn0HWdxsZGWltbTadcwc4nFAoxNDTE2NgYjz32GB6P51PXv90o1+sTsskWQ7vjtX8bJEnC4/GY0xVLS0spKSmhsLCQoqIiioqKKC4uNv8vLi7+VC1utxsp40ydSCS2CERjLD97LFZVVWRZZnl5mZWVFWKxmCkms/SyYIdSXV1NUVERcsaPw3C8DgQCLC8vs7GxwZkzZ3j++ed54403mJ6eJj8/n2g0aobMHxkZ4YUXXuDXv/616U9iOIJmk0gkWF1dpaSkhPr6etPyU1ZWRkVFBXa7nWAwyNLSEuFwmHfffZff/e53vP7662bQtGg0usX/IJt9+/bxta99jW9+85t885vf5Otf/7oZ2fiDMF6GconFYszPz+PxeKipqaGwsBCr1UpRURGNjY2m1epOxmq1UllZyde//nX+1//1f+XkyZNCCO0yvF4vx44d46mnnjL9hQQ3h11rGdI0jcXFRSKRiNm5y7JsOm0Z/2c7kH1aCIfDvPXWW/T29hLPJMozxE6uSjZmL5SXl/Poo49SWVlpdm5kHN92A9d7C/i0WIb+5E/+hLa2NhwOB6FQiF/96lfmDKDl5WWmp6d55plntjhjS5KE3W5naGiIzs5OVFXloYceorCwkImJCa5cuYLdbuepp57KKt2mqb6rq4v+/n6++MUvmgH8QqEQ//qv/0plZSX5+fmsrKwwPj7OM888Yw55kfW9Rn3M5kZ9hq5nGTp37hx9fX20tLRssQzdfffdjIyMcOnSJR5//HFaWlogM2ngzTffZH19nZaWFjPR6E4ht03+OJYhgeDTxPX6hGzuCMuQLMuUlJRQU1NDfX09tbW1VFdXU19fv+V/I+T6p2mpq6vD4/GYVqBUKmUKw3Q6jcViwev10trayiOPPMLTTz/N17/+dfbv328GBZMzU+4Fu5uCggIKCgpYXV1lYmICTdNwu92k02mmp6fRMzNwEokENpuN8vJy7HY78/PzrK6u5h4OMsHhSkpKWFpaYmpqimAwSDwTJM+IL5P7vaqq4na7UVWVqamp6zZON4oxyyWVSrG+vo6maayvrzM/P4/f78/dHJfLRXV1NaFQiMnJSTPWjt/vZ2hoCJvNtuP8he5Url69yrPPPsvi4uKWGUcfhWAwyLlz5/jHf/xHvvvd7zI5OcnLL7/Myy+/TDQnOOSHIZVKsbCwwI9+9CMuXrxoxkz6qGiaRjgc5sc//jHnz5//WMcbGBjghz/8oZnc9PXXX+f3v//9xzrfXNKZqe7f+973GBkZ2dZCfKexq3s7q9WKIxOV0263Y7fbr/v/p2lxOp3ImZl1hqhRFAWXy0VVVRVHjhzhj/7oj/jsZz/LPffcQ1tbG3V1dduGW88eShPcPmKxGO+88w6///3v+fWvf82vf/1rXnnlFcLh8Ie6J8aw0N69e+nt7eXll1/m17/+NW+88Qbj4+OoqkpRURGeTPbpF154gd/+9rdbgtHlYrfbqaiooKmpiaGhIX7/+9/z4osvcvnyZVOkGE7PjY2N9Pf3m99rRES/3hDZjWK1WqmqqsLn8/HGG2/wm9/8hjNnzrC8vGxaNXO3Lysr48CBAywsLPDqq6/ym9/8hjfeeAOn08mePXso/oAow4Kbw/r6upm3a7shzQ/D7Ows09PTKIrCvn37sFgszM3NfeygpFomhcj4+DgrKysf6pnbDkmSsFgs1GfygeW2sx+GYDDI6OgokUgESZLMmZMf55i5aJmZq4ODgzcc5HS3s6vFkOD6GELI4XCQl5dHVVUVHR0dPPDAAzzyyCNmRuS6ujrcbve2vhbGZ7mfC24tBQUFHDhwAE3TWFtbM5MWGjO8jJljNpsNt9tNe3s7hYWFZmNosVioq6ujvLwcr9dLVVUV99xzDz6fj1AoxPLyMtFoFK/XiyzLlJWV0dTURGlpKX6/n7W1NSorK2ltbd12WNGSSa9wzz33UFhYSDgcJhgMYrVaOXLkCHV1deTl5VFRUcG9995Lfn4+4XCY5eVlIpHItrPIDPbu3UtdXR2OnCi1sixTVFREW1ubGdRtz549HDp0CFVVWc3k4TNCDhgB1wwURcHr9XLPPfdQVlZGPB5nbW2NVCpFe3u7GaxOsLswXCVaWlp47LHHdmxQVSkT0uTuu++moaHhmokDHxVbJvns4cOHt30JENw4u9ZnSHB9otEoP/vZz+js7MThcFBcXExraysHDhygoqLCDIImZQWm1DQNKROryRhjNZbtfDt2Gtl1N3sIZjf6DAk+PoZ/1Y9+9CPKysr4oz/6oy0RhHcLuW3yneAzdOrUKU6fPs0zzzxjivpsQqGQGWxPzgQTdLvd1wzbh0IhXn75ZZaWlmhra6OtrQ1d1/nVr34FwB//8R+Tl5dHKpUiGo2SykTXt1gsGPnUNE0jmUyaVio9E/TPYrGwuLjIj370I44cOcLJkyfNlw2n04kjk0RWVVVCoRBqJm2Rkgkyme0jR+Y+qqpKOBzG4XBgs9lIpVKEw2FsNpvpwmBYVa1Wq+nakEgkzPJZLBauXLnCa6+9xjPPPEN1dbVptclO1RGPx0kmk2b98Xg82DKRng0/WzIvNsaIQjbJZJKpqSn+7u/+jmeeeYaDBw+iKArhcHjLvna7fYsf4k7ien1CNtk+Q3dEOg7BVhKJBJFIxHwzf+ihh8zw5Eom/IDx23iQjKE0o+KQqQe7QQhlY5TV+J3ahek4BB8fXdcJhUJ0d3fj9Xppbm6+ptPdTRj1+UbTcexkJicnmZqaor29/Zq0Krqu8+Mf/5jf//73vPXWW1y6dInl5WVqa2txuVxbjvOTn/zETB8xNjbG0NAQdXV1ZvbyAwcOYLfbGR0d5Xe/+x2/+c1vuHDhgjmj0e12Ew6H6ezs5Cc/+Qlvvvkmb7/9Nn6/n7KyMnRd5+rVqySTSUZGRsyhWEmSyM/Px+PxsLKywg9/+ENee+01Tp8+TU9PD5FIhObm5i3tZiqVYn5+nmeffRZFUSgqKmJgYIB//Md/JBgM8s477/DCCy9w9epV8vPzzWSkq6urnDt3jmeffZa3336bkZER5ubmiMfjtLe3k0gkeOWVVxgZGaGtrQ2A8fFxXnvtNX73u9/x1ltvcebMGfLz8ykoKGBycpL/+T//J6+++ipnzpxheHgYSZKuiRavqirBYJALFy7Q3t5OaWkp4+PjPPvss1v2BXa8IM/tE7LJTschxNAdiKIo+Hw+qjJJ+/Ly8sw3DSljDUqn06Y/kSF6DIxtpPdR1DuV3IovxNCnD7/fzxtvvMHbb7+NzWajtbWVurq6aywLu4lPixiSMolaW1tbaW9vp6ysjCtXrphDvtmCtri4mHA4jN1u59ixYzzwwAP4fD6GhoYAaG5uJhgM8t5771FYWMg999zDwYMHSafTrKysIMsys7OzZod/7733cuLECVpbW83wD1evXsXhcNDS0sKxY8ewWCyMjo5SXFxsBjk1hmbb2tqw2+1MTExsydFFRlxsbGxw+fJlqqurqaysZHl5mYsXL1JWVkZ7ezv79+8nnU4zNDREY2MjZDrrzs5O7rvvPnOId2Njg2AwSHt7O7IsMzIygqZptLW1EQwGefnll9F1nWPHjnH//fdz5MgR9u7di8fjwe12U1dXR3t7O21tbUSjUdbW1igpKcGTyTFnlDdXDHm9Xurq6ujo6HjffXcauX1CNtliaPe2DoLroigKhYWFFGcyURsWH1VVt1iCDLPw+/FB6wWCnYbdbqe6upoDBw5wzz330NDQsKXDFexcjOGkUCjE/Pw8ExMTrK2tsb6+TiKR2LJtdXW1Gf28qqqKhoaGLX4z6XSaxcVFJicnmZiYYGxsjJGREfP/mZkZ1tfXcTqdHD16lIMHD9La2kpNTc2W4xQXF9PU1MSBAwdoa2sjFosRCATMYShVVQkEAkxPTzM9Pc36+jrr6+s37MBdWVlJc3MzBw4cYO/evczMzLCxscHa2hrhcBifz8fhw4fN8l1vqD+dTjM/P088Hqe6upqOjg5aW1tNcWfJ5AVLJpOsra0xMTHB3Nwc6+vrNxRjS8/kD1tbW2NycpL5+Xlz3zuhnxBi6A4k2/M/t5J+0P+G/1Du5wLBbiEvL4+jR4/y6KOPcvjwYTFLbJdgWGy6u7sZGRlhYWGBjY0N03fmw7ZJhqgyfHuCwSCBQACPx0NlZSVk2ruqqirKy8uv69RsBO61Wq1m1PR0Ok04HGZ+fp5Lly4xMTFhThAwLO83Wt7y8nLy8vJwuVwUFxeTTCZNVwdZls3YbxaLxRzu2g5VVVlZWSE/P9+M9ZVNJBIxc/PNzMzg9/tNgflB19fYt6uri+npaZaXl83wADcq+nY6QgzdgRgVW8mk2yAjepRMpmQyFdjwE8omVwxtZ1oUCASCm000GqWvr4+RkRFKS0v5whe+wJe//OVrhtJuFEmSUBSF6upqHnvsMf7sz/6Mb33rW3zrW9/iT/7kT9izZw96xm8y29n4ekiZ9EZGm7i+vk5/fz9jY2M0Nzfz5JNP8sgjj3xkR305k9k9+389kxE+lUqhqiqRSIRIJLJlPwPjXPRtMsyTmXk3ODiI3+/n5MmT/Mmf/AnHjh27IQfopaUlBgYGWF5e5sSJE/zJn/wJx48fv6F9dwtCDN2BGP5BZFl+0un0FvVvs9nMobPsB8eSiRNDVg6zD2okBAKB4OOiZwKA2mw2iouLsVqtzM/Ps7Kyck3HfiNYLBbKysoYGxtjdHSUQCCwZX1hYSF6xkm6v7+fWCy2Zf0HYbSdTqeT8vJy0uk0CwsLrK+v5276kXA4HMRiMXp6epidnSUQCNDV1UVXV1fuppBp92tra5menqa3t5e5ubkt640ZeoZlLBQKsbS0RCgU2rLddnycfXcLQgzd4RhvMUomPYmUM0PMeBvJdWI0nKstFouwDgkEgpvK6uoqP/3pT/ne977Hd7/7XX784x8zPDzMvn37KC0t5d133+XHP/4x3d3dODIR8T8shnPz4cOHmZqa4oc//CHf/e53+e53v8vVq1exWCy0tLTQ0NDA73//ezOK9csvv3xDwsjn89HQ0EBhYaEZGHVsbOymzVosKiqiubmZ8vJyfvnLX/LDH/6QoaGh6w7nWTO5506cOEEgEODHP/6xeb4jIyMUFBRQV1eHrut8//vf56WXXmJpaem6x8umtLTUnDX2gx/8gJdeeonFxcUb2ne3IGaTfUqQMrPDcjE+324du7AuGOU1fovZZII7AaM+3wmzyaTM1PTy8nKKi4spKiqitLSU8vJyKioqcLlcuFwuCgsLqaqqYu/evTQ0NFBQUHBN5ytn0jJVVFSYw1M2m43KykoqKipwOBx4PB48Hg95eXlmEu+amhoKCgrweDz4fD6cTiclJSUUFRVRWVlJaWmpGS+ovr7eDOIpZxIh19XVUVJSgtvtxuv14nK5KCkpobq6mr1791JfX4/X693ykinLsnm8/Px80weoqakJj8djui14vV6amprw+Xy43W58Pp95/D179lBfX091dTV79uzB7XbjdruprKw0/Z6MWWPZ51tXV0d+fr5ZXrvdTmVlpRmdvqqqCncmuXd2eb1eL42Njea18ng8OBwOKioqqKmpoaGhgerqalwu147tK3L7hGyyZ5OJoIuCO4LsuquLoIuCO4TcNvlOCLooENwOrtcnZHNHJGoVCAQCgUAguBkIMSQQCAQCgeBTjRBDAoFAIBAIPtUIMSQQCAQCgeBTjRBDAoFAILjpBAIB5ufn8fv9uas+MpFIhPn5eebn50mlUrmrbztGAtb5+fnrBkPcbWxsbDA/P8/y8vKWGHO6rhOLxejv72dlZWVHXP+biRBDAoFAILjpzMzM0N3dzejoaO6qj8zq6ird3d10d3ffUCygD8KIPh0MBlFVNXf1BxKPx+np6aG7u5vV1dXc1R8KXdc/VlluFvPz83R3dzM4OLilHKlUioWFBX71q18xOjp6U67/TkKIIYFAIBDcdFpaWnj44Yc5duxY7qqPTFVVFQ8//DAPP/wwXq83d/WHJhqN0t/fzw9+8IOPZMHyeDw89NBDPPzww1RVVeWu/lBEIhGGhob453/+ZxYXF3NX3zYaGxt5+OGHueuuu7akB1laWqKrq4uTJ0/S2Nh4U67/TkKIIYFAIBDcdCwWC3a7/ZpAiR8HRVGw2+3Y7fZt48Z8WJLJJBsbG0Sj0S0Jrm8USZLM8nyU/GnZpFIpgsEgkUjkI5XlZmHct9xI2sXFxdxzzz0cPXoUn893U67/TkIEXRTcEVwvwJYIuijYzeS2yTst6KKu6/j9fhYWFvD7/Wam9QcffJDV1VUikQhFRUVUVFSQSCSYmJhgbm6OaDSKzWYjLy8Pi8VCaWkpBQUFXL58maqqKioqKvB6vUQiEfr7+ykoKKCsrIxYLMbc3BwFBQVUVlaiKApLS0uMjIyYuccqKiqor6/H7XbT398PmeGsaDRKOp0mPz+fgwcPoqoqQ0NDXLhwgZmZGTo6Ojh48CC1tbUoikJvby+BQMDcZ8+ePdTU1GzpHw3Lks/no7y83DxHY100GjWjZB86dAiLxcLGxgaLi4ssLi4SDAbRdZ3a2loSiYRZlra2Ng4ePIjX6yUQCGCxWAiFQlvyRhrXyeFwsLq6ytTUFAUFBVRUVGCz2VhZWWFsbAy/34+u6+Tl5VFXV8eePXtQVZWRkRHm5+cJh8NYLBaKi4tpbW0lEAiwvr5u3jdd15mdnWVqasrMu+bz+aivr6eyshJN0+jv70dVVRKJBNFolGQyic/no7W1lYKCgo+UTuXjcr0+IZvsoIsiHYfgjsKou8ZvkY5DcCdg1Oedlo5D13XOnj3L1NQUa2trrK+vE4lE2LdvH8PDw0xOTuJwOCgrK2NycpIrV64wNTVFJBIhHA4zPT3NwsICTqcTl8vFb37zGxwOB8XFxXg8HgKBAG+99RZkEquurq7S1dWFLMuUlpYSDAYZHBxkYGCAUCjE+vo6a2trpsXm7bffZnx8nEAgwMbGBgsLC4yMjFBeXo4kSSwsLDA6OkokEsFqtVJQUIDFYmFhYYGuri6CwaApDiKRCNXV1VvyNW5sbPDWW2+haRr5+fkEAgHeffddxsbGiEajrK2tMTc3x/LyMtXV1TgcDkZGRujr62N1dZW1tTVCoRAej4dkMsno6CjhcBir1Up+fj6xWMy8ZuFwGFVVWV5eZnBwEJfLRWlpKQ6Hg7m5OS5duoQkSZSUlBCNRhkaGuLKlStsbGwQDodNQVRUVMTs7CyXLl1iZmaGUChELBbDZrNRUVHB5OQkw8PDWK1WKioqWFhYoKenh+HhYfNYi4uLpNNpPB4PFouFU6dOMTo6ap7P4uIiY2NjFBcX4/P5rrEy3U5y+4RsstNx3H65JhAIBII7Ak3T6OnpwW6385nPfIZ//+//Pd/85jcpKirasp2u61y8eJGNjQ2OHz/On//5n/OVr3wFp9P5kTLSG/T19TE6OkptbS1PP/00TzzxBLIsMzQ0xMrKCgDBYJDGxkaefPJJ/uiP/si0FlutVjo6OrjvvvsoLCzkqaee4qGHHiKVSnHhwgXy8vJ47LHHePLJJ6mpqaGvr4/5+XmSyWRuMbagqipra2scO3aMr33ta5w8eZJAIMDQ0BCxWMwUjsePH+dP//RP+da3vsXDDz9slqWoqIg//uM/5jOf+QylpaWk02kWFhY4fvw4n/vc5zh06FDuV17D6Ogo/f395Ofnm9/xta99jba2NqLRKGfOnCEYDHLXXXfx53/+5/zZn/0Zjz32GIWFhbmH4uLFi0xMTLB3717+/M//nG9/+9vs27ePubk5+vr6zO02Njaoq6vjiSee4Mtf/jLpdJrJyUnW1ta2HG+nIsSQQCAQCD4SiqLw1a9+lby8PHp7exkeHs7dBDJiaHJyksLCQurr61EUBZ/Px6FDhygpKcnd/IZZXFzk6tWrvPLKK/wf/8f/wX/5L/+Fzs5OwuEw4XAYgKamJurq6igoKKCwsJCmpiZSqRSJRCL3cJAJCdDX18fZs2f5u7/7O/7mb/6Gl19+mXA4zMbGxgfO9HI4HBw6dIjKykry8/MpKyujurranCV2zz33cPjwYQYGBujs7PzAKfnG8YzksTfC7Ows8Xicu+66C6fTuWWYKh6Pc/XqVZqamqivr/9An67p6Wm8Xi8tLS3mtu3t7djtdmZmZkxxaCSoLSwspKCggMbGRjRNu+513mkIMSQQCASCj4QkSZSXl3P48GH27dvHxsYGP/nJT/D7/aYTsDF9PZVKYbPZsNvt5r66rpu+HbIs43A4tgxnaJpGPB6/rkOxqqrU1dXx9NNP86d/+qd84xvf4C/+4i94/PHHTf9Ai8WCoihmVni32517mC1omobH4+GrX/0qzzzzDN/4xjf45je/yTPPPENTUxMOhyN3ly1IkoTVajW/02q14nQ6zXMtKCigpaWFY8eO4XK5eP311+nv77+uhUySJCwWC7IsI0mS6USefZ1UVSUejwOQTqdJpVLIsozH47nmeqZSKVKpFA6Hw7wX74eqqlit1i33xphlli0MFUUxz1mWZVwuF7Ism/d3pyPEkEAgEAg+MjabzXS2tdvtdHV1sba2ZnbuRgeen59PMBhkeXmZRCLB5OQkIyMjbGxsQKYz9fl8puN1KBRiZmaGpaWl6wqF/Px80yfl4MGD5rJnzx48Hk/u5mZZcgVCIpEwBZfL5aKkpARN09i7d695zH379uHz+T70rDFJkrZYZiwWCz6fj8rKSsrLy5mYmGB2dpZEIoGeiTV0PfFH5no7HA5zyG5tbY2ZmRlWV1dNR2GfzwfA8PAwyWRyizOx1WqlvLzcDKz4QZauoqIi03HduA8zMzOk02kKCwu3vR6519nv93PmzBnGx8d3bHwiIYYEAoFA8JHQdd101DWcf30+3xaLgGHZ2LdvH9FolO7ubq5cuUJnZyeLi4vmMIrdbqeuro61tTUGBga4evUqQ0NDpkjYjpqaGjweD319fVy5coUrV64wMDDA8vJy7qbbYrPZ8Hg8yLLMyMgIMzMzOJ1O6urqGBgYMMva19fHzMxM7u4fidnZWfOYfr/fnJpvtVrNsoyOjjI9PU00Gs3dHbfbTWlpKXNzc/T29nL16lUmJyfNiNCKolBXV0dhYSE9PT10dXWZ9ycQCOB2uzl8+DArKytcvXqVK1eu0NPTw9zc3Lb+UM3NzciyTF9fn3ms3t5enE4njY2N24qhXPx+P2fPnmVyctK0YO00xGwywR2FUXeN32I2meBOwKjPO202maqqPPfcc5w7d46xsTFSqRR33303jY2N5rT0oqIiysrKzNlgAwMD9Pf3k0wmKSkpMS1Le/bsIT8/n5mZGQYGBpidncVqtVJcXExlZSWlpaWkUinW1tYoLCykrKyM/Px8VFVlfHycs2fP0tvby9zcHHa7nfLycqampvB4PFRUVODz+UgmkywsLGC1WikrK6O4uBiLxcLS0hI9PT2k02kqKiooKytjZmaGK1eucPXqVSYmJkgkEuzfv39L/5hIJJiamqKwsNB0dvb7/Xg8Hmpra3E4HITDYdbW1rBardTU1HD+/HleeuklBgcHWVhY4MCBA7S2tpo+QYuLi/T29pJMJrFYLMTjcfN4TqcTq9WK3W5nYmLCnJVmt9spLi6mrKzMPC9FUZicnOTixYv09vYSDAbxeDxUV1dTXl6O3+9ncHCQzs5ORkdHkSSJsrIyc3ZZUVERpaWlpmVobGyMS5cu0dvbi6IotLW1ceDAAQCmpqZwOp2Ul5dTUFBgOn0rikJpaSlkRGBVVRVlZWUfONR4M8ntE7LJnk0m4gwJ7giy665hKkbEGRLscnLb5J0YZygajaKqqjk0YrVasVgspFIpNE3DYrFgsVhM36F0Om2eV1dXF4uLi9TX13PixAnTR8g4njG8lH2MdDpt+uKQ8ZFJJpPmcI8sy9hsNiwWC4lEAinLh8cYhjKOqSjKlu80yk5GeKqqiq7rpr+R0+nMnPkmxhCboihm+Qx/HavViizLqKpqDi9ZrVaSySTJZBJJksyyGdtml8Uon6qqW46n6zpqJqaPpmnXXKfrXRdjndVqRdd1EokE6XTaPIbVasVms6GqKqqqmvdS13VSqdSW4TtjnfFd8XgcKWMBtFgsW66zYTlKJBLmPrdDY1yvT8gmO86QEEOCO4LrVXwhhgS7mdw2eaeJoY+KqqpEIhF+9rOf4fP56OjooKmpKXczgeAjc70+IZtsMSR8hgQCgUBwS9F1nenpad5++22ef/55fve73/Hyyy+b/i3GUIpA8EkhxJBAIBAIbjmRSITl5WVmZ2eZn59ndXWVAwcO0NzcbM5+Egg+KYQYEggEAsEtRZIkWlpa+OpXv8pf/uVf8pd/+Zd8+9vf5sSJE5+4E7hAgBBDAoFAIBAIPu0IMSQQCAQCgeBTjRBDAoFAILil6JlUFJqmoWma+b9AsFMQYkggEAgEtxxDAAkhtDu43j263ue7HSGGBAKBQHDTyRY9RmBAJSuZ53ZxXwQ7g+x7lyt+7lQxK8SQQCAQCG46uZ3mdlahO7FTvROQMtGxPyiJ652EKYZEBRXsVgwfBIPcv3PXCwQ7GcOvxiDXgrJb6rLRoeb+n/uZYGdiWPNy71HuPdxt6Jl0JuScyxbLkPHhbnnYBAKD7R5OQwgJMSTYTWQ30Nn12rCqbFfXdyK7vdMUbN+ubvfZTif3pThb6xifydlvIAa78WQFn16Mt5fcCr6lomcSGQoEO53tRES2mJeu88YuEAj+gPEcGc9O9suEkRQ3e520sbGh22y2nMMIBLuHbLWvZ0ygRqbkaDTK1NQUr7/+Ol/96leprKzM2Vsg2FkYDbbxN1kvqJFIhNHRUSYnJzl8+DC1tbVb9hUIBH/AEECyLF/TT6RSKZ5//nlqamq49957kc6cOaMb1iFN05Bl2VRN4m1asBtIp9OQZf1RVRWLxYIkSUSjUWZmZnjjjTd44oknhBgS7HiM9thotA0hJMsykUiEkZERIYYEgg9AkiQ0TdvyckzWC4bdbufChQu0tLTw4IMPIr3xxhu64UwkxJBgN6KqqllvyYgj4+9IJMLU1BRvvPEGX/nKV6iqqsrZWyDYWeSa8rM/D4fDDA0NMTExwfHjx6mvr9+yr0Ag2MR4mUin01gsli1DYgBOp5PLly/T2trKQw89hDQyMqJnm2SNh9DYQSDYLRj1WNM080EIh8NMTk7y2muv8dRTTwkxJNgVSNv4OwBsbGwwNDTE+Pg4J06cYM+ePTl7CgQCtnGbyLayGn+/+eabNDQ0cP/99yMlk0ndarVuOUj2TgLBbsOwahpiaHx8nNdee42nn36a6urq3M0Fgh2FIea3a4NDodAWMSQsQwLB9ck26hi6xhBJqVSKX/ziF1RXV3PfffchG0Io+w1EWIUEu4nsOmv8bVR8Y/hMFrNvBLuI7PqcjSRJKIpi+sQJBILrY4gfY+aY8TxJkoTNZjM/k2V5a9DF3AdPINhN5HYg24kkgWCnk+3/lm3WFwgEN052m5/9UqxnBV3Mfkk2xVD2W4bxIO50shuI7BPMZnMbseykJVug5Ma50jSNVCq15bMPIvcN2ajg2YvoTAS7EaNBz67jxnMj6rRAcOMYz5CUGTEg8ywZbCuGdgtGJ3e9RuEP68Syk5bsqnaz650hfq73v0Cw23m/Nk8gEHwwuS8X5Kbj2M0Yam+7hkLXdRDLjlk2f229R1ombYaU8YkQCAQCgeB2cceIIbIsRdkmZEMIGSJJLDtgyXJm0zP3KZ1Oo6oqesaZTSAQCASC28Wu7nWMjjQbWZZRFMUcHlEUBUm2iGUHLWT58hj3UVGULc5sub5EAoFAIBDcKna1GMruUI1hFgM9y0Iklp25GPdJN6Y2Zokh4ecjEAgEgtvFrhZDBkaHKjrQ3UG2RcgY2jQ+zxZKAoFAIBB8FLKNJTeiDSQ9q+fJ7pR2E9nWhVQqde200112Pnc6siSZ+cTsdvuWe2X8/WH9hnIFlVGHo9EoExMTvPTSSyICtWDXkdsmG7nJxsfHRW4ygeBj8txzz1FVVbWZqHW3i6HsMmuaht/vJx6Pb+kQdaTNWd2CHYHFopBMJnA6nZSVlW2ZBWjcNyGGBIJr22QhhgSCm8cdKYZ0XScWi3Hp0iUWFxdJJpN/mKItycDuOac7nXQqQSqVoqqqimPHjlFcXHxN3csWNDeCEEOCO5Hc50KIIYHg5nHHiCEtI3EkNqNPhzbCvPjyqzg8+bh8ReiKDWQLkpZEEqahW4+mISEhyRK6JCFLEmlVQ2dzVp8sK6RSaaT4Gv6FOUpKSrjvvvvweJyb++ubjvCqqmK1Wj+UfhViSHAnktsmCzEkENw87hgxpOqbQkgCkskEC/NLvHPuAmXVe/AWVpDAii5bsOgJIYZuA5KmIUmbw5J6xu9H00HTN+uUrCikUypaYJbg2jKlpaUcO3YEqyUzJJYRQ7qmoVgsQgwJPvXktslCDAkEN49sMfThHDN2GBJAprGIx5PMzi/g9nhxOl3Iigz6ZscquE1IEkgyOqCqKpqmbU6XBzRVJZ1OATqh0AZer5fS0hIURTaDU6PryGYEaiFeBQKBQHB72N1iSPrDG1M0FmNqaga704NidaCz6SqkKAoiAvVtWti86MY90TYVDhjJWTUdRZYIBIO43W5KSoo3LUn65r00tt4c+xRiSCAQCAS3h90thtgclkmrGtFYgo1IFIvNgY6EqurISFgUabOnFdxydDYtQ5JsQVYsSJKCpmqgaygybBrr0qSSCex2Ky6XK2PY27TebYrbjBAyhZRAIBAIBLeWXS2GjCGySCTKejCEw5OH1eFClxW0TARqNZU0txPcWnRkNC1jEcpYiDR9U7DKsoSuqgTW1vB43LhcLjZnz2fNGtsc99y0IgkBKxAIBILbxO4WQ5KOrmsENzZYXQ/g8RUgW+0gKZs9q66jpVNkBnAEtxgdibSuo2p6ZuhLQgJkSUbWIRmPsbK8RElJCXl53k0RlBnq1HVtUwihQ+ZvgUAgEAhuB7tbDGUcdTc2QgSCG3jyfCAr6JIMkoycsTSIfvX2oEsSGhKqYR3KzIKRJNA0lXg8xkYwQFnZphgC2JRLWX5FpueQuGkCwUchHo+zuLhIb2+vuQwNDTE/P08qlco8ZwKDVCrF0tISS0tLRKPR3NXvSzqd/sj77mSSySSrq6vMzMwQj8dzV39obvbxbgW7WwzpOqlkikg0SiyRxOH0oEsKWuZZl+SMz1CmoxXLLV7I5IKRJXTJmBa8afVR1RRqOoks6eTn+3A4HcZNNIWPJOmZCWm7u1oKBJ8kKysrvPvuu/zDP/wD//Iv/8IPf/hDnnvuOd544w3W19dRVTV3l12Nruuk02mi0eiWZN03SiQS4b333uPdd99lcXExd/X7EolEOHv27EfaN5ePex43k0AgQFdXFy+//DJra2u5qz80wWCQK1eu8Morr7CyspK7+hpUVSUej5NKpXJX3TJ2ca+jo6WSJBNxUuk0smLB4XJhsVoyvio6mraZr0x4n9wedHQk2YJFsSJLFvNzLa2iqSoWRSEvz4PVYkHXdTRdRUdD07SM31DWnRJvrwLBR8blcnHw4EH+43/8j/zv//v/zkMPPUQwGOS9994jFovlbr6riUQi9PX18f3vf/+GOtqdSjQaZXBwkH/6p3/62MJqN5NOp1lYWOBXv/oVXV1duatvGTtaDOkZJ2jIBOPb0kFKSBY7U3OLbISjFBQWkVY1ZMWKtjnPDF22oKKgY6TjEMutXBRZAz2BqiXRJRVdlkin04BOKhYjvhGkde8enHY7siQhSzISMpLh44UMKJuL+ZlAIPiwSJKEzWYjPz+f4uJiampqKC8vJxAI3HGWoUQiQSAQIBgM7upzSyaTBAIBNjY2dvV5fFw0TSMYDBIMBkkkErmrbxk7OgK1IYAURTGznBtl03UdVdc5deY9VoNhisqqsLl8SBYHaVVDkmQURUFXVSRdFT4otwFN1oy58ej6puO0lkxgk3Q2VpbZWPVz/713UVziw2r9g+XoZpBdd3URgVpwh5DbJt9IBOrZ2Vl6e3uZm5vjK1/5Cm63m4GBAXp6enC73TzyyCO43W4WFxcZHx9nY2MDgIqKCmpqanA4HIyMjEDmLT0ajRKLxbDZbLS0tFBUVEQwGGRubg5FUQiFQlgsFsrLy/H5fAwMDLCxsUE6naagoIDa2lqqqqpYWVlhcXGR1dVVIpEIsixzzz334PF4WFpaYnx8nGAwCEB5eTk1NTW4XC6Gh4ch4wsVi8VIp9P4fD5aWlpQVZXh4WEuXrzI1NQUx48fp7W1laKiIqLRKENDQ+Z1KSsro7m5Ga9301/RIBAI8NZbb6HrOh0dHZSXl7O4uMjQ0JB5/a+3bzAY5K233kLTNDo6OtizZw/hcJiBgQECgYBZ1rq6OqqqqtA0jbm5OWZmZsxzLSoqoqioiPX1dS5cuMDU1BSHDx/mwIEDOBwO1tbWqKiooLy8HLvdztraGrOzs/h8PsrLy/H7/aysrCBJEqFQCIfDQX5+PslkksnJSbOs9fX11NXV4Xa7s85gc0gqHA4zPDxMIBAwjRChUIj19XW+8IUvUF5ezurqKiMjIwSDQXRdp7S0lJqaGsrKyrY93sjICOvr69cc7/Of/zw+n4/Z2VkmJibM/erq6igvLycYDHLmzBnGx8cpLy+nvb2dxsZG8vPzmZqaYmFhgXA4jKIo5OXl0dDQQGFhIel0mpWVFRYWFggGgySTScrKyjh69OiW8mWTHYFa+c//+T//59wNdooYMsju4Iy/NU0nmkgwOjFJIqWRV1CEYrWTVjenZW8KJ0BTRSqO24Sqq0iyjCTJmxPCNA1Z0tHVFLHwBpqa5EDrPmx26y2rY8Zxjd+pVIpAIMDo6CgHDx4kLy8vZw+BYOdj1GfDEXV9fZ2qqiry8/NzN2VjY4OFhQXm5uZwuVz4/X6mp6eJx+McPHiQkpIS1tfX6e/vp7e3l9XVVZaXl1lbW8NisSDLMm+//TZjY2Osr6+zvr7O7OwsU1NTyLJMQUEBy8vLnD17lqmpKQKBAMlkEl3XCQaDXLp0Cb/fj9/vZ3V1lUQiQWVlJZcvX2Z8fJzFxUWWl5dZX1+npaWFaDRqirXcslitVk6dOsXY2BgrKyusrKwwOzvL2NgYlZWVaJrG7OwsQ0NDhMNhdF3H5/PhdDoJBAJcvXrVFA+hUAiXy3VN5x2Px03RYAiO+fn5LftubGzgdrspLS3d0nYlEgkmJyfRdZ3y8nKsVitjY2NcvHiR5eVlU6hEo1GqqqpYXV2lu7ub/v5+VlZWWF9fN6146+vrW87D6/USCAS4ePEiLpeLkpISHA4Hs7OzXLhwAYCSkhJGR0e5fPkyc3NzBINB0uk0FouFYDDIwMAAa2trTE1NkUqlyMvLo7Cw0Cw/GYE9MjLC+fPn8fv9rK+vEwgECIVCKIrCvn37SKVSDA0NceXKFVZWVsx7S+aaKYqyRbCPjo5y/vx58z5nH6+5uRlJkpienqa/v98sXyKRwGq1kkwm6e7uNsWk3W6noKCAUCjE5cuXzbqwtrbG3NwcNpsNr9dLOBzm/PnzzM/Ps7CwwMrKClarlebm5i3nm01PTw95eXnU19fvTDGU7TyWLYCMcukZh90l/yoLi8tYbA7yC0tAsqAhIcuWzYjGmpoZwBFi6Hag6RnLkJ4RJIAsQTwSJhEN43HZ2N+8F3lzmt8tQYghwZ3IhxVDU1NTdHZ2Mjg4SFdXF5Ikcfz4cdrb27FYLKaQ2bNnD1/84hfZt28fo6OjrK+v4/V6mZubw+/3c+TIEf7Nv/k3HDp0iFgsRk9PD6WlpciyzOjoKEtLSzz++OOcOHGCUCjE+fPnKSoq4nOf+xzt7e2Ew2H6+vqorKzk1Vdfpby8nAcffJDPfOYz3HXXXbhcLs6fP8/4+Dj19fV86Utform5mYmJCVZWVvB6vczPz7O8vMyRI0f4zGc+Q3V1NRcuXMDtdlNbW0t1dTUOh4OVlRW+8Y1v0NbWRmFhIeXl5Rw9epT29naKi4sJBoPMz8/T3t6+5XrliqHy8nLKyso4cuQI7e3tlJSUsLGxwdzcHG1tbe8rhtbX13nvvffIz8/n0Ucf5ciRIySTSa5cuUJNTQ2dnZ0sLCzQ2NjI1772Ne655x5aWlrMe+l0OllZWeHf/tt/y+HDhwmHw4yPj1NZWUlFRYVpKZqZmSE/P5+Kigr8fj8TExMkk0m+9rWv0dbWRnV1NdXV1eY5eL1elpaWiMVi14iDqakp3nnnHVwuF0888QR33303VquV4eFh7HY7+/btY2xsjIGBAaqqqnj88cdpaWlhfn6emZkZqqqqyMvLM6/LzMwMZ86cwel08vjjj3Pvvfdis9kYHBzE4XDQ3NxMWVkZVVVVZvny8vJYXl4mmUxy11134fP5CIVC3HXXXXz+85/HarXy4osvEgwGOX78OF/60pdoa2szrWwul4tEIsHrr7/Ovffey4MPPsgDDzzAvn37tpxrLtliaEf6DBniJ/vv7Aq4+bfO9Ow8yBbcXh+SYiWlqigWC4oio6kqaiqFRTH8hQS3GkVW0FVQ1c1Ai1argoRGKBQENKqrqsS9EAhuA06nk4MHD/Kd73yHz372szgcDhYWFsz18/PzXLlyhZdffpm//uu/5rvf/S5Xr14lHA4TiUSQJInm5mZqampwu914PB6OHj1KPB4nEAiQSCRMJ+3i4mKsVivr6+v09fXx3nvv8d3vfpe//du/5fXXXyccDhMOh/nyl79MXl6eOdXfYHFxkatXr/LKK6+YZens7CQUChGJRABoamqitraWgoICCgsLaWpqIpVKkUwmzeNkE4lEGBsb48033+S73/0uzz77LFevXr2had3Z+/7X//pf+dGPfkRXV9cN7RsMBunr6+PcuXP8/d//PX/zN3/Dyy+/TCQSYWNjg4GBAQoKCjhw4ABWqzV3949Mfn4++/fvx+fzoSgKgUCAgYEBXnjhBf7P//P/5Oc//znDw8PbXi/Dknj33Xfj8/lwOBxUVVVx8ODBTJ5IWF5epru7mzfffJP/6//6v/gv/+W/cO7cOcLhMKFQyOyvAUKhEPPz89x1110UFBRgt9uprKykra3NPF4wGGRwcJCXXnqJ//v//r/52c9+xtDQ0Lbl0zSNSCTCyMgIra2tNDc3Y7FYcDgc3H333UQiEZaXl6muruZrX/saMzMzXL169UM7oe9YMZT7f+6iahpzC0ukNbDY7KRVjWTGWVfTVDRNhcxUbTG1/vYsEtKmYzSbs8FkJNA0YtEIVotMZWUZIPy3BIJbjSzL2Gw2CgoKOHbsGJWVlczMzDA7O0sqlUJVVerq6njiiSf42te+xlNPPcU3vvENHnvsMSoqKpAkCavVitVqNX01ZVlGVVXzb1mWsdvt5hCJqqp4PB4ef/xxvvrVr/LUU0/xzDPP8NRTT7F3717q6+vp6OigoaGBjY0Nfv7zn7OyskIymaSmpoYnnniCP/7jPzbL8vnPf57KykoAbDYbVqsVRVGwWCym745+nVmn09PTnDp1ivX1dR5++GE++9nPsnfv3utun83MzIy574MPPshnP/tZGhoabmhfTdNwOBx84QtfMK/Bv/23/5ann36ampoapMyQmNvtvqaf2w5FUbDb7Vs+U1X1Gsdi434b96q/v58LFy6g6zpPPvkkDz30EBUVFdueg6ZppNNpHA6HeS+z/XPJfGdZWRlf+tKXzHv0p3/6p3zpS1+ipqYGOSsciqZppFIpHA7HlrqTfbzBwUHOnTtHOp3m8ccf5+GHH6aysnLb8hn9SzKZxGq1YrPZTB3gdDrN8rtcLhoaGjh58iQlJSX09/dz5syZG56evyPF0PUwLlQ6nSYcChOJxpAUK4rFhg5Ikoyq6pkHFiyygqqmt73AgpuPrm9ah2RZQdc270MqlQR0HA47Xo/LzEMmEAhuD6WlpdTW1mKz2bh06RKxWAyfz4fP5yMvL4/Dhw+bS0NDA16vF13XWV9fJxQKkUqliMViDA8P4/V68Xq9WCzXToBwuVymlailpcU8ZmtrK/n5+abfS1VVlVmW1dVV3G43Pp8Pr9e7pSyNjY3XOCyTeTnO9lEh0zcYASU1TTN9fYqLizlw4IDpz/NBGPvOzMxQXFzMwYMHqaiouKF9yVjkSkpKsFgs7Nu3zzyXgwcPUlRURGlpKaFQiLm5uW1njBnnYbiK2Gw2HA4Hi4uLJJNJ1tfXmZubY21t7br9mqqqpqN6RUUF7e3tFBYWbnvPAOx2Oy6Xi/HxcWKxGIFAgKmpKaanp81yeL1eCgoKcLvdtLW1mefV3Ny8ZYiMTJndbvc1x5uamkLTNFRVZWlpiZWVFdNBuqio6JrypdNpNE0zhV5paSmLi4ssLS1l+pYU4+Pj2O128vLysFqtuN1uqqurzSHLwcFBYrHYda9VNjtWDF1PNeu6TiKRYHFpEYvdjt3pQrbYQFKw2uyoWia+kCRnhss2rUWCW8+my5CyOVymbQYQi4TDOB128n1eFEVCkkSqDYHgdqIoClVVVdTV1dHd3Y3f76e8vByHw0Fvby/9/f309/czOjpqBtgzxNDY2Bj9/f309fXR39/P3r17KSkp2WIJMDCETm9vr7n98PAwCwsL6LpuHmtqaopYLGZaR6qrq3G5XNeUxXDQ/SCsVitOpxOA8fFxU2gYQ0YTExNMTEywvr6eu+s16LqOzWbD5/MhyzLj4+NMTEwQCARyN92WwsJC6urqtlyz4eFh5ufnURSF/fv3mw7CxnWam5sjGo1isVjMazI5Ocnc3ByyLFNcXMzMzAxDQ0P09PQwPj7+vkN2uq7jdDrxeDykUikGBgaYnp4mHA7nbgpgznbr6+ujt7eXq1evMjAwwOrqqikiKisryc/P33KPRkZG8Pv9uYfD5/NRX19Pf8ZBP/t4WmaGuMPhwOPxoKoqQ0NDTE1NEQqFIGPlcrvdWCwWlpeXmZycRNM02traWFlZoaenx7y2vb29lJWVUVlZSTQaNcu2vLwMgMPhML/zg9iRDtRkDY0Z6Fl+Q8FgkIHBQWRnHt78Iqw2O7okIyuK6a+iyJuO05qmIknCb+i2kMlHhg66thntaWlxlqJ8L/U1FeR5XSBpmVhCt+Z+GHXE+C0cqAV3AkZ9vhEH6nA4zNraGvF4nH379uFwOHA4HOi6Tk9PDx6Ph+rqaiwWC0NDQ5w+fZrOzk6mp6dxOp0UFhYyNDSEJEnMzs7S1dXF8PAw+fn5PPjgg1RUVBAIBPD7/Xg8Hmpra7Hb7eYyMTHBhQsXuHjxIiMjIyQSCfbt28f/+B//g9OnT5tv6/fddx+NjY0UFxeTSqUYHh7m1KlTdHZ2MjU1hd1up6ysjImJCdxuN5WVlfh8PhKJhDmtv7y8nOLiYhRFYW5ujsuXL6OqKqWlpfh8Pjo7O7lw4QLJZBKXy4XD4aCjo2PL9Uomk+bxKisrKSoqQpIkurq6uHDhgukf5XA4aG9v39IvGfvKskxZWRllZWW4XC4mJia4ePEiFy5cYHh4mGg0SmtrK8XFxYQzU+/fe+89urq6SCaTFBYWUlJSgtVqZW5ujs7OTuLxOOXl5eaMsa6uLpaWlrBarRQXF5vft7a2RigUMkWNMQsvGo3S2dnJe++9h8PhwGKxUFRUdI0DtcPhIC8vj8HBQTo7O5mdncVms1FdXY0kSTQ1NVFSUgLAyMgIZ86c4fLly0xMTCDLMg0NDVuOZ7fb8fl8DA0N0dXVxfT0NFar1Txec3MzhYWFxONxOjs7OXv2rDkMWlBQQEtLCx6Ph+XlZfr6+picnKSsrIyWlhZWV1fp7e3l3LlzDAwM4HK5uPvuu6mvr2d8fJx/+Zd/obOzk4mJCQoLCzly5Ij5vduR7UC9I+MMZQsfPWP2NMSRlonT8Nrrb1DacAhvfhEoFlRN2gy4qOlYZAm0NGhprIqCqov5ZLcHJWNW1ZFlCUXW6bz4HocP7ePwgWbsVjLpUaw33SiZXXez64+IMyTYzeS2yeEbiDOkqirJZJJ0Oo3b7TatOKlUinA4bHaMhu/JZmDUTQuSw+EgEAjw/PPP4/V6aWtro6KiAgCLxYLL5UJRFNN5WZZl0zdEzwzxxGIxVFVF1zczANhsNlwuF8FMUERJkrBYLNhsNux2O3rGHyS3LHa7HZvNRjQaRc74J1ksFjRNMy0jNpsNi8VixkNKp9Nmx6ppGolEAk3TzGE1SZKuGXrLPZ4kSWZ5Puy+iqKQTqfNeEjGNbBarXg8HrNMiUTCHCYzRKTVakVVVSKRiHkehr9QJBIxh4wM/xvDfyaVSpFKpVAUxbSQpdNpEomE6R9mtVrRdR2r1YrL5co6g806Zlw/4/4oimLeU5fLhSRJpFIp4vG4eY+Me298540ez9g+u3zGEJlhHdN1nWg0atYxp9OJoijE43GSyWSmn9nc3ul0YrVaSaVSW6xLVqvVvK7XIzvO0I4UQ6puxDTWQdM2nVFkCUmWiSfSTE7NcPrMO9QfOIHD5QFJRtM3fYYg0xHqm/vJ0qYQEmLo1pPWJCyyjCKpaKk4qXiYmYlhjnYcYv++RiR9c7ZfxsX6piLEkOBOJLdNvhEx9HFZXFzk+eefJz8/n7vuuova2trcTQSCO4JsMXTze6WbwFbhspn1XNd1dB3CkQjrGyGcHh+K1W6mbZAlCQl9c/BF1zeHYSR5My3HNqkjxHILFklClzalp6SnCQfXKC0qxOf1YJFlZNly0y1CAoFAIBB8XHZkzyRvup0AEpIsgSyjqZvT69YDQZb9q/gKCkzzr2BnIMuyGdZA13UC6+uUl5WSlzEti/slEOx8DH8Rw8laIPg0sCN7JwlA09G1jIUnYy7WdZ3gRojV9QB5vk0xZHwulk9+kWWQdB1dU0klE6yvrVCQ78Pp3HTeNO+t4H1Jp9NEIpEti+GD8Elj+A0YY/YflXQ6TTKZNP0mstE0jWQySTQaNc/dmDb9fugZ35N4PG7WScPH4Hr76hnfhBs5/qeFwsJCPv/5z/PAAw9QWlqau1oguCPZkbPJdB0kjACLmEMw8eRmoMWV9SAlZZXoslV0rzsITdNRFBlJU4lHNggF1zh0oAWP28WmUzXo+qYz/K26b0bdNX7vxtlkfX19/MM//ANnzpwxl9HRUZxOJ8XFxZ+ohe2tt97i9OnTVFZW4nK5PlJZkskkvb299Pb2omkaxcXFW9bPz89z9uxZfvOb3/DWW28xNDREOpP08/0sFbFYjLfeeov33nuPhoYGEokEv/jFL1hYWKC6uhqbzZa7C7FYjP/23/4bmqaRn5//vsf/JDHqc/IGZpMJBIIbYxek49hcNudob76tybLM6vo6kVgCp8uNJCtIt6hDFXw0dE1DBlKpBLFYlL176nE6HSiKjKz8wcInvNnfn0QiQSwW4+TJk3zxi1/kK1/5Co888gg1NTUomXD270csFuPUqVP09vbecHyUGyUajZrJID8qqVSK7u5uFEW5ZnZOIBCgu7ubiYkJTp48yRNPPMGxY8dQFGVLOont0DTNLJ+eiWVy33330dHRcU0UXwNN01hfXycajX5sa9enlVgsxmuvvcapU6eIxWK5q3c1v/71rzl37hwbGxu5q24axvP62muvEY1Gc1e/L7FYjNOnT/Pqq69+6H1vN1omrcbzzz/PhQsXromVtLy8zOXLl3nnnXdI3WDU6JvJzhRDxmIIoszPpWU/oWgMlycPXbaIPnWHIUugaSrRSIR4LMqe+nocdhuSbMSMyji4Cw37gVitVpqammhvb+fIkSPs37+fwsLCG7LaJpNJ+vv7WVhY2HGdk2Gp8/v9FBYWXpNBe2Njg7W1NRRF4ejRoxw5coRDhw5RV1d3jXD6IKxWK42NjWZMHcGtIZVKMTExweTk5McSyR8VI/bM4uLiTe9EBwcHmZubuyb9xc0knU4zNTXF+Pi4OR3/RpFlmby8PDNI5E7GmGKfn5+/JeQDGVE3OTnJ1NQUTqfzhtq5m83OvHpmXdicY68DyWSaldV14okUTrfXnEUm2DnIskw6lSIWjaKmNwOfWSxW0PTNUAfomw7xgo+EruvEYjEmJiaYmppiZmaGgYEBBgYGWF5eJpFIEIlEmJycxO/3s7CwwPT0NPPz84RCIYaGhlhYWDBD44fDYSYnJxkaGmJgYICRkREWFhZMC0ksFmNhYcH8jsnJyWvekBcXFxkeHmZgYIDBwUFmZmaueePLJhqNMjMzg8fjobCw8JoYJUbcELvdbsYpMYIEVlVVoaoq09PT15R5O9+jeDzO1NSUGY1W13WCwSATExMMDAyYkYGzO/BYLMbY2BiDg4MMDAwwNjbGyspK1lEFO42FhQUuXLhg5l37NGG32zl8+DAnT57csUO8BpIk4XA4eOCBBzhw4MCWYet0Ok06naawsJC2trZP5OVlR/oMAZCZoo0uoeuwvhFmdHwKFZn84jJQLBkHa8FOQZZlkvEo8UgYu1WhdX8TigSSlga0zThQEhkNfmvq2J3gMzQ/P09fXx8tLS24XC70TOBRTdNYXFzkJz/5CUNDQ0xPT/PKK69w/vx5FEWhsLCQlZUVfvvb37K4uGiKoXA4jKIo/NM//RPRaJTu7m5GR0cpKCjgxRdf5J133uH8+fMMDAwQCARoampCURSmp6c5c+YMv/vd7+js7DSPabPZOHDgAHl5ebz66qu89tprnDt3jitXrrCwsGBGCt6uHfH7/XR1ddHY2Ehtbe01Ysjr9bK2tsbo6CgLCwuUl5djy0pAGYvF+MUvfsHp06c5f/48/f39rK+v09DQgCRJjI2NEQwGaW9vZ21tjV/+8pdEo1H27dtHIpGgq6uLl156ibfffpvBwUFWV1eZn5+nqamJ6upqVldX+dnPfsa7775rRlBOpVI0NjZ+om/eN9tnyHBSzw58Z3yHqqrEMvmcUpngisZ6Y8kmkUjQ29uLoii0trZit9tJJBIkk0mSmeCPWlbwwly0TGLPeDz+ocuSTqeZnJxkZGSEiooK8vPzzeCFhjUnkUiYz5BRpuzvMe6rmglWmcgEf9Q0jffee4/i4mLq6upwuVxmGY1y6Lp+zdC14bhP5r5Jmdhnqqqaoj27LiWTSQYGBkin0xw6dAi73W6WM/v6Gc9ANsY5qZnAhVomCGQ6nTavQTqdNstglD2dTptlSGcCNOqZVFfGeuPcjO9IZSYZZFvJ0un0lvtG1rmlM5Mksu+ZnpnkkH3djP2MtBrGy9h25TOOp2UCMX/cZzLbZ2hHiiFN21T3EqBrOik1zepqgMWVVRSbA19BEWn1VnWngo+KruskE3Essk5xkY/66jJkORMAEx1JljeDaEqKMQZ60zHqrvF7t4qhc+fOMTw8zPnz53nnnXeYm5ujrKwMVVXp6+tDURQ6Ojr43Oc+h8vlYmxsDLfbzaFDh6ivr2dqaopjx47xyCOPcPDgQUKhEFevXqWiooK7776b+++/n7KyMg4cOMDdd9/N3XffTUFBAT09PZSWlhKPx7l48SLLy8t8+ctf5rHHHiMvL4+VlRU0TTPFUH19PceOHeOee+6htbWVzs5OvF4v+fn51widdGY44O233+azn/0shYWF13QkAHl5eXg8Hqamprhw4QKRSASPx2MmY2xubuauu+7i7rvvpri4mK6uLsrKynA4HExPTxMMBuno6CCRSDAwMEBhYaF5TZ5//nkOHTrEH/3RH3HkyBFSqRSTk5M0NDRQXV1NaWkphw4d4p577uHuu+9G0zSmp6cpKSnB6/VuW97bgVGfkzdJDM3OzvLWW2/xs5/9jHfeeYfx8XEsFguyLDM0NMS//Mu/EA6Heeutt3j55Zfp7+83k7vmvrXniiGr1crPf/5zXnzxRd566y0uX77M0tISNTU121ov5ubmOHXqFD/96U955513GBsbQ8lELB4dHeUHP/gBoVCI06dP89JLL9Hb22smmX333Xc5deoUc3NzjI6OMjo6iq7rjI6O8tvf/haAX/3qV8RiMRYXF/ntb3/Lq6++ak5KkGWZqqoqAAYGBnjxxRf53e9+x8WLF1lcXGR8fJyamhrq6uqIRqP86Ec/4vXXX+f06dP09PQQDodNIW6wurrKs88+i6ZpeDweU0R1d3czPDyM1WrF5/OZ228nhn7961/zwgsv8Oabb3LhwgUWFxeprKzE7Xab+5F5uXjppZcYGRmhubmZxcVFfvzjH9PZ2Ul3dzcvvfQSnZ2dFBQUsLGxwbvvvssvf/lL+vv7KSoqQlVVLl26xM9+9jNisRgvvPACr732Gt3d3WxsbLBnzx7W1tZ45ZVXOHPmDMFgkJ/+9Ke43W6zjXjuuec4c+YMIyMj6LqO1+slkUhw7tw5nn/+eV577TXGxsbMSOE///nPSSQS1NXVkUwmGRkZ4YUXXuDll1/m1KlTXL582bxGiUSCixcv8pOf/IRoNMrLL7/Mq6++yvj4OHl5eeTn538sQbTjxdAfPKh1dDYV/eUrV0mq4PIVojg9pHTlD/4nxvZiuSWLLm0GrtTZ/Ntw6pJkzKFMSZZwKrC0MINMmpZ9jXg9TiRJR9O1zIRAGXT5D8e+BdwpYmhwcJD777+fI0eOcPDgQZqbmykuLiYWi9Hb20tlZSVHjx6lrKwMi8VCf38/eXl57NmzB4vFQldXF9XV1dTX1+P1elldXeXq1ascO3aM/fv3k5+fj6qqTExMMDIyYiaNDAQC7N27l0QiQSgUorCwkBMnTpCfn4/X62VhYYGNjQ1TDM3PzzM6OkpfXx9Xr15lbm6OqqoqysvL8Xg8W85rZWWF2dlZFEXh8OHDOByObdsaq9VKXl4eZWVl5OXlsbi4SDQaxe1243A4tpS5t7eX9fV19u7di8/nY3Z2dlsxVFNTYw4NdnR0sHfvXvLy8nA6nXR2dlJfX091dTWapjE2Nsbw8DBXr15leHiYdDpNfX29mQPrk+BmiSFd11lbW6Orq4tYLEZbWxttbW3ous7GxoZpObhw4QKlpaXs37+fqqoqYrEY4+Pj7Nu375p0DrliyG6343a7qa+vp7m52RTZ5eXleL3eLcMjRr0Mh8O0t7fT3t6OnhnOTGRSVpw7d84sS3V1NfF4nJGREfbt20dRURHpTCiKjo4Ojhw5QnFxMXNzc4yMjFBdXc3+/ftpbGykpKSEyspKmpubaWpqYm1tjUgkQn5+PrGME7gx7LRv3z40TWNmZsZMcmtkbm9sbKSpqQlZlpmamqKiosJMU0KmzVlZWSEYDFJQUEBhYSEbGxu88cYblJaWXiNqthNDbreburo6mpqaKC0tpaenh5KSEvLy8rZcv2AwSG9vL6lUivb2dgKBABcvXsRut9PS0kJzczN+v5+JiQnS6TQVFRVUVlYyNjZmprHw+/309fWZL0eNjY1IksTU1JQpmIaGhvD7/dTW1tLe3k5+fr6Z/Na4b4qiEAqFWF9fJxKJMDg4yIEDB+jo6KC5uZny8nKSySSXLl2iuLiY6upqZmdnefHFF8nPz+fgwYNmXjJDwFksFubm5syXtAMHDpj53RYWFkzx/VHZ8bPJ/tDhbqbSSKZSrK2tIykyFpsDVQck5Q8dtFhu6aLpoLG5bH72h3uj8wd/oHQqTjoZw6JI5OV5/7BeMpSTvPl7mw5QsBXDAtLR0cHRo0dpamra4ljodrtNp0nDsTrbVH09vF4vTqeTWCzG1NQUV65cYWNjA7fbTWFhITabDS2TP8maSZxo5CbyeDzmm72qqszPz5uOq3a7ndLSUtMaZJi6s1lYWGB1dZWWlhbsdvu2QohMXqq8vDwaGho4fPgw5eXlrK6u0tPTw/T0NFevXiUQCOByuSgqKjLLrL+P46lh6s/Pzzc7FKvVuuXNcmNjg7GxMbq7u0kkElssIR90/N2Crutm5zg7O8v6+jp+v5+lpSUmJibMLOSSJFFRUcGBAwc4fPgwNTU1jI2NEQqFPrCOkfFlkWWZaDTKysoKq6urrK2tbRli0XWd1dVVsyxra2v4/X6Wl5eZmprakhHdKMuRI0eoq6tjbGyMjY0NSktLqampwev1smfPHlpaWigoKIDMM1RZWcmhQ4eoqqrC7XZjt9vRNI1AIMDa2hqrq6usrq6yuLhIIpGgvr6eEydOcOTIEVpbW7dYN+VMjiwyaVGMfdfW1khn+Z05HA7a2trMc4lEIuakgeLi4huaCGAMDcdiMfM7jOS7N0JRUREtLS10dHRQX19PMBhElmVzUkZZWRnhcNicgWa1WqmpqaGtrY3jx4+zf/9+7HY7s7Oz5nc6nU5qamo4fPgwiqIwPz/P9PQ0a2trrKyssLS0ZN43l8uF0+nE4/FQU1NDY2MjBQUFW575eDzO4uKi+QJ27Ngxjh07Rnt7O7Is4/f7TR9Fi8VCdXU1hw4d4siRI5SWljI5OXlTZ4HuTDGkaZsGB0kirWqsBzbQJRmLdfMB0zQdSdLFMNltwugENivyHzoE3fBlyawPbWxgs1rx5XkzCVk3kSQpEwbh1lmEPq1ImaSX25mK9Uzgwe0Ih8OMjY0xNzdHbW0tDz74IMeOHTOnoCuZZJwbGxvEMkEPl5eXCQaDkDWDaGZmhry8PO69914efvhhvF7vtmVJJpMsLy+zsbFBfX39NUMtBtFolLW1NbPxzs/Pp7KyEl3XGR8fN8tcXV3Ngw8+yIkTJ8zkmu+HlJnJEgqFiEQiJBIJwuEws7OzZue+vr7OxMQEKysrHDhwgEceeeRjv3nuRMLhsGlNmZqaYmhoiFgshtfrNa15kiSZIsPj8VBUVEQikSAej7+vGEqn06yvr9Pd3U1PTw/Dw8PMzMyY63I7rlAoZJZlenqawcFB0wqYbVmsrq7G6/XidrspLi4mHo8T+4BApDabjZqaGtMZf2pqisuXLzM4OMjw8DDBYNAU/sFgkLKyMsrLy3G73dhsNurq6sznIZlMsri4yMWLF+nr62NoaIilpSX0jB9O9nNms9mora1F13UCgQDz8/MsLCzg8/koLCzcdqjQQFVVAoEAvb295vWbmppC0zTSGT+gGyEvM8PMYrFQVlZGQUEBJSUlFBUVYbfbKSsrQ5Zl83hWq5U9e/aYkxeKioooLS016wqAy+WioqICWZaJRCIkk0lisRgzMzMMDg4SDofNbRoaGmhpaSGVSjEzM8PMzAwbGxtbrlMqk9S3pKSEqqoq02pYXFxMfX09iUyIETJiqL6+HqfTaQ6PGXXgRq/JB3Ftq7UTyFgaQCIWTzI9u4BksWJzuJAVG7pqRKfevqEX3DqMumwIo+wONxwM4nE5KS0uwm61GPIHdF3cqQ+JnnHCjEajRKPRD2z4c7FarcRiMSKRCKltZtgYQtZoXOLxOHNzcwQCAXRdx+PxEAqFGBkZMWdknT9/nomJCfMYqqpit9vxeDxIksTMzAwrKyvbfp/f7ycSieByuSgtLd1WMJGxHl25coXu7m7z3I0p0z6fD1VVcTgc15Q5t5PNxZrJGp4tqMbHxzl9+rTZ4Br12OVykZeXRyAQYGFhwcyEfacgSRJVVVX8L//L/8J//I//kf/0n/4T/+k//Sf+7M/+jGPHjuVujqIoNywIDQf9gYEBysrKePLJJ/n6179OQUHBtkOMsixTWVnJo48+uqUsf/7nf87JkydzN0fOZCO/HtcT/3Nzc/T29rKyssL9999vHt8YrpIkCTXj4GwIj3A4bHa0a2tr9PT0MDQ0xP79+/n617/O5z//efLy8q4R4pIkYbPZzKG2gYEBZmZmOHLkyDVDx7nE43F6e3vp7++noKCAL33pSzzzzDOUlJRc9wXi/ZAk6X2tsNmoGYdwPSuSuzOTLT4XSZIoKyvj4Ycf3nLfvvnNb/LAAw9gt9s5cuQI99xzD7FYjLfffpuBgYEtwkXKOEBbrVazPTJ+pzNO39uVW1GUj3QtPojtW6RPGEVRMhnoJWLxONNzC9hdHmwOp9mIqmnV7JgFtx6zYmZd9GxhpOs6kUgIt9NBYb4PWQKZP3RQuq6jajdHwX8aCIVC/PjHP+Zv//Zv+eu//mv++3//75w9e3ZboZGLw+Hg5MmTjI6O8tOf/pTXXnstdxPy8vJoaWmhuLiYX/7yl/zP//k/GRwcNIfiKioqaGtrw+Fw8D/+x//g7//+71ldXTXfaq1WK/v376eiooKLFy/yj//4j5w7dw6LxbJt4zk5OWma6d8Pn8+HzWajv7+fv/7rv+av//qv6ezspKKigvvvv5/W1lZKS0v57W9/y7PPPktfX585jPd+OJ1OGhsbOXHiBN3d3Xz/+983fRWMNqW4uJimpiYcDgf/+I//yC9/+UtmZmbe901+tyFJEkVFRSwtLTE0NHTTwwZomdlMdrvd7MDn5+fx+/3bivnCwkKWl5cZHBzcMiz2YTG+93piyLDeeL1eqqqqCAQCLC4uEgqFUBQFn8/H2NgYo6OjLC8vs7CwwAsvvEAgE7RUVVXS6TROp5OysjLS6TSLi4usr69f9ztra2sJhUJ0dnYyMTFBS0vLlmG37TBeggwLid1uN6/fjTz7H5VkMsn4+DixWIxgMMj4+DgjIyNUVlZuW/8LCgoIBAL09/eztLT0vi8jhYWF+Hw+/H7/lu3sdjt5eXmMjY0xMDDA6uoqsVjMHAo3XtRuFzvTgVrfvGBpHVbXN+gdGKG4rBqr3QWSBSRpM9rxjpRydx561jRHTTe9hgAdOaPuU6kUG8tzVJWXUlVZjtUqg65vugshATKSlJkaegurl1F3jd+pXehA7XQ62bNnj+lQ2NLSwr59+6itraWwsJDKykrTYViWZSwWC6WlpezZs8c0jefl5VFZWUljYyN79+6lvLyc+vp69u7di8vlwpKJ51NSUkJtbS1NTU3s37+fAwcOUFdXZ87WMUzera2ttLS00NTUxL59+6ioqMDj8VBQUEB1dTUNDQ00NzebDpgFBQXmG186neb06dOmL8X7dQgWiwWv10tFRQV79+6lpaWF1tZW9u7dS3FxsTlMYpR53759HDhwgPr6evLz8yksLGTPnj2UlpbicDgoLy9nz5495GVmohnO1Pv27TMdTPft20dTUxOFhYXk5eVRXl5OXV0dzc3N7N+/n5aWFqqrq29IdN0qjO/9uA7UUsZqEcvMruru7ubq1atcvnyZdDqNxWIhGAzS19fHyZMnTf+blZUVOjs7zc+yBW+uA7XL5TLjOQ0PD7O4uMja2hpNTU2ms7FRFrvdbvqOXL16le7ubi5fvkwymcRqtbKxsUF3dzcnT56kMBOgc3V1lQsXLnDy5EmKiorQNI2NjQ0ztIMsy4RCIZaXlzl58qTpv2QM1V65coXZ2VkWFhZwOBw0NDRQV1fH+vo6s7Oz9Pb2Mj4+jsPhYGFhwZxN5nQ6WV9fZ2RkhImJCRYWFkgmk6aTc7ZjM5nneHx8HL/fT319PUePHsVisVxTh3IdqF0uFxsbG2YMsKWlJfx+Pw0NDVRWVm6xLhnWW1mWaW9vZ2Njw3RW37NnD3LG92ZmZobKykpqampIJpNMTk6iaRper5doNMrY2Bgul4vu7m46OztZX1+nubmZ9vZ2tMykAlVVaWtrw263Y7PZSCaT+P1+c0j08uXLRCIRNE1jcnKSl156iYsXL+L3+8nLyzOHHfv6+qioqGDfvn3YbDYSiQSTk5P09fXR09PD6Oio6ahtTNqYmprixIkTeDweNE1jfn6e4eFhTp48icfj2fYF7EbY+bPJ0NGRiCVSLPrXmZpdorSiGmQrmi4hywroRt4ywS0ny1ypZwSOgZyxFoXDYaREmLrqCkpLijbzkKFlJo5tWvkgc89u4X27U8RQZWXllqW0tBSv12u+cefl5SHLm+JSURSKi4u3fOZwOCgpKaG8vNyc5l5RUYHTuWldlSQJa2b6allZGWVlZZSUlFBaWmrOjLHb7ab4qqyspKCggOLiYoqLi7HZbCiKgsfjMb+nuLiYsrIyvF6vOZQhZayGsViMyspKqqurTWG9HYqimI7R2eduNHiG0Msts9vtxpqZhVZUVISiKObbteGwKmWcwI0ZPWVlZfh8PlPYWa1W7HY7+fn5VFRUUFpaSmlpKcXFxTiuM/PtdnGzxBAZq54z4xsiyzIulwuXy0V5eTkFBQU4nU7cbjf79u3D7Xab3+1wOGhubsadEz3YsIyUl5ebvj3GsZ1OJ6WlpdTW1tLQ0GA66eeWxeFwXFMWw7/G5XKxf//+Ld9rt9vZt28fHo8Hu92OKxOPy7h3+fn5FBQUsHfvXiwWC3a7HYfDgd1uR1VVs84aswiLiopwOp3YbDaz3jc1NVFUVMTevXupqKjA5/OZQt6og3V1ddTV1ZGXl3dNh2yz2RgeHiaRSNDR0UFNTc371qFsZ3C73Y6iKDgcDkpLS6murqaxsdGcMGCgZ+L1lJeXU1lZCZkXitraWkpKSswyOZ1Oqqur8WWm9EuSRGFhIW63m7W1Naanp+no6MBms+F2u6mpqeHgwYOUlJQgZfwSjfJZLBbzvjkzlmTjvpWUlODz+dAyqXGcGUtaXV0d1dXV2O12rFYrtbW1lJaWYrfb8fl85rka7UlHRwdVVVVmO+Pz+WhsbMSeNeTn8XjMz96vTXk/ssWQpGfZ+Iw/3++G3RZ0FR2JRf86g+OzTM4uUbOnGRUZHRmLYkGSNjtbwa1Hz4genUz+MXnTLC1JIMsS6WSS+fl5qj0yB/btpaKiDCQNTVeRM7PINF1C0za3vxVBqLPr7qZg2/ySaDTKxMQEL730Ek8//TTV1dU5ewoEO5fcNjkcDjM0NMT4+DjHjx+nvr4+Zw/BTiEUCvHyyy8Ti8X43Oc+R3Fx8Sfft+awurrK2bNnOXv2LN/5zncoLi6+Jf44O5XnnnuOqqoqHnzwwZ3pM2Q4T6+vB1leXqGguBRNUpAUC5Iko2mbskhwe9CzHaClzYbZcHYj42y3trZGeXkpvry8zP0znOB1NF3fzMiREUTXGWIXCASCXY/h9zMwMEAoFKKoqMi0sAh2LjtTDOmbP4IbG6ysrZLn86FrYLXasVgsaKomnHFvM3pmloGU8REy/tcyofRDoRB5Xi8Ohw10bXO2n7aZoX5zH1CUzUW0CQKB4E5ldXWVf/7nf+bVV1+lpKSEo0eP5m4i2IHcdjFkTF00MDpU09LAZtDFQChEPJXA4XRsJveUNTQ9vRm3z6qQ3uxnBbcBRQKLrCChkE5LqKoFWbcgaxJaIg7JCLXl+bhcdmRFAUlGkixIshUkhc0oQ5vDY0IHCQSCOxmPx8PDDz/M448/zrFjxygqKsrdZMfg9Xo5cuQITz/9NPn5+df4PX2auO1i6EZMhboksbK6RiyRxGNE65RA1dKougayiGJ8W9F1NFXLhH+S0XUZSVKQkUglEqQTURpqK7DbbZv3RdqMNC1JSqaKbc4nEwgEgjsdh8NBa2srbW1tVFRUvG9cpE8am81GZSZK9yc9SeCT5hMRQ7me37IsmzNcdDZzefpX1ojFErg8XmMiEpq22Smj61hk0cHeLjRdJ62m0XQNi0UxxjGRZIlUKkkiHqO6qhKbbec+9AKB4JND13UmJyevG5TzozA5OXnL4+/cbvRMKArjWt2s6MrvhzHza3h42IwIvr6+zvj4OIlMtvjtWF5eZmZm5n3jO+0mPhExZJA96yf7s7SqsboWJJFM4XJ70PVN20LGXxdJBynLb0Ust3aR5M00GrIsoygKmpreFES6ipqKo6kpyoqLsX6KZiEIBIIbR9M0nn32Wd555x0zpcvHQdd1/vVf//WGj5dOp0mlUu8bHHAnoGka4XCY5557jnPnzpl5wW4l6XSaubk5/v7v/57h4WHC4TC9vb3867/+K4FA4LqC7MyZM/ziF7/A7/ejCzH04djiF5QlhPSM35CqqqjpNOsbYZKahmSxISlWVF0CZGRZQclYkMSUpNvJphCS5M1p6+l0GnSNeCyKpGsUF/iwWoQ/kEAg2Jl0dXXx5ptvMj4+nrtKkIPdbufYsWP85V/+pRmz69PAbRVDBobFwcAQSZvDZxLTs/MgKTicbnRdyvieGG64mz4sd4IS3S1o2ub0eFVVSaWSyPKm21YkvIEs6dRUVyKz/duDQCAQfNKsra3h9/tJJpO5qwQ5SJKE0+mkqKho24jZdyq3PQK1lAmK9wfxYwTwy6R1SKe4cKUXSbHhdOchW2zIFhuqlrE86JtiaHPOdu7RBbcCXdp0atd1HV3TsFltoKVYX1nE7ZBpad6D02ZBkpVbWnduBOP7jd+7MQK1QJCLUZ9vRgTqW42u6ywvL9Pf309fXx/T09MEg0G6u7upqqqitrYWq9XK8vIyXV1dDA0NMTs7Szgcxu12b9sBLy0tbXu8yspK6urq0DSNS5cuMTQ0xOjoKPPz8yQSCYqKisyUI4uLiyQSCUKhEAUFBcTjcSYnJ+np6WFkZISxsTGi0Sg2mw2Hw4GqqszOztLf38/AwABzc3NmVO1ca8na2hr9/f309vYyOTnJ6uoqNpsNVVWZmZmhu7ubZDJpZrxfW1vDbrebEZwN9EzctosXL1JWVsaePXtIp9NcvnzZPLe5uTni8TiFhYXX7KuqKnNzcwwMDNDf38/MzAyyLONwOJidnaW7u5uhoSHGxsZYW1szzzUYDHLhwgU6OjrIy8tjbm6O/v5+KisrkWWZQCDA2NgYV65cMfcdHR0lnU7T2tpKXl4e/f399Pf3Mzw8zOTkJBsbG7jdbux2u1nGnUZ2BOrbahnKreBkbqDhPK2qKrFYnNXVALpkwWp3oqOg64ZjtY6ubzpQS8IydNuQsmbvSZKExaKQTiXR1BR2mwWf142MKrSpQPApx3DGvXLlCufPn6erq4ve3l56enqIxWKQCa+yvr7O1atX6ezs5OrVq+YyMTGxxXqjaRqxWIwrV65w4cIFurq66Onp2XI8MvnRRkZG6O/vp6enhwsXLnDhwgUikYjpjBwIBJiammJkZISNjQ1GR0e5cOECly5dore3l8uXL3P+/HmGh4eJRqOsra2ZQqq3t9cUMdkJZ43yDQ0N0dXVxZUrV8w8XSMjIywuLtLX18fvfvc7M4fX+fPnOXv2LAMDAzc0wpFMJhkbGzNzd128eJGzZ88SCoW2+PNomsb6+jo9PT1cuXKF3t5eBgcHWV1dJZ1O4/f7GRwcpLe3l+7ubt555x3GxsZIJBJbvi8ajTI4OMirr75KOp02k7ieP3+eS5cumdc/N7GuIcJ6enro6uri1KlTLCws7BoH99tuGSIjgMjMIjN8h2RZJpFIsLS8xMScH6+vEKfbC5JCZgJZZufNH4osoYlIQ7cFSTGSrMrIkowiSYQ31pC1FOXFPqoripAlFWTrJzXyaiIsQ4I7kd1iGUokEszOzvLiiy/S2trKl770JY4ePWp26NXV1RQUFDA3N8fp06d59NFH+cxnPkNVVRVra2sMDg7S2NhoJnNNJBLMzc3x4osvsn//fp544gmOHz9uHq+qqoq6ujqKioo4ePAgR48e5fDhw+i6Tn9/P6WlpRw7dox4PI7b7eaRRx7hs5/9LIFAgFOnThGJRPj85z/PF7/4RRoaGhgaGmJ+fp7CwkLm5uYYHx/nxIkT5nmUl5dvmSqfTCaZm5vj7bffpr6+nscee4yOjg5CoRBTU1NYLBYSiQTT09PU19fzhS98gfr6evx+PyMjI5w4cWKLlWk7y5DX66W1tdU8N0VR6OnpMXPrGeVJJBIMDAwwNjbGkSNHzGtVUVGBzWajoqKC9vZ2jh07Rnt7Oz09PaTTafLz89F13bQMeb1eFhcXmZub4/7772dlZYX33nuPSCTC008/zaOPPorNZmNhYQFd103L0J49ezh8+DBHjhyhtraWd99918wRZ9zPncYnZhlSVdUUP7mCy3ijWF72k5dfiNVmy3TACsnkprKUZRlF3uyMZUkWlojbRDorUKYEJOIxYtEIBfl5lBYXZ7KnbPp7CQSCTy+pVAq/309jYyONjY3k5+fjdrvp6Ogwk5zGYjGWl5dZXl7mpz/9KX/7t3/Lv/zLv3Du3DlWV1e3WDvS6TTLy8s0NDSYx3O5XBw+fHhLBxuJRHjvvff4+c9/zn/7b/+NF154gWg0et2p4YuLixQUFNDW1sbevXshkyh1//79FBQUEAwG6ejooKmpicXFRbq7u4lEIrmHMcvn9/t57bXX+K//9b/y//6//y9vvvkm09PT5mwwp9PJ0aNHzUTBRUVFhMPha6w72xGLxTh//jy/+MUv+Id/+Aeef/55IpEI8Xh8y+w4h8NBe3s7+/btY3l5matXrxKJRMzzn5yc5NVXX+X/+//+P/6f/+f/YWRkhFgs9oGWm0AgQH5+Pi0tLZSXlyPLMk1NTZSVlW3Zrq+vj9///vf80z/9E9///vdZW1sjHo9vsaTtZG6rGEKW0TcdUDJiSEPX0+ho6BJEkwnGZqZxewuw2dxoKuiailWWUHQNWVM3k7jqOpqmmsNlYrm1i6bJoMso6KDGIR0mGlrB6bTizfehylaSkh1diCGB4FONnpltarPZzIzjm0Prf/AD0jQNq9VKU1MTn/vc5/jSl77Ek08+yVNPPcXjjz9uZlbPPp7dbr/u8dbX1+nv76e7u5vi4mIeeOABTpw4gcfjQb/OZJt0Om1mSjeywFssFhwOBxaLBVVVcTqdHDx4kLa2NshMJR8YGNgyPGccy0j2+cQTT/DEE0/w9NNP8+STT7Jnzx7IvMg7nU5kWcZut2O3280Z1NuVzyAYDNLf38/Vq1cpKCjgvvvu46677sJrBCPOQso4Pre2ttLe3o6iKJw+fZqBgQFzeGx9fZ3W1la++MUvUldXh81me9/vJ2PEMK6VkcRVURTT5zeZTDI8PExvby+apnH06FEeffTRXTcT7faKITZ9fzb/yqBv5tVIpdOEolE2IjEUmwNJsaHpErrG5nT6zIOR2Rw1k/hTLLd+QbKgs5kgV1OTSHoKXU1gtyvYnXZ0SUbHIixDAsGnHMNZ1+/3s7KyQjgcJhAI0NPTY1pJbDYbTqeTZDJJTU0N7e3tHD9+nKNHj3Lw4EEcDscHHq+7u9sUJdFolMXFRUKhEPX19ezfv5+SkpJrLC6applWCq/XSywWY35+ntXVVQDC4TBLS0tEo1FzOL24uJiqqio8Hg+rq6vX+NjIsozX60XTNIqKijhw4ADHjx/n+PHjtLW1bZuKw3ALuRFisRiLi4tsbGxQW1vL/v37KSsru+bcsikqKqKqqgqv12sGT5yZmWF1dRW73c6BAwdobm7Gbrd/oBAic78ikYhZjng8zujoqOkzlE6nWVhYYH19nYKCAlpaWkwReCPH3ync2B25SWi6ETFR33T+0fVM6gaJSDRGaCOC0+EB2YImy2LZIQuKggakNQ1N11DVFG6XA7fDjk2RkXWNzS0EAsGnGavVSnFxMbFYjNHRUbq7u02HXUO8uFwu8vPz2djYMGc9GTOQIpHIlqEfi8VCSUmJeTzDmTn7eIqi4HQ68Xg8pq+OMePKwO12AzAzM8Pk5CQFBQVYrVbm5ubMmVrd3d3Mz8+b5xAMBhkfH2d4eJhAIIDP57vGvcNisVBWVkYqlWJiYoLe3l6Gh4cZHh5mfX39Yw8RZZ9bOBxmenqamZkZYrHYNUJD0zSCwSATExMMDw+ztrZmltlut+NyuZAkiaWlJXP9Bw2RAeTn5yNJEnNzc6Zjdk9PD8vLy5AlWN1uN6lUivn5ecbGxm5oCHAncdscqDetOepmsk5JR0JD1zVkxQKSxMpKgIXFVWTFjjWvCMli3QxmI5ZPfNGQQddRJA1JTbKxukxZUQG1lWXkeZxIuoYiGRnIbn7d+TAYddf4LRyoBXcCRn3e6Q7UFouF/Px80uk0/f39nDt3jtnZWRobG1leXqauro69e/eaMWzee+89zp8/z8WLFxkfHzctGsZwTPbxBgYGzOM1NTWxvLxMbW0tDQ0NFBQUsLa2xqlTp5iYmCAajeJwOGhoaKC4uBiHw8HS0hLvvvsu4+PjHDlyhJKSEvx+P6dPn+bixYv09fVRW1vLXXfdRVFREb29vfz617/m7bffZnFxkYqKCo4cObIloamiKHi9XmRZZnBwkDNnznDx4kUuXrxIQUEBDoeD9fV1VlZWOHbsGA6HA03TWFhYYH5+3vzMsBTpGQfq7u5uysvLaWxsJC8vj/X1dd5++21z+n/2uRnDfPF4nJ6eHn77299y6tQp5ufnKS8v58iRI1RWVqKqKsPDw7z11ltsbGyQSCSoqKigoqICRVG4cuUKbW1teL1e/H4/S0tL3HPPPeTn5yPLMouLi5w+fdocjtQ0DbvdTmtrK1VVVYTDYbq6urh8+TLhcBhVVdm7dy8VFRV4PJ6sWrJzyHaglvQseWn8eSvEEECadCZtpw6ahqpqKBYHqbROX/8wA8Pj+AqK0X1loIjUDjsFTbJgUSSspEiEVhnp6eRzjzxAfU0FDrsV0DblrmT7xMRQdt3V9T9EN49Go0xMTPDSSy/x9NNPU11dnbOnQLBzyW2Tw+EwQ0NDjI+Pc/z4cerr63P22BlEo1FisRjpdNr0l4nFYjidTjO2TiwWIxqNmpYgi8WC1+vFarVe0we93/EcDge6rhOLxUgkEshGloKMFcqI9xOLxYjH4yiKgs/nM6fFZ1uQHA4HTqfTnAUWiURQVRWLxYLdbsfhcJh+S9nE43Gi0egWS4sh6pLJJIlEwhQVZIa/YrGY+Vn28TRNIxAImN9nnFs8Hje31XUdt9uNzWbbIqTi8fi2ZZYkiWQySTweJ5VKYbVaUVXVjDNExlE6Ly/PPPd4ViyjRCJhXl8y10lVVSRJwuPxIMsy8XicRCJh+hhpmobT6cRut5vidqfx3HPPmf5et1UMqaQztoOMY64OsmQlFk9zpbufodEJauobSDnzNq0Sgh2Biowig5yOE1n3MzPSx1e/9AXKiguQZX0zDhE6SFYhhgSCm0hum7xbxJBAsBv4BMWQtimEMmIIJDQN1gJhuq72Mj45Q219A3HZin6LyiD48KiApGvoyRjpWAhFTfDZhx8gP88Duo5kzBj4BKfXCzEkuBPJbZOFGBIIbh6foBgCCS0jhDZFUTqtsbi0St/QMHMLSxSVlJNUtU1na8GOQJdldE1FSyWwK9BcV0NT016cdsem+JEywTPlW1NvbgQhhgR3IrltshBDAsHN45MVQ5mUYhKbs8rUdJq1YJDllVU2wlGsdieoaibStGAnINutaJqGnk7hdtjY39SIJElIf/AAQ9M2RzZvUdX5QIQYEtyJ5LbJQgwJBDePHSWGdF0jpaqkVQ1Vl0CSsOibViPBzkCTZDRdBU1FkSWcDgdqWgMUkBWQN7Wrsmkn+kQQYkhwJ5LbJgsxJBDcPD4xMWR80R+OvvmJjp6RR5trZCGEdhQ6Eug6euYOSZKErmmbYaokybyht6bW3BhCDAnuRHLbZCGGBIKbR7YYuq1TtjYtQtd+IiFnfhpRII0txbITFonNxljOJGsFCUlWkGTJ1ELSlvsqEAgEAsHu4baKIYFAIBAIBIKdhhBDAoFAIBAIPtUIMSQQCAQCgeBTjRBDAoFAIBAIPtUIMSQQCAQCgeBTjRBDAoFAIBAIPtUIMSQQCAQCgeCOQtd1M05XVjjF6yLEkEAgEAgEgk81phjKVk43oqIEgp2CpmnXrb+6rl+zXiDYyeTW19yMAKIuCwQfHaNPIPNsGc/XFsuQ8aF42AR3Akalz+1cBIKdTK74yUbUY4Hgw3O9l2I9ayhNNhSSQLBbkWUZWZa3dCJGJTcruixGhAW7g+y31ewX1Oy6LOqzQPD+GM+R8dwYz5AkSciyvEUc6bqOFI1Gdbvd/ocP3uetRCDYiRgV2qj4qqqanUU0GmVqaorXX3+dr371q1RVVeXsLRDsLHLfXg0kSSIcDjM2Nsbk5CSHDx+mtrY2dzOBQJDzAmH0DdkCKZFI8Jvf/Ibq6mruvfdepLNnz+qGdShXNYm3D8FuIJ1OQ5b1R1VVLBYLkiQRjUaZnp7mzTff5IknnqCysjJnb4FgZ5Htz5DdgEuSRCQSYWRkRIghgeADMJ6fdDqNxWLZ8pKh6zp2u52zZ8/S0tLCAw88gPTGG2/oqqpC5iE0TLBCDAl2C6qqmiJekiTS6bRZdyORCNPT06ZlSIghwU4n9w02+/NwOMzw8DATExMcO3aM+vr6LfsKBIJNrieGjN9Op5PLly/T2trKQw89hDQwMKBLWePS2Q+h8blAsJPJrrdkRL0kSWiaRiQSYWJigtdff52nnnpKDJMJdjy59dn4TNd1QqEQg4ODjI+Pc/LkSfbs2bNlX4FA8Af0jOO0oihbXizIiKVTp07R1NTE/fffj5RMJnWr1bplIyGEBLsZo/4ab9Lj4+O89tprPP3001RXV+duLhDsKAwxv10bHAqFGBoaYnx8nOPHjwsxJBC8D7mW1WxjTyqV4pe//CVVVVXcd999yIYQyjYh5SoogWAnkzsrwPhfygydbTfbTCDYqWS3wbltsSRJKIqCxWIRbgwCwQdgiJ/cECuSJGGz2czPZVneGnQx98ETCHYDhsjZrgMRIl+w21AUxRQ6uXVbIBDcGNltvizL5nOlZ2YcG58bz5ophrLfmsUbtGA3kVtfs61A2WZRgWC3YTTo2XVcv04AOYFAcH2y+wRDAGU/Q0IMCe4oDPFzvf8Fgt2OsHIKBB+P3JcLctNxCAQCgUAgEHzaEGJIIBAIBALBpxohhgQCgUAgEHyqEWJIIBAIBALBHcWH9RcVYkggEAgEAsGnGiGGBAKBQCAQfKoRYkggEAgEAsGnGiGGBAKBQCAQfKrZmWJIT4GeBk3dDDAGaICmg65l/hExx3YgGjqqcbfQNRV0ffNeaUBaBzXzv0AgEAgEOwRJzwplavz5YTywbza6rhEM+NF10DSZtCqhS5lF05HQkQEJ0KXMH4IdgoZu3BJdQtJ1JEnG4/HgdDg21SyAIt30+5Zdd7PTF0SjUSYmJnjppZdE1nrBriO3TQ6Hw1uy1tfX1+fsIRAIcslNaWPw3HPPUVVVxYMPPrjzxFA6naar8yJIMjoWEikdFQlZtqDrGhIaCqBrGrqcEUSCHUImJ5iug66jSBKpZILGhj1UVpRn1t0ae6QQQ4I7kdw2WYghgeDDsyvFUDwe5wf/9M+4PHm4vfmoKEiKFdliBV1DRkcBNDWNdgs6VcFHR9OsKIqCJOloahpZ0licm+buk8dpP3QQi0VGkm6NGhJiSHAnktsmCzEkEHx4dqUYisXjfO/7P6S2fg9llTVIig0UK0gy6VRqUwxJoKspJIsVPsGyCraSTltQLBYkSUNPJ9HVJOfPvs1995zg2JE2JDRkWUJGuenjm0IMCe5EcttkIYYEgg/PjYihm/+K/nHRIa2Bxe7E4fZi/f/Z++8gSc77vh9/Pd09aWcnbM55724vB9zhgMMdIjMIUqJJmjYlS5ZMu2SJLpeDqqw/XPpHLtt/qMpll/2VJcupfpQoypRKJEiCApEvx92925xzmt3ZnTzT3c/vj55uzO7dgQCBAxaHfqEae9M5PDjbnhgAAINiSURBVNPPez7PJwSCaL4AaF6E5kV4fKheP5oviOL1o3jcabdMwutHaD5Ujx+Pv4xAeYiCYWKYBkKx/ITubo4uLi4uLi4fLbtPDAFSKAhVA0XFRKCbEsMEhIqiaAjVmkwULC8id9oNk1BUTMAwLUdqVVVt96FiBJn4wC1CLi4uLi4u75fdJ4YEqKqCRGCYJrphYBZNxZqmoagaVkyZ3bG6026ZVE1BCBNT6pimNamKQBUCgUCY1l9rfRcXFxcXl93B7hNDRQy9gF7IYxoGQkqkaWIYJoVCnmwmQy6bxdQNTMN0p90yySymzGGaBUxTxyjk0RSBqggUir5Crte7i4uLi8suY1f2TKJ4VkIINFWgqgJFSFQFVEXg9WgE/D4UVUVRFHfaJZNh6CANPCp4PQKBRFNVFKmAAUIWEy46LvsuLi4uLi4fPbtSDCmmgSIAoWEILwVToAiBkDoCE6koFIS2czOXjxhFCkBFFx7y0osuNKRpAgZCMUEBaWfMdHFxcXFx2SXsSjEkTKP4DxUTBUMKK4JemiAlEoEubb8hl92CgkAIFVNqFFAxUZF2/RQhi9POrVxcXFxcXD5adqUYsqqR3RuJHZ5kfXJxcXFxcXFxeT/sSjFkIynRPXYCsuLnklyRLi4uLi4uLi6/MLtaDNnsFEWlC6SU7rRLJhcXFxcXl48ju1cMSed/pVn7tnH3HBcXFxeXX5TBwUH+z//5P9umn/70p8zOzu5c1eUBk8/nGRwc5K//+q/Z2trCNM2dq7xndF1neXmZ73znO0xPT1MoFHau8r7RdZ2VlRX+7M/+jMnJyQdyjAfB7hRD0vYNKn64e7GLi4uLywfM4uIivb29ZDIZFEUhk8kwOjrKjRs3SKfTH0iHvJvY2NhgeHiYlZUVdF3fufgjRdd1FhYWuHHjBtls9gO790IINE1DCHHPel3vlXw+z9DQEPPz86TTaWe/mqahKLtTYtyL3XemP0fpuA7ULi4uLg+OaDTKZz7zGb7+9a/zwgsvUFlZSX9/P/F4HMMoRvo+JCwsLHDhwgVmZmbI5XI7Fz90aJpGbW0tX//612ltbUXT3n+Kmkwmw5tvvsnQ0BBbW1uoqkpNTQ1f+9rXaGtrw+Px7NxkV7L7xFAJO32FpOtA7eLi4vKh0djYSF1dHVJKcrmc896VUmKapjPtnH+/5fY6O6d32ufOZaXb7Fz2885l5/Gy2SzxePyu4+3cX+myndjL73X8e227c17ptjvP417sPNYvcsydx3mncyjdp3kP65Su66yvr5PP57cdZ+d5lZ7vvY5Tut79lj9IhCw5mv3PD8J09ouSyWT5b//9T2jbd4ia5m4KeJBIfMIAowAIpKKho6FhuGlrdhECE1MoGKhIAV4zz5VXXuTc449w6uQJ69kJ5YE8s9K2K6V02nA6nWZycpIf//jHfOMb36C5uXnHli4uu5ed7+RkMsnw8DATExOcOnWK9vb2HVu8P1555RXOnz/Pr/zKr9DU1ORYTlZWVvjN3/xNgsEgi4uL3Lhxg97eXoQQ1NfX88gjj9DQ0MDCwgI/+tGPOHLkCIuLi6ysrBAIBOjo6OC5557DNE2uX7/OwMAAjzzyCFevXuXo0aO0tbWxsLDAa6+9BkBVVRX79+/n6NGjlJWVcevWLXp7e1lZWSESifDEE0/Q09NDPB7n5s2b3Lx5E8A5l8bGRpaWlvjBD37AkSNHWF5eZnl5mWg0yjPPPENnZydXr17l/PnzLC0tEQwGqa+v51Of+hSKovCzn/2MjY0NAOrq6jh+/DgnT57cdq8Astksk5OTXLx40Rlqq6io4IUXXiCTyXD9+nVCoRAvvPACAKurq7zxxht4PB6+9KUvAfDXf/3XjI+Pk8lk8Pl8tLe38+yzzxIIBLh48SKvv/46v/M7v0NlZSWLi4vOvQBobW0lkUhQWVnJE088QTKZ5PXXX+fEiROcPn3a8d958cUXOXz4MEeOHGFycpIf/OAH/L2/9/doa2tjc3OToaEhXn31Vef89+3bx9GjR8nn8/z4xz8mGAzi9/uZnZ3lhRdeoLGxEZ/Px/j4OC+++CLj4+P4fD5qamrYt28fe/bs4Qc/+AFf+9rXHMvixYsXOXLkCCMjI2xubhIKhdi7dy/PPfccXq+XlZUV7ty5w82bN0mn0wDs3buXkydP0tnZWXLX3zulfUIp3/nOd2hqauKpp57ahZahkvN9u6SnQEr7k0BKBaQ1z5120QROlXorP6adMUqWTC4uLruZjY0NfvzjH/Od73yHN954A7/fz7lz5wgEAsTjcQYGBkilUpw8eZKnnnqKSCTC9PQ0k5OTJJNJ5ubmWF9fp7OzkzNnztDS0sLg4CATExPE43Hi8TgLCwskEglOnDhBTU0N8/PzTE1Ncfz4cc6dO0dzczPr6+vcvHmTiYkJxsfHaWxs5Omnn+bxxx+nsbGRZDLJ4OAgiUSCkydP8vTTT1NRUcHMzAwTExOkUilmZ2dZX1+nvb2do0ePomkab7zxBslkko6ODvbs2UNFRQUHDhzg5MmT1NbWUlNTw+nTp3n66ac5e/YsQgjGx8dZXV3ddp/y+TyLi4u89NJLeL1ejh8/ztNPP81jjz1GNBpF13XW1tZYX193tikUCsRisW3zDhw4wNmzZ3nyySc5cOAAIyMjzMzMkEqlnHUA4vE4fX19zM/Pc/ToUZ566imqq6tJJBKsrq6Sy+XIZDIsLS2RSCSgKAJyuRzLy8skk0lM0ySTyTA/P08ulyOVSjE5OcnQ0BCHDh3i7NmzjkDq6+sjk8mwvLzM2toaoVCIxx9/nIqKCmd4rbKykmPHjhEKhejq6uLYsWN0dnaSyWSYm5sjm81iGAZbW1vMz88Tj8c5ePAgjz32GFVVVQwNDTE1NcXS0hK3bt1iaGiItrY2nnzySY4fP87W1hbXrl1jfX39nlapD5LdJ4bYLogQJRXqi50uxar11rS9q3Wnj26yhKolhuw59p/StVxcXHYvQggURSGbzTI/P49hGHR0dKCqKmtra0xMTLC0tIRpmui6ztbWFtPT0ywtLTn7qK2t5ejRo5w9e5bjx4/j9/tZXFx0OmmPx0NdXR2nTp0iGo2yvLzM5OSkMzySTCZZWFhgenoaTdPQNI2Kigr27NnDkSNHqK+vZ3Nzk4mJCRYXFzEMw+l0d55LTU0NR48e5bHHHqOjo4Ph4WG2trZobGyks7OTSCTiWEKqq6vx+XxUVVURCoUQQpBIJFhbW2NjY2PbsI0tPGKxGPv27ePMmTOcPXuWRx55hHA4jKqqzrrvRCQSIRKJ4PP5HLG0trZGJpPZtp49v7y8nLNnz3L27FmOHDlCZWXltvXeC1tbW454LBQKmKZJOp1mcXGRiYkJR4CUl5fT3d3tPC/72ioqKjh06BChUIi2tjYOHz5MR0fHjqNYaJpGQ0MDjzzyCGfPnuXQoUNomsbMzAwzMzOsrq4SCAR47LHHnOurq6tjY2ODxcXFT6gYete4nevu4u3ncc8nc8+ZLi4uuwnbgfqLX/wiTU1NjuVBSkkikSCbzbK2tkZvby8XL15keXkZRVHw+/1QFFPt7e1EIhG8Xi9VVVW0tbWRy+XI5/MAznCQ1+slnU6TTqdJpVLcvn2bS5cuMTU1ha7rVFZW0t3dTU9PD4ZhMD09zfz8PIlEgng8TjabJRaL0dfXx4ULF1haWkJRFHw+n3M9ra2tRCIRysvLqa2tJZPJkE6n7xk9ls1mmZ2d5cqVK1y/fp2rV6+ytLSErut3rZ9Op9na2qKtrY22tjZCodC25fcalin1gzFNk0QiQX9/P9euXeP69ev09/dTKBQcYVJKMpkkGAzS3NxMRUUFQgiampqIRCLOOoqibDuuvIf/UCmZTIZkMkk2m2VwcJDLly8zPj5OPp8nGAw661VWVlJTU7Nt2/eKx+Ohu7ubsrIy/H4/1dXVNDQ0kEwmWVtbw+/309nZSVNTE4qiEIlEaGlpoaKigrW1tbvuxwfN7hNDJQYEWXyY98VNurjLph2PZ+cMl4+Uu5+X+3xc7o0QgtraWk6fPk0oFOLGjRvOstbWVr785S/zb/7Nv3Gm3/md3+HMmTPOOqXtyzRNstksXq/3vtFLVVVVPPXUU9v2+c//+T/ny1/+MkIIjhw5wpNPPonP5+Oll17i5s2bZDIZWlpaeOGFF+46l7Nnz+48BIqi/NzIptnZWfr6+lhZWeGpp57i29/+Nk8++eRdQofidem6jt/vv6fw8Xq9d1mH8vm8E5GXyWTo7e3l9u3bVFZW8rWvfY1/8k/+CfX19fc9T4/Hs21Z6f4URcHr9W4LZ5dFJ/F3EhIVFRWcOXOGf/2v/7VzD//Fv/gXfO1rX8Pr9e5c/QPDMAzy+Tw+n+++Ifgf5jvq3mew25CWQnqnmmUuuwS5/Tm5z2x3EI/H+cM//EP+4A/+gD/4gz/gP/yH/8Af/dEfcevWLZLJ5M7VXVwAaGpqoqKigqWlJYaGhggGg6ysrDA0NHSXD42NlJLZ2VkSiQTJZJKpqSl6e3uJRCLbrA024XCYXC7H7du3mZ+ff8ckfeFwmNraWpaWlgiHw6yurjI4OMjKysrOVd81tmCQUqLrOqZpEgqFaGpqIh6Ps7y87AzvlRIMBolEIvT29nLnzp1tfkD2cp/PRyKRYHp6mq2tLXp7e1lcXISS43o8Hmd4bmFhgdXV1Xveg2Aw6Fzv4uIiW1tbvPnmm0xOTkJRDNnDc7FYjPn5edbW1rh8+TJbW1s7dwfF4S/TNOnv72dubu59pRfI5/N3Wc9KKRQKTExMkMlknCHOkZERGhoaaGtrI5VK0dvby+joKIZhsLa2xsjICMvLyzQ1Nd0lLD9o1N///d///Z0z76VyPyx0Xefa9RtEq2sJhiutyueAikSYJgjhVLNXuL/adfnwEUJiIpBFja1iMD85SntLI01NDUVfL4UH2bzstmv/LRQKxONxxsbGOHToEOFweMcWnwxSqRQvvvgi7e3tHDx4kPr6enK5HENDQ9TV1RGJRB74y8blF8duz/l8nlgsxsbGBk1NTUSj0Z2rvi8mJyeZnZ3lyJEjhMNhfD4f+Xye9fV1Jicn2bt3rxOhNDQ0xODgIH19fei6jqqqjuNtKBRiZmaG3t5eZmdnaWxs5Pjx4/h8PmZnZ1lbW+PRRx/F5/Ph9XrJ5/Osra0xNDTE8PAw/f39rK+vo2kay8vLvP7661y7do2FhQUCgQBtbW20tLQ4zsHDw8POueTzeTwejyM+Hn30UaqqqgBYX1/nypUrzjzDMByncHuoJhAIsLa2xvDwMPPz88zPz+P1euns7KSmpsZ5FqqqomkayWSSmZkZRkdHGRgYYHp6mqamJkcIraysMDo6yvDwMIVCga2tLaLRKEePHoWi347to7O0tMTS0hLd3d3U1NSwsbHB9PQ0jz76KOFwmFQqxfLyMiMjIwwNDZHJZFhfX8fv93PgwAGqqqqIxWIsLy8zOjrK1NQUqqqyurpKd3c3zc3NzhDn6dOnqaurQ9d1YrGYc479/f2srKxQVlaGYRj09/dTW1tLZ2fnPS1Fto/XzMwMc3NzTlTcrVu3OHXqFOXl5czNzTE6OkowGGRkZITe3l5WV1dpaWnh+PHjVFRUOOcxODjI6Ogo/f395HI5uru72b9/Pz6f731pk3tt29/fTzgcpr29fReLoapagpEKTFRMQEMipFn0o1aRCBTX6rCrEEIWndoVEHK7GGosiiHhiqGPAjsx2unTp52QbE3TuHDhAs3Nzc4vU5fdyYclhvL5vOO7UVZWhqqqeDweAoEAhUKBffv2EY1G0TSNbDaLKGYbrqmpIRgMEo/HuX37NgcOHMDj8SClpKqqipMnT9LY2IimaUgpCYfDdHV1OcM+fr8fv99PKpVy/F7C4TBVVVXous7q6iq6rhMOh2ltbXUcn8vKyu46l+rqaiorK/H5fKiqyv79+wmFQiiK4gwX2fO8Xi+BQIB0Ok0gEKC1tZW6ujoURSGZTBKJRKiqqqK1tZXm5uZtw2WqquL3+4lGo06OHSEEfr+fjo4OAoEAPp8PTdPQdd3xmamurqa5uZnW1lbn/HVdR0pJRUUFDQ0NdHV1UVVV5Rxjz549hEIh/H4/mqY5gq+jo4PNzU2klOzfv5+qqipn2Mk0TYLBIPv27SMcDtPZ2Ul1dbVznj09PUQiEfx+P2VlZduyR5eXl1NXV0cgEEBKSUtLC7W1tfcc5lQUhfLycvL5PKqqEo1Gqa+vR1EUenp6UFWVubk5JicnOXjwIKZpoigKDQ0NHDt2jLq6OuccvF4v2WzWGfLr6upyruv96pJ7bV8qhnZlnqH/+t//mLa9h6ht7qYgvBgSfBgIo2B1tooHHRUV/YHkrHH5xVCEgSHtPEMSn8xz5ZUf8dSZRzh18jhIMBUPygN4aKVt1/6y4+YZcojFYvzBH/wBzz//PI888gjRaJSNjQ3+03/6T5w5c4YjR44QCATY3Nx0foH6/X6CwaDza9Z+YXu9XqcjEkKQz+dJp9MkEgnHQTQUChEOh9E0zTGL53I5VFXF5/MRiUScl3oymXTCiEOhEOXl5Wia5jiolh43HA4TDAY/0nfUh8nOd/KDzjP0frAtMX/2Z3/Gt7/9bbq6uu5pSXD5YPmLv/gLlpaW+OVf/mWam5t33XdjfX2dS5cu8eabb/Ltb3+bmpqa+/pEPShK+4RSSvMM7UrL0NVr1jBZWbgSAwWJeNsyRMkwmTRxQ5R2D4JSyxCoUmdhaqzEMmRZ9R5k87Lbrv3XtQxZ2JahvXv30tjYiN/vJ5vNcvnyZVpaWggEAvT39/N//+//RQjBD37wAzY2NigrK2N8fJy/+Iu/4Gc/+xmvv/46ExMThEIhamtrUVWVpaUlLl68yF/8xV/w6quv8tZbb5HP52loaMDn8zE8PMx3v/tdfvSjH3Hjxg2Wlpaoq6vD6/UyMTHBSy+9xF/+5V/y1ltvoRcjiIQQ9PX18b3vfY+XX36ZN954g9HRUSci6F6/UB9m7Pb8oC1D7wd7yOr27ducPn2ayspKd+j1Q+DOnTskk0n2799POBz+SPvve2HnHJqZmeH06dMEg8GPpF3c676UWoZcB2oXl08gq6urXLhwgUKhQHV19V3RMt/4xjc4e/Ysi4uLvPbaazz22GP89m//Nt/+9rc5ePAgL7/8MtPT06ysrHD9+nUmJiZ4/vnn+d3f/V1+7/d+jy984QsEg0FmZma4ePEip0+f5p//83/Or//6r9PQ0MDVq1e5efMm4+PjVFVV8Xu/93v83u/9Hp///OcJBoPcuXOHn/3sZ5w6dYp/+k//Kd/+9rc5cuQIL7/8MlNTU3flYHFxcXF5P+xKMSREMcM0IBGYprSSLQoFKQSmBBCYQiDdaddMbyfDBKTAcnYvLhMCFAUpXFveR8m1a9f4f//v//Hiiy+yvLzsZPu1hzM0TXPypqiqSiqVoqamhiNHjtDV1cWePXvo6uoiFAqxuLjoZJm1k+y1tbXR2tpKZWUlhmGwuLjIzMyMkwfm0qVLDA0NMT09TSAQcPwF4vE40WiUcDhMtlgvqqamhsOHD9Pd3e1M4XCYxcVFVwztQmzflm9+85s0NDR8JL/+P4mcPHmSZ5999n0lX3yQBINBDh8+zFe+8pVtCRt3G7tPDAkQjieQ1cFi12ct7XC3db7utGsmWRRCxef3tvCxn5nLR40oOkjaGWXtYSmKTqHV1dWOI6NpmtTV1VFTU4PX68Xn81FRUUF1dTXJZJL19XVUVaWuro7Kyspt+UIMwyCbzVJeXu6EGZeVldHW1sb+/ftpbW2lu7ub9vZ2dF13InHW1tYwDIP6+vq7jltTU3PfhHkuHy1er5f6+nqeeOKJXd3pPWx0dnZy6NChXetL5/P5aGlp4dSpU5SVld03p9BHze47K/kuBsSckg8uu4u7H0pxhNNll3Dy5Em+8pWv8NWvfpUnn3ySqqqq+/rfaJqGEMJxcDYMA13XyWazpNNpvMUkeqZpOnWRSuIxUIpZiWtra3nuuef4xje+wTe/+U3+/t//+7zwwguOyDp8+DA9PT0MDw/T19fH+vo6iqKQSCRIp9NOqYVsNksqlcLj8ezaF6rLh4/t4G9HnD3s5PN5NjY22NjYuOt6TdNkZWWFeDx+z1xFLvfHfaO4fGDY/aDEzXD8MBCJRPB4PNy6dYuBgQGSySSJRIKJiQknP1FrayvpdNpJllb6cvb5fITDYQYGBpicnLxv4jeKFqnW1lYnPNfOU3Lnzh0SiQRbW1tMTEwwODhIbW0tgUBg5y5cPqGsra1x6dIlvv/97zuV5h9mlpaWePXVV3n11VeJx+POfCkl+Xye733ve7z22mufiHvxQbIro8muXb9JpLKWsnAFhlAxTYkqJIqQxaEXBSncpIu7DeFEkxWHXDCYt6PJmuqdobLi4OcDwY0muzf3iibbudyuHH769GnKy8sJBALOeleuXHGmzc1NTp8+zeHDh6moqHCSy7355ptcvnyZN998k0Kh4NRNklIyMDDA+fPneeutt7h27RrhcNhJpvfXf/3XXLlyBYDu7m66urqoqKhAURSuXr3qHHdjY4PHHnuMw4cP79ohgQfFxyGa7KMimUw61pD9+/ffM8v1w0QgEKC5uZmOjg7C4bBjJU2lUrzxxhuEQiH2799PY2Oja0Et4V7vi49B0sWbRCprKIsUM1BLE03gJFmUqFbyPmm4YzC7COUdxZCddNEVQx8FiqJQVVVFV1eXk+Nn5/JgsQhkW1sb3mJdJZ/P5xRpbGtro6Ojg7179zrJ9+yEfFVVVdTV1dHe3u44YNuJ76LRKDU1Nc6+7ezBwWCQYDBIbW0tbW1t7Nmzh+bmZqLRKGVlZfc8bk9PzyfSH8UVQ/fnkyaG1GIiRr/ff5fY0TSN5uZmamtr7/rB80nnXrpm1ydd/G///X/Q0n2A6pZuCngxdAOfKlEwkFJgomEoGorUXTG0i1AxMaTARAUh8ZLnyqs/4ukzJ3n01HEkCqZQUB6AGHKTLro8jOx8J+/mpIsfBoZhkEwmmZ6edmrq5XI51tfXWVtb4ytf+QpVVVWsr68zOzvrrFNVVUVDQwMVFRXb9ielJJ1OMzMzQzweR9d1vF4vFRUVzo+C5eVlNjY2kMXaZaX7bG5uJhgMOpGTS0tLTqRjQ0MD9fX16LrO0tKSE52pqirl5eV4PB6mpqacZ1xZWUl7ezvBYBDTNFleXt5WFy0SidDc3IyqqiwvLxMKhRyfv83NTebn54nH40gp8fv91NTU0NjYiNfrZXp62vG/y2azZDIZ58dPdXX1XaLqYeNjm3Tx2rUbhKtqCdqWIVOiKXZsksBEcWuT7UIUzKJlqJh0EYO5yVHaWxtodi1DLi6/MK5lyCKZTDI+Ps6rr77K+Pg4c3NzrK2tkclkUBSF/fv3O5GJly5dYnR0lMnJSTY2NvB4PE6iUJt0Os309DSvv/46Q0NDTE1NMTMzQywWo7KykmAwyO3bt7l8+TITExNOzbKRkRHi8Tjl5eXU1NQQi8W4efMm169fZ3x8nImJCba2tgiHw2xubvLmm28yPT3NzMyM4/icy+V44403mJqaYmRkhI2NDaLRKFVVVWxsbHDr1i2uXr3K6OgoMzMz5HI5qqqqSKVSXLhwAcMwqK6uJp/PMzw8zPnz5xkZGWF6eprZ2VnS6TQVFRWEw2HeeOMNent7ndpzw8PDTE5OOqLpk5Ap/F665mMwTPbOYsj1GdqdCGkNk5mI4mBmcZistdEVQy4u7wNXDFmMj49z8eJFPB4Pv/Irv8ITTzwBwMjICGVlZezfv587d+4wMTHBnj17+LVf+zWOHz/O1NQUi4uL1NfXb3sHjI+P8/rrr5NOp/nGN77BF77wBWpqapiYmGBiYoKOjg5isRgTExMUCgV++Zd/meeee47KykoWFxeZnJzkkUce4eWXX2Zra4uTJ0/y1a9+lWPHjnHp0iVM00QIwfz8PJOTk7zwwgs8+eSTzpDw2bNnefLJJ2ltbSWZTDIxMcHhw4c5f/68c/xf/dVf5ZlnnuHIkSNUVlY6Vq9oNEpDQwN37tzhxo0blJWV8Zu/+Zs8++yzKIrC9PQ0q6ur9PT0OIKqsrKSX/qlX+LMmTMMDQ2RTqeJRCJUV1eX3OWHk3vpmo9NBmpZDLN3eXhwn6aLi8svSjweJxaL8eSTT1JeXo7f76elpYX9+/c76ywtLdHX18ff/u3f8u/+3b/jP/2n/8SNGzdIJBLOEBfFH96xWIxYLMZnP/tZZ7iovr6egwcPMjw8TCKRwDAMKisr2b9/P9XV1WiaRmtrK/X19cRiMba2thgfH+fmzZv81V/9Ff/+3/97/st/+S9MTU2RSCTIZDL4/X4OHTrkWGHS6TQTExO89tpr/Of//J/5P//n/3Dz5k2y2SwAo6OjRKNRDh48+HOtNisrKxQKBY4fP+74EXV1ddHY2Mj4+DjZbBYpJQ0NDXR3d1NVVUUoFKK9vZ1AIODUBfyks/vEkAChKEgpMZEgBEKxbEBSWhmI3v7PZTchsZ7Z/Z6LKDa4u/W5i4uLy89H13UKhYLjRK8oCh6PZ5tgyOfzVFZWcu7cOc6ePctTTz3Fl770JZ555hlqa2ud9aSUFAoFCoUClZWVeDwehBB4vV6nirteLBKsaZpTVV0IgcfjQVVVdF1HURRyuRxtbW2cO3eOc+fO8dRTT/GVr3yFU6dOOZGRwWDQOcbCwgJvvvkmS0tL7N+/nxMnTtDQ0IBhGBQKBVKpFN5iQeR7WTRKyefzAFRUVDhDgIFAYFviVCklPp+PQCCAx+NB0zSnILJpuiMs7EoxBKBYA2KOb7f92bEWuRaG3YrzbO71/ZX3nu3i4uLybvB6vY5DcD6fdxyHl5aWnHVsP56WlhaefPJJZ7JTQdgoikIgEHCKEafTaaSUJJNJVldXqa6uxufzOWJnc3OTXC6HlJK1tTUSiYSTWsLOjt7d3b3tmHv37r2r7p9pmqytrTE6OkooFOLkyZN3rReJRMhkMqysrGAYxrbtdxIsFj5dWlqiUCggpWRjY4NkMklFRYWTPHUntph0sfiY3IliF3tXEr+dn11cXFxcHlai0Si1tbVOceCBgQHu3LnD4uKis05TUxM+n4/+/n5mZmaYmZlhcXHxrqSfqqpSW1tLU1MTV65cYWRkhKmpKUZHR5menubw4cNOHh87D9fExATT09MMDg6SSCTo6enB4/HQ3d1NOp1mYGDAOWZpZFkpth9RIBAgFAqxurrqOG3bVqc9e/aQTqfp6+vb5tSdy+V27o7GxkbKy8vp6+tjcnLSOb/NzU16enoca5bLO7M7Hahv3CIUraYsXImpaEgJQpqIosO0FHaeIdMVRLsIgcQsOriLYjTZTgdqig7UDwrXgdrlYcR1oLYoKyvD7/dz48YN3nzzTcbHx9E0jYaGBnRdZ//+/dTW1pLP5+nt7eXFF1/kzTffZHBwEFVV6erqumt/4XCYkZER3nzzTV5//XWmpqaor6/nC1/4AuFwmLm5OVZWVkilUly8eJHXXnuNWCzG3r17OXv2LH6/n0gkwvr6OteuXeMnP/mJc24VFRV4PB5mZmbw+/20t7c7YfVSSi5evMgrr7xCPB7H5/OhqiqPPPIIdXV1bG5ucvPmTX7605/y5ptvOpYeYJsDdW1tLUII7ty5w0svvcRbb73F2toaXV1dPPnkkwQCAUZGRsjn81RVVdHU1ATghNtHIhFn3sPMvXTN7s4zlM3y//3xn1Lfvo+q5i5MzY80QZU6qtQBgSE8GEJDlfq2UqAuHy0KBjoKJiqKkHhlniuv/pinn3iE06dOgFSQivJAxFBp2y3NKeHmGXL5OLPznfxJzzNkmibZbNapvaWqquO/I6WkoqICIQTpdJpkMulYUjweD6FQ6K4fQ7JYwmJjY4N8Po9pmqiqSiAQcPySzp8/z+joKFVVVRw7dszxIQoGg4RCIcd3KFms4WfXBPN6vUSjUZRinT1N0wiFQmiaRqFQIJ1OO+vb1yCEoKamBtM0SSaTJJNJZ3/l5eWEQiFnKM8ufCyEIJPJsLW1RT6fR0qJx+NxhJ6qqsTjcQzDwO/3O0kpE4mEk1fpYU9UWdonlFKaZ2hXiqH/9sd/SoMthlQ/Ur4thmRRDJmuGNp1uGLIxeWDZec7+ZMuhj4K3nrrLcbHx2lububZZ5/9SPtHl1+MdyOGPiY+QyVIir5DrghycXFxcXFxef98TMRQUfyUOFBb/3QFkYuLi4vLgyMYDFJZWXlXVJjLw8WuF0O2IcgOqS8VQNZ86U67ZSp5bi4uLi4PA8ePH+eLX/wip06duudQi8vDwa4XQy4uLi4uLh8lQghXCD3k7EoxZEpQBXiEiQcdTQVTCHShoQsNUwBWTuqdm7p8hEghEYAqQTXByBcQqsAUYEgTBEjDfWwuLi4uLruLXSmGrDw1AkUaYBQQ0sSUYCgapqIiEVgiXbjTLpqkKJbSlaCYRb2qKkjFWgbFeS4uLi4uLruIXSmGECqmVDAMMHQTvWAiTYEQKkKob3e+xQrp7rRLJqFioKBLMBFoHo+VMBOBIqymtjsbnIuLi4vLJ5nd2TcJFYSGUDwI1YsUKorqQUgFaYJpgpAKBgID3GmXTAVToJsC3YSCKTFRyGZy6LpejAa0hspcXFxcXFx2E7tPDEkwdIlhmAgUPKoHTVWtEzUNpKEjDAMVEyElQlrDMu700U9GUfSoqopH8+DxeFCKWVUBimObLi4uLi4uu4rdJ4aEwKOpYBoYeh5p5hFGAUXqKGYBxcijygIaOqowUITuTrtk8ggTj5ComJh6nkIugypAcUSQcC1DLi4uLi67jl1ZjuP/+5P/H6FoFdGqaqSiYaKgqBqYJtLUEZh4PBq6k3vIZVcgQEFDGgqmrqOSY3y0lyefOMnJE8fQhMfy/VKKbl8fIKVtV7rlOFweEna+k91yHC4u753SPqGUXV2bLJfL8Z0//0tQNTy+AAUTJALV47V8TkwDRRqoisCQbmWy3YSiSAQa0lCREjyqJJ2JceL4Qfbv24dHCyBNUJQPfsTMFUMuDyM738muGHJxee98LMWQlCax9RhCKOhSkCsYSCFQVRVME2FabtMKElOqOzd3+SgxcyBVwAtoKCpIkSMcLiNQFsSUKoYBXtUVQy4u74ad72RXDLm4vHc+lmIIJLqehWLyRd0EoRSdcE0DgYkiJFZ0kiuGdhUyX3wmHqRUkaaJ4jGRiolQNITiRUrQHoDrkCuGXB5Gdr6TXTHk4vLe+ZiKIYqB2jj1yEQxR42VtMbKcmwt2X3+359opFl0BlJAFkWJIjExi4kyLfH6IJ6aK4ZcHkZ2vpNdMeTi8t55N2LoQfRLHwAqYCVYVISKsP8TCqK4DLRit+pOu2YSWjFHlLA+qgKEgiI0VGGlR1B2PmoXFxcXF5ePGLdvcnFxcXFxcflE44ohFxcXFxcXl4cKKaUzzPxucMWQi4uLi4uLyycaVwy5uLi4uLi4fKJxxZCLi4uLi4vLJxpXDLm4uLi4uLh8onHFkIuLi4uLi8snGlcMubi4uLi4uHyiccSQYRj3zdLo4vJxYWc4pWmamKa5bR0Xl91MaRu+V2iw+452cXlv7PzOlGZ2t5c5Yqj0y3evL6CLy26mtLHb/7bbsWmad30ZXFw+DpS2ZXsyTdN9T7u4vAvs74v9ndn547j0s/pv/+2//X3uoZzsGk8uLrsdu+2Wqnz7bz6fJx6PMzExwaFDhwiFQtu2dXHZbdyrHdvv4nw+z9raGvF4nKamJqLR6LZtXVxcLGwNY4967VwG0NvbSzgcpqOjA5FMJqXP50PTNGdF+1eHorguRS67n50N3TAMFEVBSkkymWR6eppXXnmFr33tazQ1NW1b18Vlt2G3ZyGE86tVFl0Y0uk0Y2NjTE9Pc/z4cVpbW3ds7eLiQomOMU3T0Tf2Z13XkVLywx/+kMbGRk6fPo347ne/K7PZrNN52L9KdnYwLi4fB+wvgKZpCCHI5XLMz8/z2muv8bnPfY66urqdm7i47Crs97D9TrZRFIVMJsP4+DgzMzMcOnTIFfcuLvfB/iGhKApCCAzD2GZ1LS8vZ3BwkBMnTvDss88iXn75ZWkYBqqqOuNq9sau46nLx4FSC6YsmkVVVQUgnU47YuiLX/wi9fX1JVu6uOw+7iWG7mUZOnr0KC0tLTs3d3FxKbGw2lYhXddRVRUhBIVCAU3T6O/v5/Dhwzz55JOIxcVFqWkaqqqi6zoUzbP2F9G1ELnsdnaKIdth2jRNUqkU09PTvPrqq/ydv/N3aGxs3Lati8tu414WevtvMplkdHSUqakpTp486Q6Tubjch9IfFTstQ4VCgUKhwCuvvEJ7eztnzpxBFAoFaSsn2zJk78DF5eOAbcEsNYFS/DIkk0mmpqZ4+eWX+frXv+4OK7h8rLDfxzbJZJLh4WEmJyc5efIk7e3t29Z3cXGxsI05sjjaVdpPKIqCYRj82Z/9GU1NTTz11FMotuixN1BV1RVCLh8rFEVx1P9O7F/XttB3cdntGIbhRMDYob/2S93GbcsuLu+M/ePYnuwhMvu7Y7sG8XYfYgmfneFn7pfN5ePGzs7DpvSL4OKy27HFPfcJsy9d7uLicn/s74+tb+wfzbquY5rmNuOP840qtRC5fHDs/EW3s7N2rRYfLKUdR+nkBgO4fFzY2XbteTY73ykuLi73p/R7ZH+2RVHpsrvEkE3pxi6/GPZL634vr3vN28k7be/yNvb9uVfDt8WQew9dHgbc94GLy8+n9Huy84dFqVuFvY5ra32A2DfbNE0Mw4D7+Lfs/FzKzgfm4uLi4uLi8sHiiqEHjFLilG4LIht5n1ThO3/52UrWxcXFxcXF5YPH7WEfILaosU10OwWNLZR2WoXs9XeKJBcXFxcXF5cPHlcMPWBKh8hsgWOHztrzbKfqnX4tO0WSi4uLi4uLywePK4YeILb4Kc0TUjoEtnOZPc+1CLm4uLi4uHx4uGLoASJLElnanykme7J9iLLZ7LahNFtAuYLIxcXFxcXlw8EVQw+Qe0WQ2X/z+TxbW1vEYjESiQTZbNapnfJO0WUuLi4uLi4uHyyuGHqA2BYg0zTRdR1RzIQ5PT3NpUuXeO2117h58yYvv/wy58+fZ3h4mPX19XsOo7m4uLi4uLg8GFwxVIIpQW6bJEizZDLA1IGiOJHWJE0TaZhgmtt2YA15Qb6gE4tvcXtwlDcvXaN/ZJJ41sAbrsYbrqGsooGc9DI1v8q1WwNcudHH9OwiqXS2eKTigUomeyhNyu1L7DzLbw+1mW8v2XYtbkZmFxcXFxcXXDG0AynfFhUl1hhLWNhCp/jXNJHSRJqmo42cfRSnZDLN/OIy45MzjE/OMD23yPzKOhldUBappaqxnVB1E5X1bYQqG5BakI1kjsnZJUbGJxkdn2R2boGN+CaFQqFoKbImG1Na0WqmYVjnWCKUHKVUnIc0rAmzRCS5uLi4uLh8snHFUAmWA7MlaJDF0HZh3yIBQiCFAtJEmgbSKGBKHRQBioIpBDndJJHKsraxxfTcIn13BrnRd5up2Xl8wTCde/bR1tFFKFKJKRUKhkk2V8AbCNLY0krnnr1U1dSxtrFF/+AwN/tuMzw2xeJKjM1EikyugG5K61ywrFKGrmPoBTB0FFmSxLH0/F2nbBcXFxcXl3viiqESjKJ/jlAEqvp2GQyhqAhFRaJgmCCNPAIdhGUxMowCJpKcbrKwGuPSjV6+9zc/5OadIXKGQkNLB537DlFRU4+BRjqrk9MNhObFX1aOryyEgUomb6CjEq2upWNPD62de/EEQkzMzvPi377Cm5eusbCyhm5KDFOSy+ZRFIHPq+HVFBQMkDpC2VniQ0EoCkLV3hZHOy1aLi4uLi4un1BcMVSCWswQLUsSIJoSCrpBQTcxJSiqilBVUBUUVUEK2Eql6RsY4mdvnufyjV7i6Syt3T3Ut3QSrWnAEwhRMASZnAGKB83rR1G9FHSTTE5Hl5KCKckbUDCgIBUMoaL5g4Sraqlv6aCtcx+G4uX6rdu8+NLPOH/5GpvJFIbt6CSwLFRITBNLtBXFjpQSw5CYhom0TF6gqNY2Li4uLi4un3BcMVSCEBLhZH4WSIq5fxQBivXZkAIpVNLpLLPzS/TdHuLqzV4mZubJFEz8oSihyloC4Qp8wQiqrwypeDGkgokCQsW0LUwINM2DomqW5UkolvVJCkyhIjQvmj9IIBQhGK2iLFyBPxQFzc/6Zopb/QNcvHyN0fFJthJJQGDqZvEaLL8nwyhau4RACKX4yN1SHy4uLi4uLjauGNqGtNxsigJIyqKrkKJgSkkmXyCeSDMxPc/w+AyjE7NMzy+zHk8hPAGilbVU1dRTHq5AKF5MqSCEhqJ4UFQPoCBNiSw6QCtCsaxRUiKQ1sMQAlNakW0mlo+SFB5QvXh8ZVTVNlDX1EJZOEo8mWFuaZXRyVmGxqYYm5xjeS1ONp93HMBtyaMoiqWQipYiFxcXl/thmib9/f309fWxvLy8bVk2m2VmZoaBgYFt8x8WTNNkc3OTK1euEI/H7yqwvdswDIOlpSX6+vrIZrPk83kmJycZHR2lUCjsXN3lPrhiaAdSWlFiFEPrddMkm8uzsZlgYWmVmdl5Llzt59adCdY2swQjtXTsOURzaxfBYBTTVDB0icfjtUavhIrH40XTPCCthqsg8SgCFYmez2EU8kjDsCLVTCtCzTQlumGiG5Z/EEJBN0wQCl5/GdGqWtr37KOlcy8ZU6V/ZIq3rvYxMDHH/NIqG5tbZPN5JBJhD/850WiWwHPHyVxcXO6FYRh8//vf57vf/S43b94kn887yxKJBJcvX+aHP/zhtm0eFnRdZ3V1lR/96EcsLy9jGAb5fJ7NzU2y2SymubvSkuRyOQYGBvje977H1tYWmUyGvr4+rl+/Ti6Xc3/8vktcMVSKlOiFAoauW241CqTTOUYnZrh89QZvXbjIzb7bhGuaaNt7mOaOA0SrmzCkh3SmgG6ApnrweryoUkFVVAzDIJfLUijkUFWBIsDQCxTyOUy9gIrEoyp4NAVNFYCJNHUrQK2ksKuUkmAwiAQy2SypbJ5M3sTU/NS1drHn8CPUd/awmijw6mtv8OabbzE0PMp6fOs+vtLuo3dxcXlnYrEYY2NjTE1N7Vz00OL1euns7OTf/Jt/w549e/B6vUxNTfGjH/2IO3fukMlkdm6yqygrK+P555/nq1/9KsFg0K1m8C5xe8QSTF1HVRWklKysrHLhwiV+9sorTExMoKoaLa1tdHV3E6msR/WG0KVKrgAmGqrqQxEa0hSYBSvc3fZpVhRhCRvTQEiJV1PxezU8qsDU8+h6HqSJIiSq5Z6EqgiEsPIa2T4/Bb2AKUGoHjSPD9XrQ6pedKlgCC9aIEK0rpnuvXsJBoPMzc1x4fwFXn/9dcbGJkilMghhlQZxfy24uLj8PDo6OhBCcOXKFfL5/CfmvaEoCj6fz3IvADKZDLFYbNdZhe6FEAJN09A0zRVC7wEhS1q3/c+Pyw00KTr1FJFSoiC2Df5IebfkK3rOvL2CsP7ENjZZXd9gPb7J5laSdDqD8PjwBYL4AmV4vH48Hg8Sn+X7U0zSqAj7mNZn66DW0FbxIG8fC1sc2VFeBhKBolh5jCjuU9h5hJzPCtI0oKSgq+0Iba1T3B7wmgUKuSyZdIpcNoU0CmiqoCzgJRoJU1tTSV1tLZoi3k4iibCi5IqnaQswIYSVn7HkplpXV4xgc+ZJFJSPbOCttO3a5w6QTqeZnJzkxz/+Md/4xjdobm7esaWLy+5l5zs5mUwyPDzMxMQEp06dor29fccWHwyFQoF/9+/+HV1dXQQCAdbW1jh9+jQ9PT0kEglee+01Jicn+d3f/V0A1tfXmZ6eZmZmxhlSa2tro7Ozk6qqKnRdZ3JykqmpKTY3NwkGg/T09NDc3IzX64Xi8FQ8HufatWuWFVxKx1+prq6Onp4eamtryefzLC8v09/fTyqVIhAIUFtbS09PD7quMzQ0RCaTobKykrGxMU6dOsXCwgLxeJxgMMjKygper5d9+/ZRWVnJysoKg4ODlJeXs2/fPmpqalhfX+fq1as8++yzLC8vc/HiRUZHR2lsbKS1tZUTJ05QWVnJ3Nwc/f39SCkpLy+nubmZzs5OgsFgyd20ntvFixdJJBIYhkFZWRlNTU0cOXKERCLBwMAAiUSCyspKpqamkFLS3t5OV1cXlZWVAFy5coXFxUXy+Twej4fa2loOHTqEpmlcunSJV199lW9/+9tomsbIyAhCCI4dO8bo6CjT09Ok0+lt5/T444+zubnJ5OSkY+2qqalh7969VFVVsbKywrVr12htbSWRSKAoCkeOHCESiSCEIB6PMzU1xeLiIp/61KfweDyk02mmp6eZnJzk05/+NJlMhqGhIdbX16mpqWF6ehrDMGhtbaW7u5uqqioArl27xsLCArlcDk3TqK2t5eDBg0Sj0W3n/F64X59Qyne+8x2ampp46qmndsqEjxemlBjSxJAm5o7s0aWZmq0s0UVBgnx7XSnJ5nIsr6wxMjbO6PQ84zOLTC+sspHM4gtXUt3QSqSmAU8wiqn5yEkV09QBAyFMFGECBhIDaWd2FrZQKM30XJxXjPLSTYkhAUVFKAoSy2G7GM/2tp5CWAJPShRhyQ1hXSSYpjUfUJGo0kSVJqYIoPgrCFY0EK1tIVTZQEFqLK1tMjE9x/D4JMNj48wvLJBKppyQeyntlAJvZ7K2/joKyZonrfton6TExJRG8TpdXFweFsLhMG1tbVRXV3Px4kXW19fRdX3bOul0moGBAW7dusX8/DxbW1ssLS3R29vL0NCQ8/n27dvO8mQy6WTVtzEMg83NTc6fP8/NmzeZn59nc3OT5eVlrl27xvj4OPF4nLW1NW7cuMHc3BwbGxssLy8zNjbG8PAwa2tr3Lp1iytXrjA3N8fW1habm5v09vZy9epV5ufnHfFx9epVbt++zfLyMvF4nJs3bzI0NMTKygoLCwu8/PLLbG1tkcvlyGaz6LpONpsllUqRTCaZn5+nv7/f2X5hYYHR0VFHzJRimiapVIpEIsHm5iZTU1Ncv36deDzO5uYm/f39XLx4kcnJSba2tpicnOTWrVuMj487+8hkMiSTSTY3N1laWuLixYuOOColmUxy+/Ztbt++jZSSXC5HMplka2uLubk5rl27xujoKOl0etuyeDzuHNO+76+88goDAwMsLy+TTqe3OZMnk0lGRka4cOGC46idzWaZnJx05qVSKW7fvu1cm33tvb29jI2NOfvKZrPOvVlZWeHSpUvMz8+Ty+WcdR40H2sxRLGRyaIoUEXR4mKaGKaBKU2EeLvYqSj26bpuksnm2UykmFtcpX9wlPOXrjE2MY2uS+rrGujo6KKqug5N8yKEiqpYUWE72vjuRAETE0MaCFWhPBymubWdlvZOykIVLK3EeevidW72DjA1v8x6Ik0qkydfMDAMywysCIEiLLEjxNtiCWlakW9CoAjLDickCLe6h4vLQ0ldXR2dnZ1MTk4yOzu7zcJgW2/6+/spFAp87nOf4zd+4zf42te+hhCCoaEh5ufnWVxcJB6Pc+zYMb75zW/y1a9+lX379uHz+bYdy8br9XLkyBF+7dd+ja9//et4PB7m5uaYnJxkenqaa9eusX//fj7zmc/wyCOPIITg6tWrzrlpmkZjYyO/+Zu/SXV1NQChUIgjR47wG7/xGxw6dIjx8XEGBgZobW3lH/yDf0BDQwOxWOyu6Lljx47x+OOP09jYyNNPP82Xv/xlqqqqGBsbY3p6mnPnzvH5z3+enp4eUqmUYykqpby8nE9/+tN8+ctf5vnnn6erq4uFhQVmZ2cdMaNpGg0NDfz6r/86n/rUp8jlcoyOjjpDc6dPn+aLX/wiX/rSlzh9+jQrKyvMzc2RSCS2HasUv9/PI488wt/9u3+XX/3VX+W5556ju7ub5557joaGBg4dOsTzzz/PL/3SL/HZz34W0zSZn58nFos5+/D5fJw5c4bPfe5zVFVV3dPC8vNQVZWamhp+5Vd+hU9/+tMYhsHQ0JBzbSdPnnSu7YknnmB9fd0Rsx8WH2sxpAkFn6qhKSpIUbQAGSiKiaZKNNUEYaAIiZBWSLuUkC3o9A+M8MOXXuHlNy6yGk+x5/AJmlu7qKppoCwYRVH9mKbA0CWmLpGGNZkfAwNIQRaQwkSoAhNIZ/OkcgWEGiBa1UB71wF6Dp2ioPi5cO0W3//hT3jj0jXiyaxVbkQomKaJqRcj3ISBEAZCMRGKBMW6CdI0wQQFFU3x/EJfEhcXl91NIBCgra2Nc+fOMTQ0tE0sSClZXFykurqaI0eO0N7ejhDCGdaKRCJsbW1x4sQJ9uzZw9zcHLdv3yaVSm07xk7a29tpa2vD4/FQXV1NT08PqqqytLTE8vIyq6urfPe73+UP//AP+R//439w+fJl1tbWHKtVRUUFXV1d2/YZDodpaWkBoLGxkcbGRlpaWujq6sLn89Ha2kpZWdm7Ckff2tpiZWWFsbEx/viP/5j/+B//I3/2Z3/GrVu32Nzc3Lk66XSaS5cu8Zd/+Zf81//6X/nhD3/oWGZsQVBVVcXBgwcRQtDS0kJZWRnJZJJkMomUkv7+fn7wgx/wx3/8x/zpn/4pm5ubZDKZdx36PzU1xdzcHK2trRw7dozy8nKmpqb46U9/yv/6X/+LP/zDP2R0dJRMJrPtHnR0dDiC8heloqKCI0eOoGkazc3NBIPBbdc2MDDAiy++yJ/8yZ/wR3/0R8RiMcca92HxsRZDdiF5YVoOyoqVJAihCIQC0hpPQlEUEqkko2PjvPHmBV56+RVmF1eI1jTQ3XOYupYu8qZGsDyC5glQMCCXNzClAkLDNC1rElLg8/p3fadvGAUQJopHRfN6ER4vUngx0TDxIpUyFE+QqvpWWrsPUN/SRU4XvP7WJX70k7/lxq0+1tc3rUSQhjUMCAamNDCMAka+gCw6iAtEcWxy94tEFxeX944QgvLyck6cOMHGxgYTExOsra05y20riKqqjsOxEAJVVZ13paZpHDlyhMcffxxFUXj55Zfp6+u7b2SWoliBHhT3ZRgGiqKgaRqBQIDDhw/z67/+6/zO7/wO3/72t/nt3/5t/sE/+AeOf40QwtneRji+lpbFRNO0bcfZXsLo51NRUcFjjz3Gb//2b/M7v/M7/LN/9s/4rd/6LV544YVtx15fX6evr4/+/n46Ojr4+te/zhe+8AUikci2/dn3jKJlTFVVy5Ujm+X27dv09/dTXl7O888/z6/+6q9SW1uLx+PZto/7sbS0xMTEBFJKHn30UbxeLxMTE/T395PJZHjqqaf4rd/6Lfbv34/f79+2bel9K0VVVTRN2zZP1/V7CpjS5+H1etE0zRnCs6/N7/fz+c9/nn/4D/8hDQ0N7/raPig+1mJIFP9nPSc727Lld2NIyOYLrG2s09t/h77+ASamZ4kn0iian7JQBWWhCjxlYTRfENUbpGCCLilmirayRSMUKwJLFJ2DTXvIaPdOiiKQWBFtBV3HME1QFKSiYQoVQyrohoLwBAiEKwlV1FAWrsRbFsJUPCwsrdJ7e4Cbvf3Mzi+SymTRTcuLWggFoajWvUFYD0EWfZhcXFweSjweDzU1NXR3d7O+vs7MzAwUO7mKigoSiQRTU1OsrKwAsLm5ydzcHOl02nGCjUQiVFdXU15eTjabZXp6+r5WmM3NTTY3N9F1nVgsxuTkJADV1dX4/X7W19cpLy+nra2NvXv3smfPHtrb2+877LaT9yp8KIo+O6IuEAigKAqpVIqqqio6OzvZu3cv3d3dNDY2btsum80Si8XI5XI0NzfT3NxMIBC4y9enlNLzs/MepdNpqqqqaG9vJxKJbLMq3Q8ppZN3yDRNuru7qaioQBQdoLe2tggEAnR3d1NdXY2U8p5i5l74fD78fj+6rrOyskIikWB+fp65ubmdq26j9NoMwyAWi5FKpaioqKCjo4NoNEqhUHjXFq8Pio+1GKIYkWUikcKKLisYkvV4gpn5JUYnphkam2ZyZpGltU1yhiAYraK+qZVodR2qN4AuBboUKB4/BRMMhFXUVLFUOVjiQlEEAhND3/3hpaqiIKTENAxM3bB8euyyIsUoNRSFvCGRaGjeAIHyMFU1DdQ0tKD5gsQ2k4xPzzMxs8Dg6CRTs0usbyYpmCA0Dyiq44T+tsO4i4vLw4gQAo/H4wyvZLNZZ1l9fT3hcJiVlRUuXLjAlStXuHjxIrFYjEgkQmVlJcvLy45j88LCAuXl5ZSVld1lvbFZXV1lYGCAK1eucOnSJXK5HFVVVTQ1NVFdXY0Qgv7+fi5fvsyVK1fo6+tjc3PzgXWgZWVlRCIRxsfHuXPnDrquE41GneEv+zyGh4dJJpPbtvV6vUQiEUKhEPPz8wwMDDhRd++mL1FVlUgkQjgcJh6PMzg4yOjo6LtKAJnP5xkbG3McxVdWVrhy5QpXrlxxIvHy+TzDw8PcuXPnPWXcDgQCVFdXEwqFuHbtGpcuXWJsbOw9+fkoikI4HCYcDrO1tcXg4CDDw8Ok0+l3dW8+SNTf//3f//2dM9+rYv4oMUwrkswwTTK5PBtbKcanZhgem2BqZp6NzQwVNY1EKmsoj1QSCIZRPH4QKlIULRxCYEqJqikI1apBZjkLW2LIiqiyJjAtYbHzRHYRomiwUYWV+FFVVMsZWhaTESgCzaNiGIWimdi6XsMw8Pr8lIciBMvDoHrZSmcZn5witrFF3pAoiuftUiUIKzmlEEhh7fejxm679t9CoUA8HmdsbIxDhw4RDod3bOHisvux23M+nycWi7GxsUFTU9P7Cj1+J2TRj6OxsZGmpib8fss9IBwOk8/nyeVyBINBHnnkEQKBAIFAgHg8Tm9vLyMjI8zOztLV1cWJEyeIRCKMjY3x6quv0t/fTzKZdMLKQ6GQI4gMw2Bra4tbt26haZqzv/n5eU6dOsWhQ4eora0lEAjg8/m4c+cOQ0NDjIyMsLy8TGNjI6qqsrq6SjAYdBImZjIZFhcXKSsrc+bZ0VORSISOjg4AVlZWkFISCoXw+/3Mzs5y6tQpwuEwqmol0L1+/Tqrq6s0NTXR2tqKrutcvXqVsbExRkZGSKfTjji0n5mmafj9flKpFL29vSwvL2OaJqFQiK6uLsrKylhbW8Pv9ztO5bquMz8/j6Zp7N+/n8rKSrLZLCMjI4yNjWEYBh6Ph66uLqqqqshkMqyvr3Ps2DEAlpeXCQQCtLe3c+XKFVZXV1ldXWViYoKRkRFGRkZobW0lHA6zurrKjRs3yOfzCCFoamqirq4ORVGYnZ3l8OHDVFVV3TUk5vF4UFWVQqFAf38/U1NTlJWVUVVVhZSSU6dOoes6y8vLznV4vV50XWdhYQGAAwcOUFlZSS6Xc+6hYRhomkZHRwf19fV3pSl4r+zsE0rp7+8nHA5bvm4f9zxDEshk8yytrDE4NMrK6jqq10ckWkkkWoHPV4YpFGuYSAoMw8QwdGvoS/NYYe1F06CiFW8aVtJDRVGQho6uWyGgmqbh83op5K2M0LsVq96ZFfQuJZh2iRGKFeuLY8Ca5qOQ15HSRNNUVE0hn80B0hr/F4J8PosmJBvrMWJrq+SzaSoqIuzr7qC1uYFwKIiQJoV8Hq/XVywG++FT2nalm2fI5SFh5zv5w8ozRLHMg6qq23x/KIoW23pg5wgyTevHVKlVoXRb0zTRdd35bt5rv7lcjrm5Of7X//pfnDlzhscff9zxX9E0zVlfFvOzGcXM/JRYriien72Nvb499GPPs8/Xeg9anby9P/ucCoUCXq/X6gekFZVcKBScY4miL1PpsJJS9GvaafGyz8G25NjHsK/p550zxfNzIqOL66hFPy37erxer3N/7G3t4+7ss+z9mqaVUsW+TkVRHH8lXdfxeDx3XY+NvY59PHsIzDTNbfmjpJTOPbO3sefxDte2s428F+zrtfd3r/2U5hn62IohKSUbWxtMz84xv7DEVjKDx1tGMBRF85WhaD40zYdH85KXVgJE66aANKycQIpQHH8jKSWmsCwnlteRFYpvNQHLOiSE7TBc9JfZpQjDujZFUazhQ1PHxLRO2R5alBIFzRIvQgGsBmyVQbOsRWA5jnsUiVHIU8hlKOQzFHJpCrkUmiqpqgjR0txIa1MziqLtSHn54XG/hu+KIZePMzvfyR+mGPqwKRVD586d4+zZs5SVle1czcXlXXG/PqGUXZR0USJlMXwbaxjHNA0wCyB1MHWkoWPohmXhALZSGcam57l4vY9rdyaZWtoipXvxBKsor6wnGKnGVxZC8/qQQqDLohKX1v4FZokPUInoEVZyQxWBioKQCgIFUBBoCDSQGlIqSIpJEnfpZAoFUwgMJ8hLAdRtk1Um1lqfHQ1HiOLjkFY+IRComgdfWZCyUAXlkWp8oSoMJcjKps7t0UVevdjH6NgU8bjl9AglyS6lCaaBNArFEEBzWzJKpziuG47m4uLi4vIR8BGLodL+T1qDXlKCWRRI0soNVCgYxDbiTM3OMzQ+xfD4DOMziyytZzDUcsLVTdQ0thOMVCFVD1ZaQEBIJAYKlggSsjhZ8WJ29QoHpeQ/VagoRdFg3SZbSGhFq9AunpS3xZAhwRQKUqhIVKS0rkEID6IYEWbbBkUxaaUjHKW0cjQJ69mYElBUvGUhKqobqaxrxVdew2ZGMDIbY3h8msGRccYmZlheWSObK1iRbLbYMq0itFJaWaxl0fRsI4vzSoyVLi4unxAURaG8vJwjR45QX1+PWgwzd3H5MPhQxdDdnZwAYVlZTFMgpUBRNVA0TFOQ0yXJTJ7Y5haDo5NcvtbL7YEREqkM9Y3NNDZakQXl5eWoquqMfdrHsccvLZHg8ovzdj002+SIAI/XSzgSobGxke6uLrI6DIxOcflGP32DoyyurbMRT5BK5zBMQNWKpT+KA5ESTFNa4fpFXyN77NvFxeWThcfjoa6ujq997WscOXLkXYfJu7h8EHyoYqhUqNhWgXzBoKBbEWFWjS6QisZWOs/o5CxvXLzCj/72FcamZglGq+juOURb9z58ZSHHIcvuQG0nMK1Ysdd2LtvteYF2+2RIwyqKqwiEavkh6YZBQS9gmlbJD6/PR2PHXvYeOUl9WzfrqQI/ffUtXvzpz7h2o5fl1RhSKqgeHwXdxDCt563ucF5U7UReO3Wzi4uLi4vLA+JDDa0v3a1zDMUKZzdMq2zEWmyD672DDI5OsLAcwxAatQ1N1NQ34fGVoZvWuqrH93aSRWtMrOgQrVilOaTE0A103XT8Xlx+MayhLIEiVBRFRSk6XFsRa8VSskKQMxUMoSFUD5rHRygUIVheTjKdYW5+gdnZebKZLOWhEB6fBzvnkcBqHJaFyBovk9JKYfBen5vdruy/bmg9jI6O8r//9//m4sWLztTf308sFqO8vByfz/e+hiRyuRxDQ0P81V/9Fa2trfh8vntGn+TzeYaGhvj+979PS0sLfr/fWa9QKDA8PExvby+FQuF9p/9/2LDb84cVWl/KwsICt27dYnZ2lqqqKidK6MPk5s2bjI2NUSgUnCzTFCOV7ty5w6uvvkpVVRV+v/99teWPktnZWc6fP8/i4iIVFRUPjWVscnKS27dvs7Ky4oTsf5js7BNKKQ2t/3DPyv65X8zrUzAkUgg2NhOMTkxxo/c2d4ZGiacLmKoff6iCUEUNgVCFFSHm8SM0L6ZQ0U2c4RVRLBhq+7/IYtX6t0fl7r4JLu8BIZCiGJlW9B2SxSFOoSgIVUGoKiYqBipC8xMojxCKVlEWrsQXjCA8AdIFk4XVDS5fu0Xv7SGWVmLkCwbSSuxtPTPDskbdo926/IIkEgmmp6epqalh3759HDhwgOrqaubn5/nJT37C9PT0+6oOraoqFRUV9PT0bBM4O1EUxVnPzuBLsUPb2Nigt7cXVVUJhUI7N3X5CCkrK6O+vp66ujo8Hg/JZJKhoSGuXLmyc9UHRlVVlZO/p5S5uTkWFhbw+Xzb2tTHETsf0urq6n0zc38cSaVSrK6usr6+jrzLVWb38OG2nKJQMQyDTDbHylqMsYkpRsYmmZieY2k1xmYqgz8YpqK2gcq6BsojlZhCJVswMFFQVC+K6rFCwIvh8qXOw7YfipSgCAVN+3DrmzyMWOU3BKYE3TApGIaV7NL2/cFapqpWaL00pRWxpnoQqpdguILK2kYiVfXk8bC0usHk1DwjY9OMjk2xsLjCViJJoaAXnejdWmcfND6fjxMnTvDss8/y6U9/mieeeIKmpibGx8cZHR0lHo/v3ORdo2maE54aDofv2yFpxUriTz/99Lb17OHY8vJyuru7qaur27mpy0dINBplz549TsLCRCLB6Ogot2/f3rnqA6O1tZU9e/ZQW1u7bX6hUKCqqorjx48TjUY/tlYhl4+eD32YTNdN0ukMK6trjI6NcavvDhvxLfzlIWrrGwhHKzEVL6iaVRJDKM5QmBUGbiVDVBQF0zAth9yi2ixN+CeEgqKoqKq2LWLJ5RfAeQaWn9fbQ5NvW+FMU+LRNEzDwNAL1jBXsbMTioqieVE0L2ge6utqQMDi4hIT4xNsbSUQUlIW8OP3+6xhTUMH1RJh74WdJlF3mAwWFxe5ffs2x44do6KiAq/XS3l5OXV1dWxsbLCxsUE4HKa2tpZsNsvm5ibJZNJJ92/73hUKBdLpNIlEgmQySSqVcgRNLpdja2vLSZJXKBRIJpNsbW2RSqWc72A+n3fWE0Kg6zr5fB7DMGhubnYCIZRi4jdd19na2iKTyTjbplIpZDE53P2E18PGhzFMVigUyGazpFIpEokEqVTKeR7pdNrxzZyfn2dycpJ0Ou1Uqc9kMo510U7mZ8+TxYS1+XyeRCLhPMN0Ou20Lbst2G3Lbn9SSrxeL8lk0kl4qBYTAqZSKbxeL+FwGJ/PRz6f39ZWk8kkuVyOTCZDKpVyKrx7vd531cfZx7DPya7mbvuqFgoFEomEc6/sWmF24kT7mNlslnQ6TTKZJJ/PO2175znEYjGmp6fxer3U1NRgGAbpdHrbddnz4vE4qVTK+S7Y+8vn886x7Ou3v5OZTGbb+ZZ+z0qRxRpspd9zXdcRxWKriUSCbDbrtJVUKkWhUNj2LEtZWVkhFovh9Xrp6OhAURRyudxd946ilZliOy+9jmw267wz3is7+4RSPsIM1CaFgsHExCQ3e/uZnpunpb2LuqZmPL4AumGCoiG0AIZpd7xFf5Xii6/03IRp+QbJYkIl+8VY6qgtnEKuLr8ohizeyGLbKG1cJc0HaehoxeckpVW7VQqBYZqWfxfg8/owMxsE/R6MQo7F+XmW5mfxaoJjRw6yv2cfofKgJYY07V0/vNK2a7cH3KSLANy4cYM///M/59d+7dfo7OwkEAhAUcDcvn2bN954g6NHj3LixAlu377ND3/4Q7LZLJWVlRw6dIhz585RVVXF5OQkly5d4vbt20618S9/+ct0dHQwMTHBG2+8wb/4F/+CQCDAyMgIV65cobe3F4CzZ8+yb98+1tbWePXVV/lX/+pfEQ6HWVxc5NatW5w/f955sR88eJCzZ8+yd+9eFhYW+Ku/+iuklITDYWd/zz77LKdOnaKhoaHkSh8+dr6TH2TSxenpaW7fvs3AwADz8/MAfPOb3yQYDNLX1+f4g7311luMjIwgiwVLn3/+eebn55FScvz4cQ4fPgzAW2+9xerqKl1dXRw+fJjh4WFefvllxsbGoDhs+vf//t93hk2XlpZ46aWXGB0dJZPJOBaf559/nr/5m7/B6/Wyd+9eOjo6yOfz/OQnP6Gvr4/19XV8Ph8tLS184QtfoLm5mcnJSS5cuADFqvGxWAytWBLil3/5l53M0vfDFgQvvfQSvb29xGIxAoEAe/bs4YUXXqCiooKRkRFee+01RkdHkVJSU1PDiRMnOHv2LKFQiBdffJGVlRWnVEYsFqOpqYlnnnmGI0eO3FWVfWRkhFdffRVRFForKyvk83laW1v5zGc+Q3NzM6urq1y6dIm33nrL2e6pp57i3LlzlJeXO353ExMTxONx6urq+Jf/8l8CcOHCBS5evMjy8jIAjz/+OI8//jitra3OvigOWw8PD/PSSy8xNzeHaZrs37+fJ554gtbWVn7wgx+Qz+dJJpNOkdXm5mZeeOEF2tra7hJXt2/fZmRkhGAwyLPPPouUkps3b3LhwgWmp6cBaGxs5MyZMxw/fhyPx+Ncx/j4OBsbG1RWVvIv/+W/fE+lOe7XJ5RSmnTxQ7UMUfw1FyjWLwlHK8jmddZi62xuJUDRKA9HMKUlemwB9LaSBiGkkwfHUxwCKxVNdmdtT1aDd8db3g9CtQrX2pYeihmsTdPO2G2JJdUsoApr4Mxebvleq8WUCZavl5lLsxGLsbS8RD6bpbuzg/379tLa0kx5MGANvCnKL6RkS4UarmUI7mEZsl/CUkqy2Sx37tzB5/MhpaSvr4/HH3+cM2fOUF9fTyqVYmlpiUgkwiuvvEI+n+fRRx/lmWee4dSpU3R2dqKqKvPz84yNjXHu3DmWlpYYHh5GURS++MUvcurUKfbt20cgEGBxcZHR0VHOnTtHOp3mypUrjI2N8cgjj/D000+zZ88epyp6Q0MDhWLdI13X2bdvH08++SR+v9/xE9n5In9Ysdvzg7QMvfbaa6yurnLy5EnOnTvniK14PM7c3ByRSITOzk7HpyscDvONb3yDrq4u5ubmSKVSNDQ0UF9fD8DExASJRILKykoaGhoIBAK0trZy7NgxDh48SFlZGcvLy0SjUTKZDNevX2dlZYVnnnmGJ554ghMnTtDZ2UlZWRl37tyBYtV6TdP42c9+xuLiIocOHeKZZ55hz549LC4uEo/HCYfDFIoO+fPz8zz22GMcP34cn8/H7Ows4XCYSCRylxgpJZlM8tZbbzE7O8v+/ft59tlnOXnypFMnbHBwkN7eXqSUPP/885w+fRq1WBctlUrR1tbG4OAgs7OzlJeXc+7cOQ4fPsz09DRSSiKRCJFIZNsxY7EYo6OjLC0t8cgjj3D69GlaW1tJJBKMjIzQ1tZGZWUldXV1HD58mFOnTlFRUeFYzcLhMH/+539OW1sbjz76KGfOnOHo0aNUVlZy+fJllpeXaWtr47nnnuPAgQOMjY0hpXQcz20GBwcZGhoiGo3y2c9+lkOHDrG1tcXKygqRSISJiQkWFxdpaWnhscceo729naGhIYLBIJFI5C7BstMydP36dYaGhohEInzuc5/j9OnTZDIZYrEYpmkSDof57ne/S0NDg3Mdx44do7q6+h0F7P3Y2SeU8pE5UFtKTRAsK6Ohvp4D+/ZwuKebno4W6qJlyPQGC+MDbK3No6c3EXoWVRoIaYVdSykwTEFBWlFLhgRTWhXrpdNxWpFIb2c0tkpxSITj44JilaCw0i+CFJYDsBR3Z3N+mCcTy3rjOETvvC8Iy19IYiXCNA3nnkpp5XQyiyHxiqKgC5UCKgUEppAgTBSho8osMrdJZmORtdkRUusL+JQcbQ1VHDu0lwM9XbS3txCNhtE8mnUethhyeWBIKclkMmiaRi6Xc4Y/xsbGGBwcZGRkhMnJSaamppifnyeXy9HY2MixY8fYt28f+/bto7Ky8q5OJRwOU1FRQSAQQEpJY2Mj1dXV2164APF4nM3NTYLBIMePH2f//v0cOXKElpYWTNNkfn7eyTlVUVFBd3c3+/fv5/Dhw+RyOdbW1t6X47fLdpqamqipqaFQKODz+ejo6Nj240EIQTAYpKamhsrKSsLh8H3bwL3QdR1d11ldXWVoaIjFxUXm5+dJpVIsLy8zMTFBT08PBw4cYP/+/XR2dlJTU7NzN6RSKa5fv05lZSU9PT3s37+f/fv3c+jQIWZmZlhZWcEoFvusra2lu7ubgwcPOsJqcXGRws9xUE6lUly9epXq6mpn/3v27KGpqQlVVZmammJzc5PDhw9z4MABenp6HIE3ODhIoWDVsywvL6e5uZmenh4OHTpEQ0MD+Xz+vj56mqZRU1NDR0cHe/fu5cCBA7S3tzM+Pk48HiefzztDgAMDA8zOzjI/P8/6+jper5f9+/c7w5QVFRXOsNTw8DBDQ0OMj49z584dRyiurq6STCa3ncPc3By3b99mamqKgYEBhoeHmZ6eZmVlhc3NTUzTJBqN0tbW5jyrmpoatra27tpXKVJKR6QCHDp0aNu903Wd8fFxFEWhp6fH+YEWjUbp6uq6y+L0QfPhiqGSqC6PplIRCbG3s42jB/ZyaE8HzTUR/OQglyS1scLW2hLpzXWknkcpZqQ2pZU/WioahjSt/DdFISStaG/HWmHlTbYi1hyhI4qJHoth3ZYQAGyRYK/7CZic+yCsa7c/U/zsLCvee+umFsPei2ZuRVEQWKU3TEXFEGox4zWAQT6bIBlfIRVfRKZjhNQ8VSGNjqYajuzv4vCBPdTXVhLwe6x6aEK8bRVyeaDouu78Uvb7/RSKhSnz+Tybm5tIKamurqaxsZF4PE4oFKKxsfHnWiOqq6udjmNra4uRkRGn0yslk8ng8Xiora2ltrYWRVEIBoPU1tYSiUScFy9AJBKhpqYGRVGora1FVVVyudzP7dRc3j0HDx7kwIEDKIrC8vIyw8PDrK+vO8/gnbCt96XYud8odoQDAwNOdfN4PE42myWXyzm+QltbW/T09FBWVnbPX/E2hUKB5eVlGhoaiEajKIqCz+eju7vb8TExTROPx0NjYyPhcJhAIEAkEnEqvL/TNdkW07m5ORobG6mqqtpmkTAMg83NTRRFoaury/EhqqmpIRQKsba25hQitdttMBjE7/dTU1ODx+O5b7v1eDw0NDQ4lquysjJqampIp9Pkcjmmp6fp7e1ldHSUWCzm+BQZhkEwGOSZZ56hrq6OTCbD7Owso6OjFAoF1tfXnTJJGxsbjvWqsbHxrlQJth+Pz+djfX2dRCJBdXU1HR0djt9OdXU1VVVVlJWVOdGGFN8p74RhGKyvrxMMBmlpaXHaTFNTE5qmEY/H8Xg8PPnkk9TX15Mr1qsbGRkhn88XDSoPhg9VDCn3cK4SQhAIBGhqauL48eM8/dTTtDY3I0ydeGyFjdgy+WwKs5BBGllUdLyKRJM60rR+NdpDYlJKTOtAoKpIoWLsKPFQ+m/7s2maTtmITxJ2YkohhJOY0r6X9nOy7qkARbWGyoRiDX1hVXv2eq2Kxvl8Do+QqMJAGHlkPksunWAztsrG6gp6NktdTRWPPXqSR0+dYu/evVRUVNxl9ix9Ti4PBln0h9jY2GB8fJza2lrq6uooLy+np6eHb37zm/yjf/SP+Na3vsWv//qv84UvfMGphl0oFO77Ii+lvr6eEydOcODAAW7dusXNmzdZWVnZto4tpqWUjqOtYRjk83l0XXccUXfieYcq2i6/OGVlZXR3d3PixAnC4TA//elPGR0dvWcHZ783bexcVfl8Hor+aKlUynGCNgyDCxcuMDc3x4EDB/iVX/kVnnjiCYLBIKZp5RSznazfSahQbDc+nw+jpHK9WXTy1ooJd+/VbhRFeVcWLLPoc7rzGDaiWLVeFh2s7fO12+07OWh7vd67RGMppmk64sb+niaTSbxeLz6fj5GREfr6+qioqOAf/sN/yKc//WkaGxuh6HwcjUY5ceIEe/bsYW1tjRdffJFU0RH+0KFDfPWrX+Vb3/qWMz399NN3RehpmkZraysvvPCC8x741re+xZe+9CVaWlru+u4JIX6uD5aNfe8MwyCTyTj31W4nHo8HVVWJRCIcP36cvXv3srGxwd/8zd+wtbX1c9vG++Hnn/0HSGmjEkV/ntJGpmka4XCIA3s7+eynnuTTzz5JR0sji7MTDN/pJbY0h5lLosk8Zj6FoRcAE1UVqIolhgq6jm4YVh0toYCwIg/siZKOdpuIeoA3ebdiFsuX2F9++77YnZR9b5BWokvrnlovLevZmRiGjpQGXlVFlQVkLsnm2hJTY8NMDN3BI0weOXqQTz9zlkeOHiAS9OH3WS8EWXxJ2i/DUnZ+dvngyOVyjI2N8eMf/5jNzU06OzvZs2cPAH19fczOzpLNZp31NU2jubmZhYUF+vv7mZ2dLdnbO6NpGm1tbeRyubtM6LavyNDQkNPpxmIxRkZGWFhYcKLLXD5cfD4fjY2NJBIJx4KzE13Xtw1RlpeXk8vlmJycRErpDLNubGw4nXoqlaK6utqxXAwNDZHL5dA0jerqaqLRKC+99BKxWMwZHr0Xfr+fnp4ebt++zezsLIZhkEgkeOONN6iqqqKqqsoZKvpFUFWV8vJy9u3bx82bN5mYmNgmCG2Lk2mavPXWW07U5djYGMvLy3R2duK7T+LRn0c+n2d8fJxYLEY+n2d5eZm+vj66u7sJBALkcjlnCFMIwfT0NOvr6zt34/juxGIxEokETU1NbGxsMDQ0tHPVu6itrcXj8XDt2rV3fA7vFVs0tbW1sba2xs2bNx1rT19fH9lslubm5m1iMhKJUF5eTiwWY2tr657C/IPiQ3WgtsWHjd0Bl3bGUko0VUVTVXw+D9FImKaGOqKRMMmtTVaWF9mKr+P3aHh8fjRVwRrwKmYaUkCxLRhSYphO2Vans9+JfV4P6rp3K7YQ4R73wBGIsuhzJSWmaWAaOlKaqAIUJEgDUy9g6HkWZ8bZXF9Fw6Spvppjhw/S3dFCfU0lAZ8HgUTTrHD5neKr9PjyPp7/7wZ7O/tvwXWgZnFxkcuXLzM3N8etW7e4evUqs7Oz1NbWcvbsWdra2giFQqiqSjqd5saNG1y/fp3Lly8zMzNDRUWFkxF6YWGB69evc+3aNS5dukQkEsHr9bK8vMzU1BTnzp1jcXGR1157jR//+MfcvHkTgPb2dmpqaojH40xOTnLu3DnC4TCqqrK5ucmVK1e4efMm169fRwjB0aNH2bdvn+Pgbee68Xg85PN5bt26RXl5OXv37r3LzP8wYrfn/AN0oP7JT37CD37wA65fv87ExAT19fUcOnQIKSXLy8tUVFTQ0NBAWVkZyWSS8fFxrl+/jsfjIRwOk8/nGR4e5tq1a04klL1NY2Ojc+79/f309fU57W3Pnj20tbXh9XqdbMWXL19mYmIC0zSpr69ncHAQVVWpqamhtraWiooKFhcXGRwc5MqVK/T19ZHP5zl9+jQdHR0kk0lmZ2cJBAJ0dHQQCASIx+MsLS0B0NHRweDgIMPDw3i93rsSfaqqSmVlJYuLi06Cyb6+PjKZDJWVlUQiEQzDYHx8nGvXrnHlyhXm5+epq6vj0UcfpaKiguHhYQrFbOq29WZ6eppMJkM0GnXm2cRiMSYnJzEMg9nZWa5du8bQ0BA+n49z587R2NiIKIbsDw0Ncf78eWf4zHas/pM/+RMuXLjAnTt3SKfTjt9ReXk5iUSC4eFhLl68yKVLlxgfH8fv91NVVbXtPDRNo1AoMDY2xpUrV7h06RKDg4PkcjlqamoYHBx0hvOqqqrI5/NMTU1hmia1tbV37a/Ugdp2wE+lUoyOjnLlyhUuX75MLBajo6ODI0eOAPCnf/qnvPXWW/T395NIJJzr+EXC63f2CaWUOlB/6GLIxu4IS0/UnpRiRJKqCHw+L+XBAKFgkPIyP6FgAJ9HI5NOshbbIJtOIQ0dRRF4NCvizDBLOnlFKVaov/ua3j6e4iSpvp9gejgppiRwklda2OIUACFQFIE0LAdqVZH4PBqYBplUgq34Oon4OplUkupQgIbaKloa62htqqehvobyMj9ej4oirBzhimr5A9nHKx063Xnv7/XMfh47G74rhqx7HIlEaGpqcvxz7CR2dkehaRo+n49oNOo4ydbU1FBfX099fT2hUIjy8nJCoRDRaNRZbgupQCBAbW3ttlDvYDBIXV0dnZ2dtLa2Eo1GCQQCjoOoz+ejrKyMcDhMKBSitraW+vp69u7dy549e4hEIijFSuatra1UV1c7w7p+v5+WlhZn3sOO3Z4fpBjKZDL4/X7nOezbt4/6+noCgQDhcJj6+noikQg+nw+/30+kGBHV0tJCTU2N87miooLW1lY6Ozvp6Oigrq6OcDhMeXk54XCYcDGn1Z49e2hpaaG1tZWKigqnfdniu66ujrq6OqLFZIp1dXVUV1cTDAadNheNRqmsrKS+vt5JDGmLbNvHzY5AU0p80ioqKrh+/TqxWIx9+/ZRVla27V4oikIoFKKsrMw5hn1fKisrCQaDBINBwsXINPu7YPvK2S4IpUPQ9n4rKyupqalx5tkIIQiFQrS1tVFVVUVlZSWNjY3s2bOHrq4u/H4/ZWVljrXEdixua2tz7mE2m3Xunf0dj0ajlJWVOedrf3/t7/bO8/D5fM6zsK+trq7OuXafz0dDQwO1tbUEAgFEceirpqaG6upqAsXUHTZCCOeZl55LJBJxzsW2TtfV1SGKeauqqqqc67ifW8W7YWefUMpHlmfonfb/9jIAA2mPWhUzHyuKgjQleV0nvplgemaGxbUt8nkdKRRUjwd/oBxvIICieSwTEVYUmaKolJbkKLWGlP7d2Rk/7EgptwlB675I7BQFjlAxDcs/S1p/TT1PJpUil02DaeDzaAQCPvZ2tFBVWYHf70NVLfFjGubdEfIlyTFLLUQ728XOz+9E6T5KLUtuniGXjzM7vxsPMs/QJ4l4PM5LL72Ex+PhS1/60vsaVnPZndyvTyilNM/Qe5dZ74P7iY3SDlHa2aZl0TohJYqwYr1M00ARguqqKI8+cpznP/0UjxzpoaLcR3ozxuriNKl4DPQsHmGiSB2jYEUOlHbu9s0p9ZmxBdInCSHENouYNVnzS+8VRh4VA2HqZBJxFmYmWVuaxYNOV0sDZ04d41PnTtHUUEvA70NVBKIYpmftZ+eRLexj3mu4zsXFxeVBsbW1RUNDA52dna4QcoEP24F6Z0dnCxJ2+I2YppV0T1FVZHGoQ0rL30RTBUJamXA8wqC9uY4nHz/J5557ikM9e8hnEowNDzA2PMBWfI1gmQdDtyJgdlqESrmfUHuYeVsAvR1JZj8HWYxqSKVSmHqOhZkJ+m9eZXpihMbqSj7z9Dk+8/QTHNnfRWXIjzAMNEVBVQQU0/ZLR2BaVrq3Jwv7eB6P564IkE/i83BxcflwaG5u5vHHH+fQoUM7F7l8QvlQxdBOSjtfih2grusIRcVEsYqxKiqq5rFyCsmiSFIUS9iYBVQMfB5BZaSMfV1tPPHYSR5/9BFamxtIbW3Sf/MmW1tb28IVd57DTpH2SaFUgCol2b6llOSKdaBWV1eZnhgn4PPy2KnjPP/Zpzlx7ADVFWH8Pg1Ns3y8kDqmad1foQgUTUUoVuFcWczlJAHE21Fspc/iXsLMxcXF5UFQ+iPMxYUPWwy9mw7O6qAVFITzn6KoKMJynBSIYrV6BYQGwooc0zSNUHmQhpoquloaOdDVztGeTo7s68AvE6TXZ9hYGicZm0cUUngViSpAIEAqCKEhpeWfZFe9d4QSIKQJdvJBRUUqGlKoSBRM2+Ih3naOkdIKSf+gJ7soqiklEhNDGhgYSMUEVWIqBlLIYmidVfzdkCYGElMIpKJgCoEuJboEvVgDTkHiEQa5RIyNhQm2FsbxZGN0VPk4tKeNw/s62NfVSmtTA1UVYXw+D0KxEjWiqMXCukX/I1tc2sNwxcduP/57ic/Sz/da7uLi4uLi8qD4UMXQz8O2UFj96dsdogAr4smKC8Ny8FVA0axJqIC1nSog6PfSWFvJwb2dPHb8MB0NUWpDGgGRQ0/H2Iotktxco5BJYup5yynYsISOsE4EdvgyIRSQIE2JYVrFSw0psAP3pd15l27jKIEPZhLFczAME1Oa1nlaDlVIAaaQmMW6YPY5SWGVLDGltcyy0Fj/gcQwdPK5DJlEnMTGCtnNVTQ9SWUA2mtDHGqr5cThvXS1NxEpL3MajFCK52OLIcUSQztFjKOJSmY7IvOude+e5+Li8vFBFhNo3rlzh+Xl5Q80T81uZnh4mLm5uV+4PMzs7CxjY2NOAeTdhp3zqLe3l+vXr5NIJHau4mCaJslkklu3brG+vv6xaQO7Sgw9CFRV5dCBQzzx+BlOHDtGTWUV8fU1lhdm2VxfIZuMk89uoecSCFlAUyQe1Qond5yrUZBCs0qAoKDrBYxCAdMoWENDWGNBpmnlNbKP+0GjakoxEMsECaqioaleFMULporUFaSuYEoFQ1p/BQqqECgSFMNE6AUUQ0eTBoqegXyS7FaM2Mo8K4tzBLwqBw/s58wTZzh67CgV1e8vgZmLi8snBzsB4l/8xV/Q19f3C4uDjxt/9Vd/xaVLl9ja2tq56F1x4cIFfvzjHxOLxe5y5dgNbGxscOPGDb73ve/x/e9/n9XV1Z2rOOi6ztLSEv/zf/5PxsfH31XG+t3AQy+GAIQEr6rSUFPNqeNHeeHzn+XRE0fweyQr8xMsTA2TS62imnmMfJpCNgVGHr/Hg+bxohsGmVyevAmaP4imamiKQBUCISWKtMSPUsyCbZhFq02xxMUHNRV0HaEoeH0+vF4vhiHJZ/PoWQMMBU148ah+NC2AIjSQAiFBUzX8moZPBQ86qp5H5DIsTY+wODFIbmuNxpoIzz15hrNnTtHe1ozP60U3JIrHu92s4+Li4uLyiWJmZobV1VUef/xxfvd3f5e2tradq3zseSjF0F3DMIZlTFGFgt/nIRoK0NnSwGOPHOHcmUc4sK8NxUgzMXKHlblp8qlNhJFHL2Qw9DyqquLz+1A9HvK6jiJAUxWrsDpmsUaaafk6FXMa2X5HHySmqTsJJS29JVAVD6qiIVAxDYFRAEM3MEwTaZoIKRGmiZnPkN5cZ31xnsXpcebGR2irq+TxRw7z5GMnOHGoh7rqKAGfF01VUDUFRVXQdfMDvw4XFxcXl48PyWSSbDZLRUUFwWDwgYx8fNR8qBmoPwosB2nng+Nmo6mCYJmfcHkZoWCAUJmfgC+AqgiymQyJrQS5XNaKOtA0FFUFCbqho5oFVCFRAClNTNOwjoOwCsViORaLD1hFSGFbiQAEirAyOyMB0/J38qgaEh0FExUTU8+TTW6ytb5KNhHHo0hqK8K0NdfT0dpAfV0V0UiYsjK7tIl1z4R1CBDC8g/aeTK7FMfPrPjXzUDt8jBgt+cHmYHaJh6Pc+HCBWSxWKnH4yGdTju1xrxeLysrK1y6dIn+/n6GhoZYWlpCFDMNZ7NZrly5QmtrK62trUgpWVhY4MaNG/T39zMwMMDMzAyaplFWVkY2m2VkZIQbN25gGAZXr14lXyz4Ojc3x5tvvsnQ0JDjk2NXtZ+cnOTWrVvcunWLmZkZVFWlrKzMGdZPJBK89dZbmKaJr2hNz2QyznVomoZhGExNTfHGG284x8hms/j9flKpFOfPn2dlZYX5+XkGBweJRqOsra3R19fHjRs3GB8fZ2Njg9u3b1NfX097eztSSqeUhH2tmUyG2tpahBDEYjEGBwe5fPkyQ0NDrK2tMTo6ihCC/fv3Ew6HWVtbo7e3l2vXrjE6Osry8nJxNMBgcnKSq1evYhgG169fJ51OI4RgaWmJK1eucPv2bQYHB1leXrYCi0KhbX16Op3m/Pnz5PN5574UCgXm5uZYXFxECLEtI/eNGze4efMmi4uLpNNp4vE4lZWVzM3NcfXqVacNrK6u4vV6KSsrc0rsHDlyhJqaGpLJpFPWZHBwkM3NTaf47NLSErdu3aK3t5eBgQEmJiacc3g3hXV/Hjv7hFI+snIcHzSyKDbe8XwFloWk2LHjRHpJhAKqohDweamIRqmprsXv8yKlQSGfo5DLoes6RiGPqesIaaIJwMijCKwSE3bdLns4q6i4RNER/ANFVS1HbWk5alvlNIoSTFqu3FaenyxGPk0ulSCTjJPPJPFgECkP0FRfTWd7C50drZSX+/F4NBT7RIVwRsSktCLSbIf2jws7G74rhlweBj5MMbSxscH58+cpFApOmYxYLMYrr7yC1+ulsrKSVCrF+Pg46+vrJBIJ5ufnAairq8M0TUcMNTQ0EI/HuXjxItPT02xtbZFIJFhbW2NtbY26ujqn1tyFCxeIRqMsLS0RCATIZDKOY3I2m2Vzc3Nb0dibN2+ysLBAIpHAMAxqamqIRqOOGNra2uKNN96gUCgQjUYJhUJsbGzws5/9DE3TCAaDxONxp/jwzmNIKfnBD37A1taW4wtVXV1Nb28vExMTbGxsOAWI5+bmaG5upr29HUVRuHPnDuvr6056krW1NTo6OtB1ncHBQfr6+lhdXXVyudnXvG/fPjRNo7+/n7GxMWKxGJlMhlgshhCWH+vY2BivvfYakUiE5eVlfD4fmUyGvr4+5ubmHMESi8VIJpM0NDTg8XhQiqUsUqkUb775Jtls1inPkclkuHjxIqlUimg0SiQSce7z8PAwU1NTJBIJVFV1iq3G43GmpqbY2NggkUgwNzfn1DpLp9OOGCorK2Nubo7+/n42NzdJpVJOGR7DMLh06RKTk5PE43ESiQSrq6vEYjGqqqooLy9/31aonX1CKQ+NGNrJ/c7b1AuWOFEEEokpTafGkZQmpmEJGY/qoSIaprG+jtqaGjANNuMxkpsbFHKpYk4j60siBKiKiqapKIqKYVp5kCxBoVrH+6AtQwgUVUURCtI00fU8qgBNBUWYGHqObDaBLCRIba6ytbFCIZsgGg5ysKeL/T1dtDTXEywLYOh68X4U2RbJVSK0LBX59knscnY2fFcMuTwMfJhiiOLxJicnnZpjCwsLvPHGG5w5c4a6ujoqKyvZs2cPBw4coKuri9nZWTY3N53aVLYYikajjI+P87d/+7ecO3eOT33qU5w4cQKfz8dLL71EU1OTU+h3aWmJffv28elPf5pwOOx0wp/97Gc5fvw4Ho+H5eVlFhYW8Pl8TE1Ncfz4cT7zmc9w9OhRamtr7wr2UFWVyclJqqqqiEajLC8v88orr/DYY4/h8/kYGhpiYmKCz3zmMxw/ftw5l5WVFZqbm+nr6yMajXLq1CnOnDlDPB7n9ddfZ8+ePXzxi1/k+PHjTsFW2zIUjUbp7Oykp6eHPXv2oOs6Q0ND1NfXk06nuX79OqZp8pWvfIWnnnoKj8fD/Pw8Qgi6urrY2tri/Pnz1NXVce7cOfbu3cvW1hYzMzN4vV7y+TwzMzPs27eP5557jsrKSoaGhujv7+czn/kMzz77LAcPHiSTyXD16lWam5sJh8PbrCyKojAzM+PUDNvc3OSnP/0pBw4coKWlBZ/P56zb3t5OOp3GNE2eeOIJnnvuOUKhkNMGenp66OrqYmBgAMMwqKioAHDEkBCC2dlZEokEX/nKV3jsscfo7u5G0zTGxsZ46aWXOH78OJ/+9KedIrcvv/wyFRUVVFZW3lU37r2ys08o5RMnhoRiLbMDykXRciOlsELyhYJWdIC2un6Bz6tRV1tFZ2srNRVh0HPElueZnxonUB7G0E3HS17zeJAIpBSWZUix/lq5iT44QWRgWYWkaWKaOqZZwKsJVGGiFzIkExvE4yusLUwQ9Kv07Ong1PEj7OvuoKIijKbYVjKBpqlIRcWQAt0EU5oIRUUUfxE5flAKRTF073u729jZ8F0x5PIw8GGKIUVR8Pv9vPLKK1RXV+P1epmbm2Nzc5PHHnuMcDjM4uIiFy9e5I033uCnP/2p07G2trZSXl7uiKFAIMDS0hLhcJgnnniCyspKvF4vHo+HZDJp+WP6fGxsbBCPx/nCF75AKBRieXnZ6eBv3brF+fPnuX37NrFYjIqKCj73uc+RyWRYW1sjnU4TDoe3deD2dZSVlfH6668TDocdC8XGxgaPPfYY2WyWwcHBbcfo7+9nbW0Nv9/Pnj176OvrY9++fRw+fBgpJePj46iq6ogGj8dDXV0dV69epaqqyqkVd/nyZS5cuMDLL79Mb28vQgi6u7utjP6mSVtbG/v370cpFm6dmpoinU7T2dnJ6uoqfX19DAwMcPXqVafCfC6Xo76+Hikly8vLfOELXyAajbK4uMjq6ip1dXWcOXMGv9+P3++H4pCYYRhOwV37vlRUVPDmm2/i8/moqqpiaWmJkZERTp8+7QznlTIxMcH6+jqNjY00NDSgKAqTk5NcvHiR119/nZ/85CcsLy9TU1NDU1MTiqI4Yqirq4tQKEQikWBmZsYpOJtIJBgfHycYDHL69Gnq6urweDwEAgESiQRKscC0La5+UXb2CaWUiqGH0oH6LgQU0w461g4nfZCwVsjnwShaiISQqIqCR1Mp83toqKviUE83Zx89zjNnToFpsrq2yvLyIuvrMfK5XHE7y79G7qz8/gEhhGL5JBXFjNfrIZGIMzU9xtTUKJlsnKamap4+9yhPnD5Od0czkVAArwcUYVi5EVUBQmKgUwBMRUGoKkLVLEGHlStIURUriaJTMdfFxeWTgKZpRKNRWltbnULHW1tbHD16lLKyMubn5+nr62N5eZmTJ0/yq7/6qxw/fpxgMLhzV9YPKym3ldwRQqCqKpqmbXtPWj/SrHWklESjUU6fPs0//sf/mG9961v8k3/yT/jN3/xNPve5z+HxeDh8+DCnT59GVVVeeeUV+vv7t+XpUVWVSCRCS0sLuVyOyclJNjY2OHr0KMFgECklkUiERx99dNsx/tE/+kd8/vOfdzpPVVVRVRVZLB+lKIozskBJ4W+KQ4z9/f309/fT2trKL/3SLzmWLntde3t72Kr0HtjHaG9v54tf/CLf+ta3+Na3vsVv/dZv8Wu/9mv09PQ4x7LvlX18TdOc87Lvsaqqd/VFiqIQCATo6OgAYGRkhOnpaQ4ePHiXf9H9mJycpL+/n2QyyZkzZ/iN3/gN9u3b54iwUhRFoba2ltOnT/Poo48yPDzMhQsXmJ6exjRNNE1D0zTLJaOYa1DTNKftfFh8rMWQ/dDt6X4U81hbk72+be9wkigX/WWU4sxifkehgM/vI1oZpbG5kY6uDg50N3N0bwsd9VFUPcXSzCgbK7PkM5sIM48qdVRhIBUFKexJYG47KIDElIYV+1+0W72dINHKHm0iMIWCVBQ8po7XyCMzCVJry6zOTJDdWKWqzMO+9gYO72mnp62R9pZWamvqKA+GUFXNuXYri7dlCROoqIAKaEKgCuXthIpCsYb6hL2Gi4vLJwUhBF6v1xmyGRgYIBaLsW/fPnw+H1tbW8TjcRRFoaenh8bGRjRNQ9f1nbtyrBRTU1PMzc2RSqXI5XJWmZ/paYLB4D070EAggKIojjVk3759HDhwgH379tHc3AxANBqlpqaG8vJyR7SV5jUSQuDxeOjo6CCVSjEwMMDq6io9PT34/X4CgQCqqpLNZqmrq2Pv3r13HaMU29JkD+ltbm6ysbHB9evXSaVSAI61KpPJ0NLSQltbG6FQyBlF8Pv9bG5usrCwQDweJ5PJMDAwwMrKChSFVzgcJpPJ4PP5aGtr48CBAxw4cIDu7u5tvjw25eXlCCGYmppifn6eXC5HOp12zrOysvIuR2RFUWhvbyeXyzk+UPv376e8vHzbevdjY2ODzc1N/H4/e/fupaGhASHEfRMser1eqqurnaHMtbU1Njc3CYfDzM3NOcNotuVzenoar9frWLM+DD7WYujdY3fudgZrW5QU/ylA02xBZAuVIpYpyaqR5vHhKwvS3VrPsf2dHNnbTkdDJWGfgmZkyac2SMVXyWzFkPkMSMMRVLZn8tvZn63oMOxfBqJY00u1Eiva60lMpDQwDJ3sVozsxiqFrXVkNoGfAvUV5RzoauP4/r0c7GqnsSqKz+tHCK0oZNRiyRIrS7eVqdsSRhoCzZlbektsVagUs3vfX2i6uLg8fAghnM5ydXUVVVWpq6tD0zT8fj+hUAhFUZiYmGBwcJC1tbV7JtcrLy+nrq4OKaUTHXXt2jUGBgYQQlBXV3dPi1IkEiEUCrG1tcWVK1e4fv26E721ubnJ2toat2/f5saNGywtLVFeXo7f73esLaW0tbU5GZQVRXGGY8LhMOFwmGQyyZUrV7hx4wY3btxgbGzMETeleDweZwhpfHycq1evcuPGDYaHhx2LlMfjIRQKEQ6HWVpaYnh4mJmZGUekVVZWOhFUly9f5tq1/3979/fTxpUFcPx778zYBmMMZUnAgZjwWyTZtbbtttK2zbYPm5V2V4q6L9Gqf1//gT70JQ+VqkRquqCoPxxoExLa4iWUQDAmBnvm3n24MxOHkqpBu9E2Ph80CrLHMx57sE/unHvOv7h9+zY7OzsQj+6MjIzg+z73799P97G0tMTm5mY6y67TwMAAQ0NDHBwc8Nlnn7G4uMjnn3/O6uoqQRAwNjb2k0uIxM1qjTHUajWiKKJUKh273nF6e3spFAppvlS1WmVnZ+fYYGh/f5/vvvsuPY4wDMnn8/T39zM6OorneeklwcXFRW7dukUYhpw6deqFpjW8VDlDL4oJQ7T26M33cXpkhPLEObKZDHv1XR5tP6TZqOMpN9XdUxZPuzYhWFf7h3jWWRKchVGE1h6+H+B5GpdxZNAYbBTSjmeGPdpap9msk814nDlzmkrlAjPTEwwMFPE8l1StPT+Jvo4+7a6QnLvJv5IzJF4Gyfn8InKGiPeX5NgkOTJnz55FKZWO5GxsbPDpp5+meSnDw8OMjY3R19fHysoK5XKZcrlMsVikr6+PL7/8kq+//ppvv/2Wg4MD3nvvPWZnZ9Fas7m5SbPZpFKppCMC2WyWw8NDrl+/zvLyMtVqNc0P2tjY4Nq1aywtLVGv1ymVSlQqFfr7+38SEPX09FCr1QBYWFhgYmICpRTZbJZsNkur1eLGjRvpPvb39xkeHiYIAu7du8f4+HgaUBSLRYwxrK2t8cUXX7C5ucnMzAx7e3uMj48zOTnJ4OAgjUaDxcVFarUaYRhSKBSYnJykXC6Ty+XY2tpicXGRO3fupKMqhUKBubm5NOhcW1tjaWmJarVKtVpNk4kbjQa7u7tUKpV0hCufz6OU4ubNm6ysrHD37l2y2Sxvv/02U1NT+Md0Ecjn86yurrK7u8vFixeZnZ3Fe8bMrVqtRrPZpFQqpQFsGIZ8//333Lx5k4ODA6y1jI6OUiqVCIKAb775hvPnzxNFEbdu3eLatWtUq1VyuRzT09PMzMykM8aWl5f56quv0rIH77zzDvPz8xQKhaNP5bkd/U7o1JkzpGzHRbnOa7fiZ3ROo8eNJEWRIQwjHu3u8cN6jXtr99nZa5HL5ykOvEK+r4gXBFjl+nhZpQmNJWyH7tq5NZgohCjE14rAV5iwzV79EQ9/fMDOw23efOO3jJw+RbG/QCHfS+B7rgo27kqbtYYoauP5ma57DzvPXdvR9T4ZPv/444+5evXqscPfQvy/OvqZ3Gg0WFlZYXV1lddffz1N2P1fsNbSarXSvI7kUou1liiKXNmRKEJrV15Ex53gtdY0m800T4i4RUO73X7qeJL7rbXptnK5XHqsxrhJKp2X35JcI2ttuj0d5+AkeSfHabVaRFH01HHwM/tI1jk8PEwf0/kfrDAM01ydIAgIQ/c5nhxvu91OR0mSxwVBgOd5T712xKNBJp7Ykslk0Fqnr1dnPlJyX/L4zpEwY0z6mETyfhwXCCU++ugj1tfXuXz5MuVy+ZmvX3I8yTE+6xxI3geAg4MDstksSinCMExf42SdJL8pDENarVZ6bhAfqx/nRJ3Us74TOn344YecOXOGS5cuSTB0EmFkXB6Sdq1j3W1ttFJEJqL5uEmjXme3GVHb+JEHm1s0Wy0KxUH6h04TZHNEeIQmbqZqresfpiw2bNFs1GnsPiRqHVLo7WHk1G8YOf0KA4N9ZLPuJPE9z7WmtTbOAYpnmlnjEp+7zLNOfAmGxK/Z0c/kFxkMiZfb6uoqN27cwPd9rly5kgYuL4tnfSd06gyGuu9b879AqTivyCb5PzZuHm8IPEV/oYeRkSHOnR1lfrrMhfkppifGyPrwaGuDzY116js/YtpNsj5kPMvh4zrbmzW2HqwTHu5zeqjI3NQ45+cmmJsa59z4KIP9veQyGk9FYEJUPDsuGaky1nZPGpgQQojn9vjxYz755BOuX79OJpNJE8qPCxa6iXxznoBKihEqF31ajKtR5CITXMFCRTbjMToyxML8NJWLC0yVzzDYl8M3LdrNOo93t9jd+jd72w9o1h9iWvv0BorS8ADnZ6eoXJhnbvocQ68UXYVpiyvkGC/GWGzcA83aeM/dfT4LIYT4GVEUsb29jVKKyclJZmZmjq7SlSQYOgFj4nYeac0i17rC3eBh0VjjcnlMFGFMm3xPhvPz01x66w1e/d0CI4MFDusP+eHObdbvLpOxLS7MnOPdt/7AG69eYPTUIBnfw5gIbBJsaTwdEHgZPO1jIpM2UlVaxescfbZCCCGEUygUeP/99/nggw947bXXjp3N140kGDoB3wOLm+4eWYPSPhYfo7w4QTpABTlQrnhUEARpE9SsryiPDvPm7y/wtz//iatX/so///F3/vLuH1mYOUuxN4M2BhNFKIWbXaY1KI01HibysJGHsj5B4Cq5Kq0xxrUZEUIIIcTzkWDohHRcKVPHbT5aYURkXMuMCEULRWRdPzE3hR6sjbBRG60MuaxHf1+WocE8g8Veens8Am3RNnIVsJOaR/GMNWsVyrryiUmytAnd7cR5TIp4lEoIIYQQv5gEQyfiAhyt4orWgKeV62Qfhy8aOoo8usKN7nFxEUcVTwcNAlclOlk3rajttv1kf/HGkyUu5hhvziVwK7lMJoQQQjwvCYZO5MmITfLja+2mx8d1nwPlRo+eDmg0Svsd1aCTdhfx7ype0pAqWX6yW1ccOgmGnrpboiEhhBDieUgwJIQQQoiuJsGQEEIIIbqaBENCCCGE6GoSDAkhhBCiq0kwJIQQQoiuJsGQEEIIIbqaBENCCCGE6GoSDAkhhBCiq2lwndcT1lqMkR5X4tclKW5pjEnPYWvtU4sQv2by2SzEL9f59/Kk+PGT+6y1cdcGd99/AElerWUGmqUrAAAAAElFTkSuQmCC;" vertex="1" parent="1">
          <mxGeometry x="270" y="80" width="558.98" height="520.36" as="geometry" />
        </mxCell>
      </root>
    </mxGraphModel>
  </diagram>
  <diagram id="MPqksqcIy2ZuM_kp8P7v" name="EJEMPLO SIMPLE">
    <mxGraphModel dx="1195" dy="620" grid="1" gridSize="10" guides="1" tooltips="1" connect="1" arrows="1" fold="1" page="1" pageScale="1" pageWidth="827" pageHeight="1169" math="0" shadow="0">
      <root>
        <mxCell id="0" />
        <mxCell id="1" parent="0" />
        <mxCell id="MBmeEufGMeMU8RyilncT-6" value="" style="edgeStyle=orthogonalEdgeStyle;rounded=0;orthogonalLoop=1;jettySize=auto;html=1;" edge="1" parent="1" source="ug2YCcVlQeoIblHzd6tj-1" target="ug2YCcVlQeoIblHzd6tj-2">
          <mxGeometry relative="1" as="geometry" />
        </mxCell>
        <mxCell id="ug2YCcVlQeoIblHzd6tj-1" value="INICIO" style="ellipse;whiteSpace=wrap;html=1;" vertex="1" parent="1">
          <mxGeometry x="235" y="110" width="120" height="80" as="geometry" />
        </mxCell>
        <mxCell id="ug2YCcVlQeoIblHzd6tj-2" value="SUMAR 2 NUMEROS" style="rounded=0;whiteSpace=wrap;html=1;" vertex="1" parent="1">
          <mxGeometry x="217.5" y="220" width="155" height="70" as="geometry" />
        </mxCell>
        <mxCell id="ug2YCcVlQeoIblHzd6tj-3" value="MOSTRSTAR&amp;nbsp;&lt;div&gt;RESULTADOS&lt;/div&gt;" style="shape=parallelogram;perimeter=parallelogramPerimeter;whiteSpace=wrap;html=1;fixedSize=1;" vertex="1" parent="1">
          <mxGeometry x="207.5" y="330" width="175" height="70" as="geometry" />
        </mxCell>
        <mxCell id="fG5b_MlKI57vzW__YD2d-1" style="edgeStyle=orthogonalEdgeStyle;rounded=0;orthogonalLoop=1;jettySize=auto;html=1;entryX=0.5;entryY=0;entryDx=0;entryDy=0;" edge="1" parent="1" source="ug2YCcVlQeoIblHzd6tj-4" target="ug2YCcVlQeoIblHzd6tj-8">
          <mxGeometry relative="1" as="geometry" />
        </mxCell>
        <mxCell id="fG5b_MlKI57vzW__YD2d-2" style="edgeStyle=orthogonalEdgeStyle;rounded=0;orthogonalLoop=1;jettySize=auto;html=1;entryX=0.5;entryY=0;entryDx=0;entryDy=0;" edge="1" parent="1" source="ug2YCcVlQeoIblHzd6tj-4" target="ug2YCcVlQeoIblHzd6tj-9">
          <mxGeometry relative="1" as="geometry" />
        </mxCell>
        <mxCell id="ug2YCcVlQeoIblHzd6tj-4" value="MAYOR A 10" style="rhombus;whiteSpace=wrap;html=1;" vertex="1" parent="1">
          <mxGeometry x="237.5" y="420" width="115" height="120" as="geometry" />
        </mxCell>
        <mxCell id="fG5b_MlKI57vzW__YD2d-6" style="edgeStyle=orthogonalEdgeStyle;rounded=0;orthogonalLoop=1;jettySize=auto;html=1;entryX=0;entryY=0.5;entryDx=0;entryDy=0;exitX=0.5;exitY=1;exitDx=0;exitDy=0;" edge="1" parent="1" source="ug2YCcVlQeoIblHzd6tj-8" target="MBmeEufGMeMU8RyilncT-7">
          <mxGeometry relative="1" as="geometry" />
        </mxCell>
        <mxCell id="ug2YCcVlQeoIblHzd6tj-8" value="ES MAYOR" style="rounded=0;whiteSpace=wrap;html=1;" vertex="1" parent="1">
          <mxGeometry x="110" y="530" width="97.5" height="60" as="geometry" />
        </mxCell>
        <mxCell id="fG5b_MlKI57vzW__YD2d-3" style="edgeStyle=orthogonalEdgeStyle;rounded=0;orthogonalLoop=1;jettySize=auto;html=1;entryX=1;entryY=0.5;entryDx=0;entryDy=0;" edge="1" parent="1" source="ug2YCcVlQeoIblHzd6tj-9" target="MBmeEufGMeMU8RyilncT-7">
          <mxGeometry relative="1" as="geometry">
            <Array as="points">
              <mxPoint x="450" y="650" />
            </Array>
          </mxGeometry>
        </mxCell>
        <mxCell id="ug2YCcVlQeoIblHzd6tj-9" value="ES MENOR" style="rounded=0;whiteSpace=wrap;html=1;" vertex="1" parent="1">
          <mxGeometry x="400" y="525" width="100" height="60" as="geometry" />
        </mxCell>
        <mxCell id="MBmeEufGMeMU8RyilncT-3" value="" style="endArrow=classic;html=1;rounded=0;exitX=0.5;exitY=1;exitDx=0;exitDy=0;entryX=0.509;entryY=0.064;entryDx=0;entryDy=0;entryPerimeter=0;" edge="1" parent="1" source="ug2YCcVlQeoIblHzd6tj-3" target="ug2YCcVlQeoIblHzd6tj-4">
          <mxGeometry width="50" height="50" relative="1" as="geometry">
            <mxPoint x="650" y="470" as="sourcePoint" />
            <mxPoint x="700" y="420" as="targetPoint" />
          </mxGeometry>
        </mxCell>
        <mxCell id="MBmeEufGMeMU8RyilncT-5" value="" style="endArrow=classic;html=1;rounded=0;exitX=0.5;exitY=1;exitDx=0;exitDy=0;entryX=0.5;entryY=0;entryDx=0;entryDy=0;" edge="1" parent="1" source="ug2YCcVlQeoIblHzd6tj-2" target="ug2YCcVlQeoIblHzd6tj-3">
          <mxGeometry width="50" height="50" relative="1" as="geometry">
            <mxPoint x="305" y="460" as="sourcePoint" />
            <mxPoint x="306" y="517" as="targetPoint" />
            <Array as="points" />
          </mxGeometry>
        </mxCell>
        <mxCell id="MBmeEufGMeMU8RyilncT-7" value="FIN" style="ellipse;whiteSpace=wrap;html=1;" vertex="1" parent="1">
          <mxGeometry x="240" y="610" width="120" height="80" as="geometry" />
        </mxCell>
        <mxCell id="fG5b_MlKI57vzW__YD2d-7" value="SI" style="text;html=1;align=center;verticalAlign=middle;whiteSpace=wrap;rounded=0;" vertex="1" parent="1">
          <mxGeometry x="170" y="440" width="60" height="30" as="geometry" />
        </mxCell>
        <mxCell id="fG5b_MlKI57vzW__YD2d-8" value="NO" style="text;html=1;align=center;verticalAlign=middle;whiteSpace=wrap;rounded=0;" vertex="1" parent="1">
          <mxGeometry x="370" y="440" width="60" height="30" as="geometry" />
        </mxCell>
      </root>
    </mxGraphModel>
  </diagram>
  <diagram id="3JU5txHCt41-b48olnSB" name="EJERCICIO SIMPLE">
    <mxGraphModel dx="1434" dy="744" grid="1" gridSize="10" guides="1" tooltips="1" connect="1" arrows="1" fold="1" page="1" pageScale="1" pageWidth="827" pageHeight="1169" math="0" shadow="0">
      <root>
        <mxCell id="0" />
        <mxCell id="1" parent="0" />
        <mxCell id="J1vI3j59w8CmmMj-XzjG-1" value="" style="edgeStyle=orthogonalEdgeStyle;rounded=0;orthogonalLoop=1;jettySize=auto;html=1;" edge="1" parent="1" source="J1vI3j59w8CmmMj-XzjG-2" target="J1vI3j59w8CmmMj-XzjG-3">
          <mxGeometry relative="1" as="geometry" />
        </mxCell>
        <mxCell id="J1vI3j59w8CmmMj-XzjG-2" value="INICIO" style="ellipse;whiteSpace=wrap;html=1;" vertex="1" parent="1">
          <mxGeometry x="235" y="110" width="120" height="80" as="geometry" />
        </mxCell>
        <mxCell id="J1vI3j59w8CmmMj-XzjG-3" value="INGRESAR EDAD" style="rounded=0;whiteSpace=wrap;html=1;" vertex="1" parent="1">
          <mxGeometry x="217.5" y="220" width="155" height="70" as="geometry" />
        </mxCell>
        <mxCell id="J1vI3j59w8CmmMj-XzjG-18" style="edgeStyle=orthogonalEdgeStyle;rounded=0;orthogonalLoop=1;jettySize=auto;html=1;entryX=0.5;entryY=0;entryDx=0;entryDy=0;exitX=0;exitY=0.5;exitDx=0;exitDy=0;" edge="1" parent="1" source="J1vI3j59w8CmmMj-XzjG-7" target="J1vI3j59w8CmmMj-XzjG-17">
          <mxGeometry relative="1" as="geometry" />
        </mxCell>
        <mxCell id="J1vI3j59w8CmmMj-XzjG-20" style="edgeStyle=orthogonalEdgeStyle;rounded=0;orthogonalLoop=1;jettySize=auto;html=1;entryX=0.5;entryY=0;entryDx=0;entryDy=0;" edge="1" parent="1" source="J1vI3j59w8CmmMj-XzjG-7" target="J1vI3j59w8CmmMj-XzjG-19">
          <mxGeometry relative="1" as="geometry" />
        </mxCell>
        <mxCell id="J1vI3j59w8CmmMj-XzjG-7" value="¿EDAD &amp;gt;= 18?" style="rhombus;whiteSpace=wrap;html=1;" vertex="1" parent="1">
          <mxGeometry x="237.5" y="340" width="115" height="120" as="geometry" />
        </mxCell>
        <mxCell id="J1vI3j59w8CmmMj-XzjG-13" value="" style="endArrow=classic;html=1;rounded=0;exitX=0.5;exitY=1;exitDx=0;exitDy=0;entryX=0.5;entryY=0;entryDx=0;entryDy=0;" edge="1" parent="1" source="J1vI3j59w8CmmMj-XzjG-3" target="J1vI3j59w8CmmMj-XzjG-7">
          <mxGeometry width="50" height="50" relative="1" as="geometry">
            <mxPoint x="305" y="460" as="sourcePoint" />
            <mxPoint x="295" y="330" as="targetPoint" />
            <Array as="points" />
          </mxGeometry>
        </mxCell>
        <mxCell id="J1vI3j59w8CmmMj-XzjG-14" value="FIN" style="ellipse;whiteSpace=wrap;html=1;" vertex="1" parent="1">
          <mxGeometry x="240" y="530" width="120" height="80" as="geometry" />
        </mxCell>
        <mxCell id="J1vI3j59w8CmmMj-XzjG-15" value="SI" style="text;html=1;align=center;verticalAlign=middle;whiteSpace=wrap;rounded=0;" vertex="1" parent="1">
          <mxGeometry x="170" y="360" width="60" height="30" as="geometry" />
        </mxCell>
        <mxCell id="J1vI3j59w8CmmMj-XzjG-16" value="NO" style="text;html=1;align=center;verticalAlign=middle;whiteSpace=wrap;rounded=0;" vertex="1" parent="1">
          <mxGeometry x="370" y="360" width="60" height="30" as="geometry" />
        </mxCell>
        <mxCell id="J1vI3j59w8CmmMj-XzjG-22" style="edgeStyle=orthogonalEdgeStyle;rounded=0;orthogonalLoop=1;jettySize=auto;html=1;entryX=0;entryY=0.5;entryDx=0;entryDy=0;" edge="1" parent="1" source="J1vI3j59w8CmmMj-XzjG-17" target="J1vI3j59w8CmmMj-XzjG-14">
          <mxGeometry relative="1" as="geometry">
            <Array as="points">
              <mxPoint x="160" y="570" />
            </Array>
          </mxGeometry>
        </mxCell>
        <mxCell id="J1vI3j59w8CmmMj-XzjG-17" value="&quot;MAYOR DE EDAD&quot;" style="shape=parallelogram;perimeter=parallelogramPerimeter;whiteSpace=wrap;html=1;fixedSize=1;" vertex="1" parent="1">
          <mxGeometry x="87.5" y="445" width="150" height="65" as="geometry" />
        </mxCell>
        <mxCell id="J1vI3j59w8CmmMj-XzjG-21" style="edgeStyle=orthogonalEdgeStyle;rounded=0;orthogonalLoop=1;jettySize=auto;html=1;entryX=1;entryY=0.5;entryDx=0;entryDy=0;exitX=0.5;exitY=1;exitDx=0;exitDy=0;" edge="1" parent="1" source="J1vI3j59w8CmmMj-XzjG-19" target="J1vI3j59w8CmmMj-XzjG-14">
          <mxGeometry relative="1" as="geometry" />
        </mxCell>
        <mxCell id="J1vI3j59w8CmmMj-XzjG-19" value="&quot;MENOR DE EDAD&quot;" style="shape=parallelogram;perimeter=parallelogramPerimeter;whiteSpace=wrap;html=1;fixedSize=1;" vertex="1" parent="1">
          <mxGeometry x="372.5" y="440" width="150" height="65" as="geometry" />
        </mxCell>
        <mxCell id="AjiN0Z069ZsiuTFy3XNu-1" value="" style="shape=parallelogram;perimeter=parallelogramPerimeter;whiteSpace=wrap;html=1;fixedSize=1;" vertex="1" parent="1">
          <mxGeometry x="580" y="70" width="120" height="60" as="geometry" />
        </mxCell>
      </root>
    </mxGraphModel>
  </diagram>
  <diagram id="WGMyIArcNyL-89MmRm67" name="IF ANIDADOS">
    <mxGraphModel dx="1426" dy="749" grid="1" gridSize="10" guides="1" tooltips="1" connect="1" arrows="1" fold="1" page="1" pageScale="1" pageWidth="827" pageHeight="1169" math="0" shadow="0">
      <root>
        <mxCell id="0" />
        <mxCell id="1" parent="0" />
        <mxCell id="h87FwB2Uaeqy7M7Bm88e-1" value="" style="edgeStyle=orthogonalEdgeStyle;rounded=0;orthogonalLoop=1;jettySize=auto;html=1;" parent="1" source="h87FwB2Uaeqy7M7Bm88e-2" edge="1">
          <mxGeometry relative="1" as="geometry">
            <mxPoint x="295" y="220" as="targetPoint" />
          </mxGeometry>
        </mxCell>
        <mxCell id="h87FwB2Uaeqy7M7Bm88e-2" value="INICIO" style="ellipse;whiteSpace=wrap;html=1;" parent="1" vertex="1">
          <mxGeometry x="235" y="110" width="120" height="80" as="geometry" />
        </mxCell>
        <mxCell id="h87FwB2Uaeqy7M7Bm88e-4" style="edgeStyle=orthogonalEdgeStyle;rounded=0;orthogonalLoop=1;jettySize=auto;html=1;entryX=0.5;entryY=0;entryDx=0;entryDy=0;exitX=0;exitY=0.5;exitDx=0;exitDy=0;" parent="1" source="h87FwB2Uaeqy7M7Bm88e-6" target="h87FwB2Uaeqy7M7Bm88e-12" edge="1">
          <mxGeometry relative="1" as="geometry" />
        </mxCell>
        <mxCell id="2gz5QPZl2KIQWmSaZGrW-6" style="edgeStyle=orthogonalEdgeStyle;rounded=0;orthogonalLoop=1;jettySize=auto;html=1;entryX=0.5;entryY=0;entryDx=0;entryDy=0;" parent="1" source="h87FwB2Uaeqy7M7Bm88e-6" target="2gz5QPZl2KIQWmSaZGrW-2" edge="1">
          <mxGeometry relative="1" as="geometry" />
        </mxCell>
        <mxCell id="h87FwB2Uaeqy7M7Bm88e-6" value="NOTA VALIDA" style="rhombus;whiteSpace=wrap;html=1;" parent="1" vertex="1">
          <mxGeometry x="237.5" y="340" width="115" height="120" as="geometry" />
        </mxCell>
        <mxCell id="h87FwB2Uaeqy7M7Bm88e-7" value="" style="endArrow=classic;html=1;rounded=0;exitX=0.5;exitY=1;exitDx=0;exitDy=0;entryX=0.5;entryY=0;entryDx=0;entryDy=0;" parent="1" target="h87FwB2Uaeqy7M7Bm88e-6" edge="1">
          <mxGeometry width="50" height="50" relative="1" as="geometry">
            <mxPoint x="295" y="290" as="sourcePoint" />
            <mxPoint x="295" y="330" as="targetPoint" />
            <Array as="points" />
          </mxGeometry>
        </mxCell>
        <mxCell id="h87FwB2Uaeqy7M7Bm88e-8" value="FIN" style="ellipse;whiteSpace=wrap;html=1;" parent="1" vertex="1">
          <mxGeometry x="279" y="730" width="120" height="80" as="geometry" />
        </mxCell>
        <mxCell id="h87FwB2Uaeqy7M7Bm88e-9" value="NO" style="text;html=1;align=center;verticalAlign=middle;whiteSpace=wrap;rounded=0;" parent="1" vertex="1">
          <mxGeometry x="160" y="360" width="60" height="30" as="geometry" />
        </mxCell>
        <mxCell id="h87FwB2Uaeqy7M7Bm88e-10" value="SI" style="text;html=1;align=center;verticalAlign=middle;whiteSpace=wrap;rounded=0;" parent="1" vertex="1">
          <mxGeometry x="370" y="360" width="60" height="30" as="geometry" />
        </mxCell>
        <mxCell id="h87FwB2Uaeqy7M7Bm88e-11" style="edgeStyle=orthogonalEdgeStyle;rounded=0;orthogonalLoop=1;jettySize=auto;html=1;entryX=0;entryY=0.5;entryDx=0;entryDy=0;" parent="1" source="h87FwB2Uaeqy7M7Bm88e-12" target="h87FwB2Uaeqy7M7Bm88e-8" edge="1">
          <mxGeometry relative="1" as="geometry">
            <Array as="points">
              <mxPoint x="160" y="770" />
            </Array>
          </mxGeometry>
        </mxCell>
        <mxCell id="h87FwB2Uaeqy7M7Bm88e-12" value="&quot;INGRESE VALOR&amp;nbsp;&lt;div&gt;ENTRE 1 A 7&quot;&lt;/div&gt;" style="shape=parallelogram;perimeter=parallelogramPerimeter;whiteSpace=wrap;html=1;fixedSize=1;" parent="1" vertex="1">
          <mxGeometry x="87.5" y="445" width="150" height="65" as="geometry" />
        </mxCell>
        <mxCell id="1MPXLaCLmfHmWUHmlg0j-1" value="INGRESE NOTA 1 A 7" style="shape=parallelogram;perimeter=parallelogramPerimeter;whiteSpace=wrap;html=1;fixedSize=1;" parent="1" vertex="1">
          <mxGeometry x="220" y="220" width="150" height="65" as="geometry" />
        </mxCell>
        <mxCell id="2gz5QPZl2KIQWmSaZGrW-9" style="edgeStyle=orthogonalEdgeStyle;rounded=0;orthogonalLoop=1;jettySize=auto;html=1;exitX=0;exitY=0.5;exitDx=0;exitDy=0;" parent="1" source="2gz5QPZl2KIQWmSaZGrW-2" target="2gz5QPZl2KIQWmSaZGrW-8" edge="1">
          <mxGeometry relative="1" as="geometry" />
        </mxCell>
        <mxCell id="2gz5QPZl2KIQWmSaZGrW-14" style="edgeStyle=orthogonalEdgeStyle;rounded=0;orthogonalLoop=1;jettySize=auto;html=1;entryX=0.5;entryY=0;entryDx=0;entryDy=0;" parent="1" source="2gz5QPZl2KIQWmSaZGrW-2" target="2gz5QPZl2KIQWmSaZGrW-13" edge="1">
          <mxGeometry relative="1" as="geometry" />
        </mxCell>
        <mxCell id="2gz5QPZl2KIQWmSaZGrW-2" value="NOTA &amp;gt;=4" style="rhombus;whiteSpace=wrap;html=1;" parent="1" vertex="1">
          <mxGeometry x="390" y="445" width="115" height="120" as="geometry" />
        </mxCell>
        <mxCell id="2gz5QPZl2KIQWmSaZGrW-3" value="SI" style="text;html=1;align=center;verticalAlign=middle;whiteSpace=wrap;rounded=0;" parent="1" vertex="1">
          <mxGeometry x="520" y="462.5" width="60" height="30" as="geometry" />
        </mxCell>
        <mxCell id="2gz5QPZl2KIQWmSaZGrW-11" style="edgeStyle=orthogonalEdgeStyle;rounded=0;orthogonalLoop=1;jettySize=auto;html=1;exitX=0.5;exitY=1;exitDx=0;exitDy=0;" parent="1" source="2gz5QPZl2KIQWmSaZGrW-8" target="h87FwB2Uaeqy7M7Bm88e-8" edge="1">
          <mxGeometry relative="1" as="geometry" />
        </mxCell>
        <mxCell id="2gz5QPZl2KIQWmSaZGrW-8" value="&quot;REPROBO&quot;" style="shape=parallelogram;perimeter=parallelogramPerimeter;whiteSpace=wrap;html=1;fixedSize=1;" parent="1" vertex="1">
          <mxGeometry x="264" y="590" width="150" height="65" as="geometry" />
        </mxCell>
        <mxCell id="2gz5QPZl2KIQWmSaZGrW-12" value="NO" style="text;html=1;align=center;verticalAlign=middle;whiteSpace=wrap;rounded=0;" parent="1" vertex="1">
          <mxGeometry x="339" y="462.5" width="60" height="30" as="geometry" />
        </mxCell>
        <mxCell id="2gz5QPZl2KIQWmSaZGrW-15" style="edgeStyle=orthogonalEdgeStyle;rounded=0;orthogonalLoop=1;jettySize=auto;html=1;entryX=1;entryY=0.5;entryDx=0;entryDy=0;" parent="1" source="2gz5QPZl2KIQWmSaZGrW-13" target="h87FwB2Uaeqy7M7Bm88e-8" edge="1">
          <mxGeometry relative="1" as="geometry">
            <Array as="points">
              <mxPoint x="585" y="770" />
            </Array>
          </mxGeometry>
        </mxCell>
        <mxCell id="2gz5QPZl2KIQWmSaZGrW-13" value="&quot;APROBADO&quot;" style="shape=parallelogram;perimeter=parallelogramPerimeter;whiteSpace=wrap;html=1;fixedSize=1;" parent="1" vertex="1">
          <mxGeometry x="510" y="590" width="150" height="65" as="geometry" />
        </mxCell>
      </root>
    </mxGraphModel>
  </diagram>
  <diagram id="9DQme9vVkh9hMpmzJOL5" name="SWITCH">
    <mxGraphModel dx="2253" dy="749" grid="1" gridSize="10" guides="1" tooltips="1" connect="1" arrows="1" fold="1" page="1" pageScale="1" pageWidth="827" pageHeight="1169" math="0" shadow="0">
      <root>
        <mxCell id="0" />
        <mxCell id="1" parent="0" />
        <mxCell id="NEzsQWmzYkI7aBC7Wa6z-30" style="edgeStyle=orthogonalEdgeStyle;rounded=0;orthogonalLoop=1;jettySize=auto;html=1;" parent="1" source="wEpMfJwHH65Atcp-V5kJ-1" target="wEpMfJwHH65Atcp-V5kJ-2" edge="1">
          <mxGeometry relative="1" as="geometry" />
        </mxCell>
        <mxCell id="wEpMfJwHH65Atcp-V5kJ-1" value="INICIO" style="ellipse;whiteSpace=wrap;html=1;" parent="1" vertex="1">
          <mxGeometry x="314" y="50" width="120" height="80" as="geometry" />
        </mxCell>
        <mxCell id="NEzsQWmzYkI7aBC7Wa6z-31" style="edgeStyle=orthogonalEdgeStyle;rounded=0;orthogonalLoop=1;jettySize=auto;html=1;exitX=0.5;exitY=1;exitDx=0;exitDy=0;entryX=0.5;entryY=0;entryDx=0;entryDy=0;" parent="1" source="wEpMfJwHH65Atcp-V5kJ-2" target="wEpMfJwHH65Atcp-V5kJ-3" edge="1">
          <mxGeometry relative="1" as="geometry" />
        </mxCell>
        <mxCell id="wEpMfJwHH65Atcp-V5kJ-2" value="INGRESA N° DE&amp;nbsp;&lt;div&gt;DIA ( 1 AL 7 )&lt;/div&gt;" style="shape=parallelogram;perimeter=parallelogramPerimeter;whiteSpace=wrap;html=1;fixedSize=1;" parent="1" vertex="1">
          <mxGeometry x="279" y="170" width="190" height="60" as="geometry" />
        </mxCell>
        <mxCell id="NEzsQWmzYkI7aBC7Wa6z-2" style="edgeStyle=orthogonalEdgeStyle;rounded=0;orthogonalLoop=1;jettySize=auto;html=1;" parent="1" source="wEpMfJwHH65Atcp-V5kJ-3" target="NEzsQWmzYkI7aBC7Wa6z-1" edge="1">
          <mxGeometry relative="1" as="geometry" />
        </mxCell>
        <mxCell id="NEzsQWmzYkI7aBC7Wa6z-8" style="edgeStyle=orthogonalEdgeStyle;rounded=0;orthogonalLoop=1;jettySize=auto;html=1;entryX=0.5;entryY=0;entryDx=0;entryDy=0;" parent="1" source="wEpMfJwHH65Atcp-V5kJ-3" target="NEzsQWmzYkI7aBC7Wa6z-7" edge="1">
          <mxGeometry relative="1" as="geometry" />
        </mxCell>
        <mxCell id="wEpMfJwHH65Atcp-V5kJ-3" value="DIA VALIDO" style="rhombus;whiteSpace=wrap;html=1;" parent="1" vertex="1">
          <mxGeometry x="334" y="280" width="80" height="80" as="geometry" />
        </mxCell>
        <mxCell id="NEzsQWmzYkI7aBC7Wa6z-6" style="edgeStyle=orthogonalEdgeStyle;rounded=0;orthogonalLoop=1;jettySize=auto;html=1;entryX=1;entryY=0.5;entryDx=0;entryDy=0;" parent="1" source="NEzsQWmzYkI7aBC7Wa6z-1" target="NEzsQWmzYkI7aBC7Wa6z-4" edge="1">
          <mxGeometry relative="1" as="geometry">
            <Array as="points">
              <mxPoint x="585" y="780" />
            </Array>
          </mxGeometry>
        </mxCell>
        <mxCell id="NEzsQWmzYkI7aBC7Wa6z-1" value="&quot;INGRESE VALOR&amp;nbsp;&lt;div&gt;ENTRE 1 A 7&quot;&lt;/div&gt;" style="shape=parallelogram;perimeter=parallelogramPerimeter;whiteSpace=wrap;html=1;fixedSize=1;" parent="1" vertex="1">
          <mxGeometry x="510" y="480" width="150" height="65" as="geometry" />
        </mxCell>
        <mxCell id="NEzsQWmzYkI7aBC7Wa6z-3" value="NO" style="text;html=1;align=center;verticalAlign=middle;whiteSpace=wrap;rounded=0;" parent="1" vertex="1">
          <mxGeometry x="430" y="280" width="60" height="30" as="geometry" />
        </mxCell>
        <mxCell id="NEzsQWmzYkI7aBC7Wa6z-4" value="FIN" style="ellipse;whiteSpace=wrap;html=1;" parent="1" vertex="1">
          <mxGeometry x="354" y="740" width="120" height="80" as="geometry" />
        </mxCell>
        <mxCell id="NEzsQWmzYkI7aBC7Wa6z-10" style="edgeStyle=orthogonalEdgeStyle;rounded=0;orthogonalLoop=1;jettySize=auto;html=1;" parent="1" source="NEzsQWmzYkI7aBC7Wa6z-7" target="NEzsQWmzYkI7aBC7Wa6z-9" edge="1">
          <mxGeometry relative="1" as="geometry" />
        </mxCell>
        <mxCell id="NEzsQWmzYkI7aBC7Wa6z-14" style="edgeStyle=orthogonalEdgeStyle;rounded=0;orthogonalLoop=1;jettySize=auto;html=1;" parent="1" source="NEzsQWmzYkI7aBC7Wa6z-7" target="NEzsQWmzYkI7aBC7Wa6z-13" edge="1">
          <mxGeometry relative="1" as="geometry" />
        </mxCell>
        <mxCell id="NEzsQWmzYkI7aBC7Wa6z-7" value="DIA == 1" style="rhombus;whiteSpace=wrap;html=1;" parent="1" vertex="1">
          <mxGeometry x="200" y="380" width="80" height="80" as="geometry" />
        </mxCell>
        <mxCell id="NEzsQWmzYkI7aBC7Wa6z-16" style="edgeStyle=orthogonalEdgeStyle;rounded=0;orthogonalLoop=1;jettySize=auto;html=1;" parent="1" source="NEzsQWmzYkI7aBC7Wa6z-9" target="NEzsQWmzYkI7aBC7Wa6z-15" edge="1">
          <mxGeometry relative="1" as="geometry" />
        </mxCell>
        <mxCell id="NEzsQWmzYkI7aBC7Wa6z-26" style="edgeStyle=orthogonalEdgeStyle;rounded=0;orthogonalLoop=1;jettySize=auto;html=1;entryX=0.5;entryY=0;entryDx=0;entryDy=0;" parent="1" source="NEzsQWmzYkI7aBC7Wa6z-9" target="NEzsQWmzYkI7aBC7Wa6z-21" edge="1">
          <mxGeometry relative="1" as="geometry" />
        </mxCell>
        <mxCell id="NEzsQWmzYkI7aBC7Wa6z-9" value="DIA == 2" style="rhombus;whiteSpace=wrap;html=1;" parent="1" vertex="1">
          <mxGeometry x="90" y="480" width="80" height="80" as="geometry" />
        </mxCell>
        <mxCell id="NEzsQWmzYkI7aBC7Wa6z-11" value="SI" style="text;html=1;align=center;verticalAlign=middle;whiteSpace=wrap;rounded=0;" parent="1" vertex="1">
          <mxGeometry x="260" y="280" width="60" height="30" as="geometry" />
        </mxCell>
        <mxCell id="NEzsQWmzYkI7aBC7Wa6z-12" value="SI" style="text;html=1;align=center;verticalAlign=middle;whiteSpace=wrap;rounded=0;" parent="1" vertex="1">
          <mxGeometry x="274" y="380" width="60" height="30" as="geometry" />
        </mxCell>
        <mxCell id="NEzsQWmzYkI7aBC7Wa6z-19" style="edgeStyle=orthogonalEdgeStyle;rounded=0;orthogonalLoop=1;jettySize=auto;html=1;" parent="1" source="NEzsQWmzYkI7aBC7Wa6z-13" target="NEzsQWmzYkI7aBC7Wa6z-4" edge="1">
          <mxGeometry relative="1" as="geometry" />
        </mxCell>
        <mxCell id="NEzsQWmzYkI7aBC7Wa6z-13" value="&quot;LUNES&quot;" style="shape=parallelogram;perimeter=parallelogramPerimeter;whiteSpace=wrap;html=1;fixedSize=1;" parent="1" vertex="1">
          <mxGeometry x="300" y="498.75" width="100" height="42.5" as="geometry" />
        </mxCell>
        <mxCell id="NEzsQWmzYkI7aBC7Wa6z-15" value="&quot;MARTES&quot;" style="shape=parallelogram;perimeter=parallelogramPerimeter;whiteSpace=wrap;html=1;fixedSize=1;" parent="1" vertex="1">
          <mxGeometry x="190" y="585" width="100" height="42.5" as="geometry" />
        </mxCell>
        <mxCell id="NEzsQWmzYkI7aBC7Wa6z-17" value="SI" style="text;html=1;align=center;verticalAlign=middle;whiteSpace=wrap;rounded=0;" parent="1" vertex="1">
          <mxGeometry x="160" y="480" width="60" height="30" as="geometry" />
        </mxCell>
        <mxCell id="NEzsQWmzYkI7aBC7Wa6z-18" value="NO" style="text;html=1;align=center;verticalAlign=middle;whiteSpace=wrap;rounded=0;" parent="1" vertex="1">
          <mxGeometry x="130" y="380" width="60" height="30" as="geometry" />
        </mxCell>
        <mxCell id="NEzsQWmzYkI7aBC7Wa6z-20" style="edgeStyle=orthogonalEdgeStyle;rounded=0;orthogonalLoop=1;jettySize=auto;html=1;entryX=-0.008;entryY=0.363;entryDx=0;entryDy=0;entryPerimeter=0;" parent="1" source="NEzsQWmzYkI7aBC7Wa6z-15" target="NEzsQWmzYkI7aBC7Wa6z-4" edge="1">
          <mxGeometry relative="1" as="geometry" />
        </mxCell>
        <mxCell id="NEzsQWmzYkI7aBC7Wa6z-23" style="edgeStyle=orthogonalEdgeStyle;rounded=0;orthogonalLoop=1;jettySize=auto;html=1;" parent="1" source="NEzsQWmzYkI7aBC7Wa6z-21" target="NEzsQWmzYkI7aBC7Wa6z-22" edge="1">
          <mxGeometry relative="1" as="geometry" />
        </mxCell>
        <mxCell id="NEzsQWmzYkI7aBC7Wa6z-29" style="edgeStyle=orthogonalEdgeStyle;rounded=0;orthogonalLoop=1;jettySize=auto;html=1;" parent="1" source="NEzsQWmzYkI7aBC7Wa6z-21" edge="1" target="XyNMalprltW9U6175O-a-1">
          <mxGeometry relative="1" as="geometry">
            <mxPoint x="30" y="760" as="targetPoint" />
          </mxGeometry>
        </mxCell>
        <mxCell id="NEzsQWmzYkI7aBC7Wa6z-21" value="DIA = 3" style="rhombus;whiteSpace=wrap;html=1;" parent="1" vertex="1">
          <mxGeometry x="-10" y="585" width="80" height="80" as="geometry" />
        </mxCell>
        <mxCell id="NEzsQWmzYkI7aBC7Wa6z-24" style="edgeStyle=orthogonalEdgeStyle;rounded=0;orthogonalLoop=1;jettySize=auto;html=1;entryX=0;entryY=0.5;entryDx=0;entryDy=0;" parent="1" source="NEzsQWmzYkI7aBC7Wa6z-22" target="NEzsQWmzYkI7aBC7Wa6z-4" edge="1">
          <mxGeometry relative="1" as="geometry" />
        </mxCell>
        <mxCell id="NEzsQWmzYkI7aBC7Wa6z-22" value="&quot;MIERCOLES&quot;" style="shape=parallelogram;perimeter=parallelogramPerimeter;whiteSpace=wrap;html=1;fixedSize=1;" parent="1" vertex="1">
          <mxGeometry x="90" y="670" width="110" height="50" as="geometry" />
        </mxCell>
        <mxCell id="NEzsQWmzYkI7aBC7Wa6z-27" value="NO" style="text;html=1;align=center;verticalAlign=middle;whiteSpace=wrap;rounded=0;" parent="1" vertex="1">
          <mxGeometry x="30" y="480" width="60" height="30" as="geometry" />
        </mxCell>
        <mxCell id="NEzsQWmzYkI7aBC7Wa6z-28" value="NO" style="text;html=1;align=center;verticalAlign=middle;whiteSpace=wrap;rounded=0;" parent="1" vertex="1">
          <mxGeometry x="-40" y="670" width="60" height="30" as="geometry" />
        </mxCell>
        <mxCell id="XyNMalprltW9U6175O-a-2" style="edgeStyle=orthogonalEdgeStyle;rounded=0;orthogonalLoop=1;jettySize=auto;html=1;" edge="1" parent="1" source="XyNMalprltW9U6175O-a-1" target="NEzsQWmzYkI7aBC7Wa6z-4">
          <mxGeometry relative="1" as="geometry" />
        </mxCell>
        <mxCell id="XyNMalprltW9U6175O-a-1" value="DIA NO VALIDO" style="shape=parallelogram;perimeter=parallelogramPerimeter;whiteSpace=wrap;html=1;fixedSize=1;" vertex="1" parent="1">
          <mxGeometry x="-25" y="755" width="110" height="50" as="geometry" />
        </mxCell>
      </root>
    </mxGraphModel>
  </diagram>
  <diagram id="sgrLj7cybHjvJOAW9ikd" name="FOR">
    <mxGraphModel dx="1426" dy="749" grid="1" gridSize="10" guides="1" tooltips="1" connect="1" arrows="1" fold="1" page="1" pageScale="1" pageWidth="827" pageHeight="1169" math="0" shadow="0">
      <root>
        <mxCell id="0" />
        <mxCell id="1" parent="0" />
        <mxCell id="1piczieTa5ISrq-qxUS7-15" style="edgeStyle=orthogonalEdgeStyle;rounded=0;orthogonalLoop=1;jettySize=auto;html=1;entryX=0.5;entryY=0;entryDx=0;entryDy=0;" edge="1" parent="1" source="1piczieTa5ISrq-qxUS7-1" target="1piczieTa5ISrq-qxUS7-2">
          <mxGeometry relative="1" as="geometry" />
        </mxCell>
        <mxCell id="1piczieTa5ISrq-qxUS7-1" value="INICIO" style="ellipse;whiteSpace=wrap;html=1;" vertex="1" parent="1">
          <mxGeometry x="340" y="70" width="120" height="80" as="geometry" />
        </mxCell>
        <mxCell id="1piczieTa5ISrq-qxUS7-14" style="edgeStyle=orthogonalEdgeStyle;rounded=0;orthogonalLoop=1;jettySize=auto;html=1;" edge="1" parent="1" source="1piczieTa5ISrq-qxUS7-2" target="1piczieTa5ISrq-qxUS7-3">
          <mxGeometry relative="1" as="geometry" />
        </mxCell>
        <mxCell id="1piczieTa5ISrq-qxUS7-2" value="I == 1" style="shape=parallelogram;perimeter=parallelogramPerimeter;whiteSpace=wrap;html=1;fixedSize=1;" vertex="1" parent="1">
          <mxGeometry x="340" y="220" width="120" height="60" as="geometry" />
        </mxCell>
        <mxCell id="1piczieTa5ISrq-qxUS7-7" style="edgeStyle=orthogonalEdgeStyle;rounded=0;orthogonalLoop=1;jettySize=auto;html=1;entryX=0.5;entryY=0;entryDx=0;entryDy=0;" edge="1" parent="1" source="1piczieTa5ISrq-qxUS7-3" target="1piczieTa5ISrq-qxUS7-5">
          <mxGeometry relative="1" as="geometry" />
        </mxCell>
        <mxCell id="1piczieTa5ISrq-qxUS7-11" style="edgeStyle=orthogonalEdgeStyle;rounded=0;orthogonalLoop=1;jettySize=auto;html=1;entryX=0.5;entryY=0;entryDx=0;entryDy=0;" edge="1" parent="1" source="1piczieTa5ISrq-qxUS7-3" target="1piczieTa5ISrq-qxUS7-12">
          <mxGeometry relative="1" as="geometry">
            <mxPoint x="560" y="500" as="targetPoint" />
          </mxGeometry>
        </mxCell>
        <mxCell id="1piczieTa5ISrq-qxUS7-3" value="¿I &amp;lt;=5 ?" style="rhombus;whiteSpace=wrap;html=1;" vertex="1" parent="1">
          <mxGeometry x="360" y="330" width="80" height="80" as="geometry" />
        </mxCell>
        <mxCell id="1piczieTa5ISrq-qxUS7-4" style="edgeStyle=orthogonalEdgeStyle;rounded=0;orthogonalLoop=1;jettySize=auto;html=1;exitX=0.5;exitY=1;exitDx=0;exitDy=0;" edge="1" parent="1" source="1piczieTa5ISrq-qxUS7-2" target="1piczieTa5ISrq-qxUS7-2">
          <mxGeometry relative="1" as="geometry" />
        </mxCell>
        <mxCell id="pnQggTGfXL9Ss5UAE7ix-1" style="edgeStyle=orthogonalEdgeStyle;rounded=0;orthogonalLoop=1;jettySize=auto;html=1;entryX=0;entryY=0.5;entryDx=0;entryDy=0;" edge="1" parent="1" source="1piczieTa5ISrq-qxUS7-5" target="1piczieTa5ISrq-qxUS7-6">
          <mxGeometry relative="1" as="geometry">
            <Array as="points">
              <mxPoint x="210" y="585" />
            </Array>
          </mxGeometry>
        </mxCell>
        <mxCell id="1piczieTa5ISrq-qxUS7-5" value="IMPRIMIR I" style="shape=parallelogram;perimeter=parallelogramPerimeter;whiteSpace=wrap;html=1;fixedSize=1;" vertex="1" parent="1">
          <mxGeometry x="150" y="410" width="120" height="60" as="geometry" />
        </mxCell>
        <mxCell id="1piczieTa5ISrq-qxUS7-10" style="edgeStyle=orthogonalEdgeStyle;rounded=0;orthogonalLoop=1;jettySize=auto;html=1;entryX=0.5;entryY=1;entryDx=0;entryDy=0;" edge="1" parent="1" source="1piczieTa5ISrq-qxUS7-6" target="1piczieTa5ISrq-qxUS7-3">
          <mxGeometry relative="1" as="geometry" />
        </mxCell>
        <mxCell id="1piczieTa5ISrq-qxUS7-6" value="I++" style="shape=parallelogram;perimeter=parallelogramPerimeter;whiteSpace=wrap;html=1;fixedSize=1;" vertex="1" parent="1">
          <mxGeometry x="230" y="555" width="120" height="60" as="geometry" />
        </mxCell>
        <mxCell id="1piczieTa5ISrq-qxUS7-8" value="SI" style="text;html=1;align=center;verticalAlign=middle;whiteSpace=wrap;rounded=0;" vertex="1" parent="1">
          <mxGeometry x="270" y="320" width="60" height="30" as="geometry" />
        </mxCell>
        <mxCell id="1piczieTa5ISrq-qxUS7-12" value="FIN" style="ellipse;whiteSpace=wrap;html=1;" vertex="1" parent="1">
          <mxGeometry x="490" y="510" width="120" height="80" as="geometry" />
        </mxCell>
        <mxCell id="1piczieTa5ISrq-qxUS7-13" value="NO" style="text;html=1;align=center;verticalAlign=middle;whiteSpace=wrap;rounded=0;" vertex="1" parent="1">
          <mxGeometry x="470" y="320" width="60" height="30" as="geometry" />
        </mxCell>
      </root>
    </mxGraphModel>
  </diagram>
  <diagram id="Vv0He9nRbTJJaLV2eMmJ" name="WHILE">
    <mxGraphModel dx="1501" dy="788" grid="1" gridSize="10" guides="1" tooltips="1" connect="1" arrows="1" fold="1" page="1" pageScale="1" pageWidth="827" pageHeight="1169" math="0" shadow="0">
      <root>
        <mxCell id="0" />
        <mxCell id="1" parent="0" />
        <mxCell id="2SoEwqjoA1vajyufWWqh-1" style="edgeStyle=orthogonalEdgeStyle;rounded=0;orthogonalLoop=1;jettySize=auto;html=1;entryX=0.5;entryY=0;entryDx=0;entryDy=0;" edge="1" parent="1" source="2SoEwqjoA1vajyufWWqh-2" target="2SoEwqjoA1vajyufWWqh-4">
          <mxGeometry relative="1" as="geometry" />
        </mxCell>
        <mxCell id="2SoEwqjoA1vajyufWWqh-2" value="INICIO" style="ellipse;whiteSpace=wrap;html=1;" vertex="1" parent="1">
          <mxGeometry x="290" y="60" width="120" height="80" as="geometry" />
        </mxCell>
        <mxCell id="2SoEwqjoA1vajyufWWqh-3" style="edgeStyle=orthogonalEdgeStyle;rounded=0;orthogonalLoop=1;jettySize=auto;html=1;" edge="1" parent="1" source="2SoEwqjoA1vajyufWWqh-4" target="2SoEwqjoA1vajyufWWqh-7">
          <mxGeometry relative="1" as="geometry" />
        </mxCell>
        <mxCell id="2SoEwqjoA1vajyufWWqh-4" value="SUMA = 0&lt;div&gt;NUM = 1&lt;/div&gt;" style="shape=parallelogram;perimeter=parallelogramPerimeter;whiteSpace=wrap;html=1;fixedSize=1;" vertex="1" parent="1">
          <mxGeometry x="290" y="210" width="120" height="60" as="geometry" />
        </mxCell>
        <mxCell id="2SoEwqjoA1vajyufWWqh-5" style="edgeStyle=orthogonalEdgeStyle;rounded=0;orthogonalLoop=1;jettySize=auto;html=1;entryX=0.5;entryY=0;entryDx=0;entryDy=0;" edge="1" parent="1" source="2SoEwqjoA1vajyufWWqh-7" target="2SoEwqjoA1vajyufWWqh-10">
          <mxGeometry relative="1" as="geometry" />
        </mxCell>
        <mxCell id="2SoEwqjoA1vajyufWWqh-17" style="edgeStyle=orthogonalEdgeStyle;rounded=0;orthogonalLoop=1;jettySize=auto;html=1;entryX=0.5;entryY=0;entryDx=0;entryDy=0;" edge="1" parent="1" source="2SoEwqjoA1vajyufWWqh-7" target="2SoEwqjoA1vajyufWWqh-16">
          <mxGeometry relative="1" as="geometry" />
        </mxCell>
        <mxCell id="2SoEwqjoA1vajyufWWqh-7" value="¿NUM !=0 ?" style="rhombus;whiteSpace=wrap;html=1;" vertex="1" parent="1">
          <mxGeometry x="310" y="320" width="80" height="80" as="geometry" />
        </mxCell>
        <mxCell id="2SoEwqjoA1vajyufWWqh-8" style="edgeStyle=orthogonalEdgeStyle;rounded=0;orthogonalLoop=1;jettySize=auto;html=1;exitX=0.5;exitY=1;exitDx=0;exitDy=0;" edge="1" parent="1" source="2SoEwqjoA1vajyufWWqh-4" target="2SoEwqjoA1vajyufWWqh-4">
          <mxGeometry relative="1" as="geometry" />
        </mxCell>
        <mxCell id="2SoEwqjoA1vajyufWWqh-9" style="edgeStyle=orthogonalEdgeStyle;rounded=0;orthogonalLoop=1;jettySize=auto;html=1;entryX=0;entryY=0.5;entryDx=0;entryDy=0;" edge="1" parent="1" source="2SoEwqjoA1vajyufWWqh-10" target="2SoEwqjoA1vajyufWWqh-12">
          <mxGeometry relative="1" as="geometry">
            <Array as="points">
              <mxPoint x="160" y="575" />
            </Array>
          </mxGeometry>
        </mxCell>
        <mxCell id="2SoEwqjoA1vajyufWWqh-10" value="NUM" style="shape=parallelogram;perimeter=parallelogramPerimeter;whiteSpace=wrap;html=1;fixedSize=1;" vertex="1" parent="1">
          <mxGeometry x="100" y="400" width="120" height="60" as="geometry" />
        </mxCell>
        <mxCell id="2SoEwqjoA1vajyufWWqh-11" style="edgeStyle=orthogonalEdgeStyle;rounded=0;orthogonalLoop=1;jettySize=auto;html=1;entryX=0.5;entryY=1;entryDx=0;entryDy=0;" edge="1" parent="1" source="2SoEwqjoA1vajyufWWqh-12" target="2SoEwqjoA1vajyufWWqh-7">
          <mxGeometry relative="1" as="geometry" />
        </mxCell>
        <mxCell id="2SoEwqjoA1vajyufWWqh-12" value="SUMA += NUM" style="shape=parallelogram;perimeter=parallelogramPerimeter;whiteSpace=wrap;html=1;fixedSize=1;" vertex="1" parent="1">
          <mxGeometry x="180" y="545" width="120" height="60" as="geometry" />
        </mxCell>
        <mxCell id="2SoEwqjoA1vajyufWWqh-13" value="SI" style="text;html=1;align=center;verticalAlign=middle;whiteSpace=wrap;rounded=0;" vertex="1" parent="1">
          <mxGeometry x="220" y="310" width="60" height="30" as="geometry" />
        </mxCell>
        <mxCell id="2SoEwqjoA1vajyufWWqh-14" value="FIN" style="ellipse;whiteSpace=wrap;html=1;" vertex="1" parent="1">
          <mxGeometry x="460" y="505" width="120" height="80" as="geometry" />
        </mxCell>
        <mxCell id="2SoEwqjoA1vajyufWWqh-15" value="NO" style="text;html=1;align=center;verticalAlign=middle;whiteSpace=wrap;rounded=0;" vertex="1" parent="1">
          <mxGeometry x="420" y="310" width="60" height="30" as="geometry" />
        </mxCell>
        <mxCell id="2SoEwqjoA1vajyufWWqh-18" style="edgeStyle=orthogonalEdgeStyle;rounded=0;orthogonalLoop=1;jettySize=auto;html=1;entryX=0.5;entryY=0;entryDx=0;entryDy=0;" edge="1" parent="1" source="2SoEwqjoA1vajyufWWqh-16" target="2SoEwqjoA1vajyufWWqh-14">
          <mxGeometry relative="1" as="geometry" />
        </mxCell>
        <mxCell id="2SoEwqjoA1vajyufWWqh-16" value="SUMA" style="shape=parallelogram;perimeter=parallelogramPerimeter;whiteSpace=wrap;html=1;fixedSize=1;" vertex="1" parent="1">
          <mxGeometry x="445" y="400" width="150" height="60" as="geometry" />
        </mxCell>
      </root>
    </mxGraphModel>
  </diagram>
  <diagram id="ZkrMClsrGgx72t1pZqJo" name="DO-WHILE">
    <mxGraphModel dx="1426" dy="749" grid="1" gridSize="10" guides="1" tooltips="1" connect="1" arrows="1" fold="1" page="1" pageScale="1" pageWidth="827" pageHeight="1169" math="0" shadow="0">
      <root>
        <mxCell id="0" />
        <mxCell id="1" parent="0" />
        <mxCell id="VgMrjfVDhvb6h0KIE1tJ-1" style="edgeStyle=orthogonalEdgeStyle;rounded=0;orthogonalLoop=1;jettySize=auto;html=1;entryX=0.5;entryY=0;entryDx=0;entryDy=0;" edge="1" parent="1" source="VgMrjfVDhvb6h0KIE1tJ-2" target="VgMrjfVDhvb6h0KIE1tJ-4">
          <mxGeometry relative="1" as="geometry" />
        </mxCell>
        <mxCell id="VgMrjfVDhvb6h0KIE1tJ-2" value="INICIO" style="ellipse;whiteSpace=wrap;html=1;" vertex="1" parent="1">
          <mxGeometry x="270" y="50" width="120" height="80" as="geometry" />
        </mxCell>
        <mxCell id="VgMrjfVDhvb6h0KIE1tJ-3" style="edgeStyle=orthogonalEdgeStyle;rounded=0;orthogonalLoop=1;jettySize=auto;html=1;entryX=0;entryY=0;entryDx=0;entryDy=0;exitX=0.25;exitY=1;exitDx=0;exitDy=0;" edge="1" parent="1" source="VgMrjfVDhvb6h0KIE1tJ-4" target="VgMrjfVDhvb6h0KIE1tJ-7">
          <mxGeometry relative="1" as="geometry" />
        </mxCell>
        <mxCell id="VgMrjfVDhvb6h0KIE1tJ-4" value="INGRESA NUM" style="shape=parallelogram;perimeter=parallelogramPerimeter;whiteSpace=wrap;html=1;fixedSize=1;" vertex="1" parent="1">
          <mxGeometry x="245" y="200" width="170" height="60" as="geometry" />
        </mxCell>
        <mxCell id="VgMrjfVDhvb6h0KIE1tJ-6" style="edgeStyle=orthogonalEdgeStyle;rounded=0;orthogonalLoop=1;jettySize=auto;html=1;entryX=0.5;entryY=0;entryDx=0;entryDy=0;" edge="1" parent="1" source="VgMrjfVDhvb6h0KIE1tJ-7" target="VgMrjfVDhvb6h0KIE1tJ-17">
          <mxGeometry relative="1" as="geometry" />
        </mxCell>
        <mxCell id="VgMrjfVDhvb6h0KIE1tJ-18" style="edgeStyle=orthogonalEdgeStyle;rounded=0;orthogonalLoop=1;jettySize=auto;html=1;exitX=1;exitY=0.5;exitDx=0;exitDy=0;entryX=1;entryY=0.5;entryDx=0;entryDy=0;" edge="1" parent="1" source="VgMrjfVDhvb6h0KIE1tJ-7" target="VgMrjfVDhvb6h0KIE1tJ-4">
          <mxGeometry relative="1" as="geometry">
            <Array as="points">
              <mxPoint x="460" y="365" />
              <mxPoint x="460" y="230" />
            </Array>
          </mxGeometry>
        </mxCell>
        <mxCell id="VgMrjfVDhvb6h0KIE1tJ-7" value="¿NUM &amp;gt; 0 ?" style="rhombus;whiteSpace=wrap;html=1;" vertex="1" parent="1">
          <mxGeometry x="270" y="310" width="120" height="110" as="geometry" />
        </mxCell>
        <mxCell id="VgMrjfVDhvb6h0KIE1tJ-8" style="edgeStyle=orthogonalEdgeStyle;rounded=0;orthogonalLoop=1;jettySize=auto;html=1;exitX=0.5;exitY=1;exitDx=0;exitDy=0;" edge="1" parent="1" source="VgMrjfVDhvb6h0KIE1tJ-4" target="VgMrjfVDhvb6h0KIE1tJ-4">
          <mxGeometry relative="1" as="geometry" />
        </mxCell>
        <mxCell id="VgMrjfVDhvb6h0KIE1tJ-14" value="FIN" style="ellipse;whiteSpace=wrap;html=1;" vertex="1" parent="1">
          <mxGeometry x="270" y="600" width="120" height="80" as="geometry" />
        </mxCell>
        <mxCell id="VgMrjfVDhvb6h0KIE1tJ-15" value="NO" style="text;html=1;align=center;verticalAlign=middle;whiteSpace=wrap;rounded=0;" vertex="1" parent="1">
          <mxGeometry x="450" y="290" width="60" height="30" as="geometry" />
        </mxCell>
        <mxCell id="VgMrjfVDhvb6h0KIE1tJ-16" style="edgeStyle=orthogonalEdgeStyle;rounded=0;orthogonalLoop=1;jettySize=auto;html=1;entryX=0.5;entryY=0;entryDx=0;entryDy=0;" edge="1" parent="1" source="VgMrjfVDhvb6h0KIE1tJ-17" target="VgMrjfVDhvb6h0KIE1tJ-14">
          <mxGeometry relative="1" as="geometry" />
        </mxCell>
        <mxCell id="VgMrjfVDhvb6h0KIE1tJ-17" value="NUMERO VALIDO" style="shape=parallelogram;perimeter=parallelogramPerimeter;whiteSpace=wrap;html=1;fixedSize=1;" vertex="1" parent="1">
          <mxGeometry x="255" y="490" width="150" height="60" as="geometry" />
        </mxCell>
        <mxCell id="VgMrjfVDhvb6h0KIE1tJ-20" value="SI" style="text;html=1;align=center;verticalAlign=middle;whiteSpace=wrap;rounded=0;" vertex="1" parent="1">
          <mxGeometry x="270" y="430" width="60" height="30" as="geometry" />
        </mxCell>
      </root>
    </mxGraphModel>
  </diagram>
</mxfile>
